<svg width="67" height="74" viewBox="0 0 67 74" fill="none" xmlns="http://www.w3.org/2000/svg">
<g clip-path="url(#clip0_50_391)">
<path opacity="0.1" d="M26.869 69.4751C26.3854 69.4751 25.6634 69.3949 24.9822 69.0071L1.29418 55.5797C0.483615 55.1205 0 54.3493 0 53.5179C0 52.6864 0.483615 51.9152 1.29418 51.456L38.2465 30.5125C38.9276 30.1269 39.6496 30.0444 40.1332 30.0444C40.6169 30.0444 41.3389 30.1247 42.02 30.5125L65.7081 43.9399C66.5186 44.3991 67.0023 45.1703 67.0023 46.0017C67.0023 46.8331 66.5186 47.6044 65.7081 48.0635L28.7558 69.0071C28.0747 69.3927 27.3526 69.4751 26.869 69.4751Z" fill="black"/>
<g opacity="0.1">
<path opacity="0.1" d="M63.6625 59.8348C59.8662 57.6839 53.7109 57.6839 49.9146 59.8348C46.6973 61.6582 46.2069 64.4421 48.4456 66.5597C48.3162 66.5953 48.1936 66.6422 48.0846 66.7046L38.1898 72.3283C37.6812 72.6158 37.6812 73.0839 38.1898 73.3737L38.9413 73.7994C39.4499 74.087 40.2628 74.0647 40.7532 73.7504L49.8261 67.7477C49.8738 67.7165 49.9146 67.6831 49.9555 67.6497C53.754 69.7806 59.8821 69.7739 63.667 67.6296C67.4633 65.4786 67.4633 61.988 63.667 59.8371L63.6625 59.8348Z" fill="black"/>
<path opacity="0.1" d="M49.9419 63.5617C49.9419 62.7749 50.5844 62.0103 51.7492 61.4041C53.0388 60.7354 54.769 60.3654 56.6217 60.3654C58.4744 60.3654 60.2023 60.7331 61.4919 61.4041C62.6589 62.0103 63.2992 62.7749 63.2992 63.5617C63.2992 64.3485 62.6567 65.1131 61.4919 65.7194C60.2023 66.3881 58.4721 66.7581 56.6217 66.7581C54.7712 66.7581 53.0388 66.3903 51.7492 65.7194C50.5822 65.1131 49.9419 64.3485 49.9419 63.5617Z" fill="black"/>
</g>
<path d="M65.2994 60.9872C65.2994 59.7278 64.4525 58.4707 62.7587 57.51C59.3711 55.5886 53.8765 55.5886 50.4889 57.51C48.7951 58.4707 47.9482 59.7278 47.9482 60.9872V63.3054C47.9482 64.5647 48.7951 65.8219 50.4889 66.7826C53.8765 68.704 59.3711 68.704 62.7587 66.7826C64.4525 65.8219 65.2994 64.5647 65.2994 63.3054V60.9872ZM50.9067 58.2233C52.4188 57.3651 54.4487 56.8926 56.6215 56.8926C58.7944 56.8926 60.8242 57.3651 62.3364 58.2233C63.7055 58.999 64.457 59.9797 64.457 60.9872C64.457 61.9947 63.7032 62.9755 62.3364 63.7512C60.8242 64.6093 58.7944 65.0819 56.6215 65.0819C54.4487 65.0819 52.4188 64.6093 50.9067 63.7512C49.5376 62.9755 48.7861 61.9947 48.7861 60.9872C48.7861 59.9797 49.5399 58.999 50.9067 58.2233Z" fill="#74C1C4"/>
<path opacity="0.4" d="M65.2994 60.9872C65.2994 59.7278 64.4525 58.4707 62.7587 57.51C59.3711 55.5886 53.8765 55.5886 50.4889 57.51C48.7951 58.4707 47.9482 59.7278 47.9482 60.9872V63.3054C47.9482 64.5647 48.7951 65.8219 50.4889 66.7826C53.8765 68.704 59.3711 68.704 62.7587 66.7826C64.4525 65.8219 65.2994 64.5647 65.2994 63.3054V60.9872ZM50.9067 58.2233C52.4188 57.3651 54.4487 56.8926 56.6215 56.8926C58.7944 56.8926 60.8242 57.3651 62.3364 58.2233C63.7055 58.999 64.457 59.9797 64.457 60.9872C64.457 61.9947 63.7032 62.9755 62.3364 63.7512C60.8242 64.6093 58.7944 65.0819 56.6215 65.0819C54.4487 65.0819 52.4188 64.6093 50.9067 63.7512C49.5376 62.9755 48.7861 61.9947 48.7861 60.9872C48.7861 59.9797 49.5399 58.999 50.9067 58.2233Z" fill="white"/>
<path opacity="0.4" d="M50.4865 64.4644C53.8741 66.3858 59.3687 66.3858 62.7562 64.4644C66.1438 62.543 66.1438 59.4314 62.7562 57.51C59.3687 55.5886 53.8741 55.5886 50.4865 57.51C47.0989 59.4314 47.0989 62.5453 50.4865 64.4644ZM48.7836 60.9872C48.7836 59.9797 49.5374 58.999 50.9043 58.2233C52.4164 57.3651 54.4462 56.8926 56.6191 56.8926C58.7919 56.8926 60.8218 57.3651 62.3339 58.2233C63.703 58.999 64.4546 59.9797 64.4546 60.9872C64.4546 61.9947 63.7008 62.9755 62.3339 63.7512C60.8218 64.6093 58.7919 65.0819 56.6191 65.0819C54.4462 65.0819 52.4164 64.6093 50.9043 63.7512C49.5351 62.9755 48.7836 61.9947 48.7836 60.9872Z" fill="white"/>
<path d="M48.7837 60.9872C48.7837 61.3817 48.8995 61.7718 49.122 62.1463C49.4671 61.5623 50.0711 61.0139 50.9066 60.5414C52.4188 59.6832 54.4486 59.2107 56.6214 59.2107C58.7943 59.2107 60.8241 59.6832 62.3363 60.5414C63.1695 61.0117 63.7758 61.5623 64.1209 62.1463C64.3434 61.7696 64.4592 61.3817 64.4592 60.9872C64.4592 59.9797 63.7054 58.9989 62.3363 58.2232C60.8241 57.3673 58.7943 56.8948 56.6214 56.8948C54.4486 56.8948 52.4188 57.3673 50.9066 58.2232C49.5375 58.9989 48.7837 59.9819 48.7837 60.9872Z" fill="#74C1C4"/>
<path opacity="0.4" d="M50.9065 59.2731C52.4187 58.415 54.4485 57.9424 56.6214 57.9424C58.7942 57.9424 60.824 58.415 62.3362 59.2731C63.4646 59.9129 64.173 60.693 64.3887 61.5133C64.1753 62.3313 63.4669 63.1114 62.3362 63.7534C60.824 64.6116 58.7942 65.0841 56.6214 65.0841C54.4485 65.0841 52.4187 64.6116 50.9065 63.7534C49.7781 63.1137 49.0697 62.3335 48.854 61.5133C49.0674 60.6952 49.7758 59.9151 50.9065 59.2731Z" fill="white"/>
<path d="M54.5779 65.7684V68.0843C53.0794 67.8792 51.6581 67.4468 50.4888 66.7825C48.795 65.8219 47.9458 64.5625 47.9458 63.3053V60.9872C47.9458 60.7331 47.9821 60.479 48.0502 60.2271C47.6393 61.725 48.4521 63.3098 50.4865 64.4644C51.6558 65.1286 53.0771 65.5611 54.5756 65.7684H54.5779Z" fill="#74C1C4"/>
<path d="M50.7455 65.94C50.7455 65.5589 50.4776 65.0953 50.1416 64.9036C49.9758 64.8077 49.8237 64.7988 49.7147 64.859L46.7948 66.4951H46.7926C46.6836 66.5597 46.6155 66.6912 46.6155 66.8807C46.6155 67.2618 46.8834 67.7255 47.2194 67.9172C47.3874 68.013 47.5396 68.0219 47.6486 67.9617L50.5684 66.3257C50.6797 66.2633 50.75 66.1295 50.75 65.94H50.7455Z" fill="#1E2139"/>
<path d="M50.564 66.3279C50.6752 66.2655 50.7456 66.1317 50.7456 65.9423C50.7456 65.7996 50.707 65.6436 50.6435 65.4965L46.8767 67.6118C46.9721 67.741 47.0901 67.8503 47.215 67.9238C47.383 68.0197 47.5351 68.0286 47.6441 67.9684L50.564 66.3323V66.3279Z" fill="#151728"/>
<path d="M47.7075 67.9127C47.7075 67.4178 47.3579 66.8138 46.9219 66.5642C46.7085 66.4416 46.5155 66.4282 46.3725 66.504H46.3634V66.5084L38.7754 70.4136L40.2194 72.9212L47.4714 68.4164C47.6144 68.3362 47.7052 68.1623 47.7075 67.9149V67.9127Z" fill="#74C1C4"/>
<path opacity="0.1" d="M40.2193 72.919L47.4713 68.4142C47.6143 68.334 47.7051 68.1601 47.7074 67.9127C47.7074 67.6474 47.6052 67.351 47.444 67.0947L39.4746 71.6262L40.2193 72.919Z" fill="black"/>
<path d="M39.4883 72.8432C38.9162 72.5155 38.4553 71.7242 38.4575 71.0756C38.4598 70.4247 38.9253 70.1639 39.4974 70.4916C40.0696 70.8193 40.5305 71.6106 40.5282 72.2592C40.5259 72.9078 40.0605 73.1708 39.4883 72.8432Z" fill="#74C1C4"/>
<g opacity="0.2">
<path opacity="0.2" d="M39.4883 72.8432C38.9162 72.5155 38.4553 71.7242 38.4575 71.0756C38.4598 70.4247 38.9253 70.1639 39.4974 70.4916C40.0696 70.8193 40.5305 71.6106 40.5282 72.2592C40.5259 72.9078 40.0605 73.1708 39.4883 72.8432Z" fill="black"/>
</g>
<path d="M1.60742 53.5803C1.60742 54.1665 2.05471 54.8931 2.60417 55.2074L25.9539 68.4431C26.5057 68.7552 27.398 68.7552 27.9497 68.4431L64.3752 47.7983C64.927 47.4862 65.372 46.7573 65.372 46.1711C65.372 45.5849 64.9247 44.8582 64.3752 44.544L41.0255 31.3083C40.4737 30.9962 39.5814 30.9962 39.0297 31.3083L2.60417 51.9531C2.05244 52.2652 1.60742 52.994 1.60742 53.5803Z" fill="#1E2139"/>
<path d="M2.60423 53.0854L25.954 66.3211C26.5057 66.6332 27.398 66.6332 27.9497 66.3211L64.3753 45.6763C64.927 45.3642 64.927 44.8582 64.3753 44.5462L41.0255 31.3105C40.4738 30.9984 39.5815 30.9984 39.0298 31.3105L2.60423 51.9531C2.0525 52.2651 2.0525 52.7711 2.60423 53.0832V53.0854Z" fill="#333B59"/>
<path d="M26.9529 66.5552V68.675C26.5919 68.675 26.2287 68.5992 25.9562 68.4431L2.60417 55.2052C2.05471 54.8931 1.60742 54.1643 1.60742 53.5803C1.60742 53.0297 2.00022 52.3566 2.50427 52.0178C2.05698 52.332 2.09104 52.7934 2.60644 53.0854L25.9585 66.3211C26.2332 66.4772 26.5942 66.5574 26.9552 66.5574L26.9529 66.5552Z" fill="#151728"/>
<path d="M39.4248 0.281104C38.9571 -0.0844493 38.1556 -0.0822203 37.6061 0.232066L1.18058 20.8769C0.628855 21.189 0.183838 21.949 0.183838 22.5732V50.5781C0.183838 51.2067 0.581174 51.8932 1.13745 52.1027C1.7255 52.3256 2.05927 52.2654 2.60873 51.9534H2.60645L39.0297 31.3108C39.5814 30.9987 40.0265 30.2386 40.0265 29.6145V1.60735C40.0265 0.983233 39.9107 0.66226 39.4225 0.281104H39.4248Z" fill="#1E2139"/>
<path d="M40.0265 1.60708C40.0265 0.982966 39.5792 0.731091 39.0298 1.04092L2.60426 21.688C2.32953 21.844 2.0775 22.1137 1.90041 22.4191L0.476807 21.6055C0.658446 21.2979 0.9082 21.0304 1.18293 20.8744L37.6039 0.22957C38.1556 -0.0824875 38.9594 -0.0891745 39.4226 0.278608C39.913 0.66868 40.0265 0.982966 40.0265 1.60485V1.60708Z" fill="#333B59"/>
<path d="M1.61198 51.387L1.60744 23.3843C1.60744 23.0722 1.72096 22.7289 1.90033 22.4213L0.476732 21.61C0.295092 21.9154 0.183838 22.2608 0.183838 22.5729V50.5823C0.183838 51.2064 0.578904 51.8929 1.13745 52.1047C1.7255 52.3276 2.05927 52.2674 2.60873 51.9554C2.05927 52.2674 1.61198 52.0133 1.61198 51.3892V51.387Z" fill="#151728"/>
<path d="M3.14238 22.8181L38.1943 2.95561C38.5258 2.76837 38.7937 2.91994 38.7937 3.29441V29.3379C38.7937 29.7123 38.5258 30.1693 38.1943 30.3565L3.14238 50.2167C2.81089 50.404 2.54297 50.2524 2.54297 49.8779V23.8345C2.54297 23.46 2.81089 23.0053 3.14238 22.8158V22.8181Z" fill="black"/>
<path d="M3.14238 22.8181C2.81089 23.0053 2.54297 23.46 2.54297 23.8367V49.4255L37.1952 29.7903C37.5267 29.6031 37.7947 29.1484 37.7947 28.7717V3.18298L3.14238 22.8181Z" fill="white"/>
<path d="M5.68534 52.1203L39.1592 33.1472C39.4181 33.0001 39.8404 33.0001 40.0992 33.1472L41.3185 33.8181C41.5773 33.9652 41.5773 34.2037 41.3185 34.3508L7.84004 53.3217C7.5812 53.4688 7.15889 53.4688 6.90005 53.3217L5.68534 52.653C5.4265 52.5059 5.4265 52.2674 5.68534 52.1203Z" fill="#151728"/>
<path d="M8.97309 54.0239L42.4447 35.0507C42.7035 34.9036 43.0895 34.8836 43.3052 35.0039L52.0171 39.9434C52.2328 40.066 52.1965 40.2822 51.9354 40.4315L18.5023 59.3779C18.2435 59.525 17.8575 59.5473 17.6418 59.4247L8.89135 54.5098C8.67565 54.3894 8.71198 54.171 8.97081 54.0239H8.97309Z" fill="#151728"/>
<path d="M37.9765 43.0194L39.0255 42.4265C39.0709 42.4019 39.0731 42.3618 39.0345 42.3395L38.031 41.7711C37.9924 41.7489 37.9243 41.7511 37.8789 41.7756L36.8299 42.3707C36.7845 42.3953 36.7822 42.4354 36.8208 42.4577L37.8244 43.0261C37.863 43.0484 37.9311 43.0461 37.9765 43.0216V43.0194ZM36.4462 40.9643L35.3972 41.5572C35.3518 41.5817 35.3495 41.6218 35.3881 41.6441L36.3917 42.2125C36.4303 42.2348 36.4984 42.2325 36.5438 42.208L37.5928 41.6129C37.6382 41.5884 37.6405 41.5483 37.6019 41.526L36.5983 40.9576C36.5597 40.9353 36.4916 40.9375 36.4462 40.962V40.9643ZM33.0609 42.8834L31.2876 43.8887C31.2422 43.9132 31.2399 43.9533 31.2785 43.9756L32.2821 44.544C32.3207 44.5663 32.3888 44.5641 32.4342 44.5395L34.2075 43.5343C34.2529 43.5098 34.2552 43.4696 34.2166 43.4473L33.213 42.879C33.1744 42.8567 33.1063 42.8589 33.0609 42.8834ZM34.9159 41.8313L33.8669 42.4265C33.8215 42.451 33.8192 42.4911 33.8578 42.5134L34.8614 43.0818C34.9 43.1041 34.9681 43.1019 35.0135 43.0773L36.0625 42.4822C36.1079 42.4577 36.1101 42.4176 36.0715 42.3953L35.068 41.8269C35.0294 41.8046 34.9613 41.8068 34.9159 41.8313ZM30.804 44.1628L29.755 44.7558C29.7096 44.7803 29.7074 44.8204 29.746 44.8427L30.7495 45.4111C30.7881 45.4334 30.8562 45.4311 30.9016 45.4066L31.9506 44.8115C31.996 44.787 31.9983 44.7468 31.9597 44.7245L30.9561 44.1562C30.9175 44.1339 30.8494 44.1361 30.804 44.1606V44.1628ZM29.2714 45.0322L28.2225 45.6251C28.177 45.6496 28.1748 45.6897 28.2134 45.712L29.2169 46.2804C29.2555 46.3027 29.3236 46.3004 29.3691 46.2759L30.418 45.683C30.4634 45.6585 30.4657 45.6184 30.4271 45.5961L29.4235 45.0277C29.3849 45.0054 29.3168 45.0076 29.2714 45.0322ZM33.2016 47.3503L34.2506 46.7552C34.296 46.7306 34.2983 46.6905 34.2597 46.6682L33.2561 46.0998C33.2175 46.0775 33.1494 46.0798 33.104 46.1043L32.055 46.6972C32.0096 46.7217 32.0074 46.7618 32.046 46.7841L33.0495 47.3525C33.0881 47.3748 33.1562 47.3726 33.2016 47.3481V47.3503ZM31.6691 48.2174L32.718 47.6245C32.7634 47.5999 32.7657 47.5598 32.7271 47.5375L31.7236 46.9691C31.685 46.9468 31.6168 46.9491 31.5714 46.9736L30.5225 47.5687C30.477 47.5933 30.4748 47.6334 30.5134 47.6557L31.5169 48.2241C31.5555 48.2463 31.6236 48.2441 31.6691 48.2196V48.2174ZM30.1365 49.0867L31.1854 48.4915C31.2309 48.467 31.2331 48.4269 31.1945 48.4046L30.191 47.8362C30.1524 47.8139 30.0843 47.8162 30.0388 47.8407L28.9899 48.4336C28.9445 48.4581 28.9422 48.4982 28.9808 48.5205L29.9844 49.0889C30.023 49.1112 30.0911 49.109 30.1365 49.0844V49.0867ZM28.6039 49.9537L29.6529 49.3608C29.6983 49.3363 29.7005 49.2962 29.6619 49.2739L28.6584 48.7055C28.6198 48.6832 28.5517 48.6855 28.5063 48.71L27.4573 49.3029C27.4119 49.3274 27.4096 49.3675 27.4482 49.3898L28.4518 49.9582C28.4904 49.9805 28.5585 49.9783 28.6039 49.9537ZM36.4416 43.8865L37.4906 43.2913C37.536 43.2668 37.5383 43.2267 37.4997 43.2044L36.4961 42.636C36.4575 42.6137 36.3894 42.6159 36.344 42.6405L35.295 43.2334C35.2496 43.2579 35.2474 43.298 35.286 43.3203L36.2895 43.8887C36.3281 43.911 36.3962 43.9087 36.4416 43.8842V43.8865ZM34.7297 46.481L37.0683 45.157C37.1137 45.1325 37.116 45.0923 37.0774 45.07L34.6434 43.6903C34.6048 43.668 34.5367 43.6702 34.4913 43.6948L33.2811 44.3791C33.2357 44.4036 33.2334 44.4437 33.272 44.466L34.5617 45.1971C34.6003 45.2194 34.598 45.2573 34.5526 45.284L33.5854 45.8324C33.5399 45.8569 33.5377 45.897 33.5763 45.9193L34.5798 46.4877C34.6184 46.51 34.6865 46.5077 34.732 46.4832L34.7297 46.481ZM27.7366 45.8992L26.6876 46.4944C26.6422 46.5189 26.6399 46.559 26.6785 46.5813L27.6821 47.1497C27.7207 47.172 27.7888 47.1697 27.8342 47.1452L28.8832 46.5523C28.9286 46.5278 28.9308 46.4877 28.8922 46.4654L27.8887 45.897C27.8501 45.8747 27.782 45.8769 27.7366 45.9015V45.8992ZM26.204 46.7685L25.155 47.3614C25.1096 47.386 25.1073 47.4261 25.1459 47.4484L26.1495 48.0168C26.1881 48.039 26.2562 48.0368 26.3016 48.0123L27.3506 47.4194C27.396 47.3949 27.3983 47.3548 27.3597 47.3325L26.3561 46.7641C26.3175 46.7418 26.2494 46.744 26.204 46.7685ZM17.7282 56.0389C17.7668 56.0612 17.8349 56.0589 17.8804 56.0344L18.9293 55.4415C18.9747 55.417 18.977 55.3769 18.9384 55.3546L17.9348 54.7862C17.8962 54.7639 17.8281 54.7661 17.7827 54.7906L16.7338 55.3835C16.6883 55.4081 16.6861 55.4482 16.7247 55.4705L17.7282 56.0389ZM13.9501 53.714L12.9012 54.3069C12.8557 54.3315 12.8535 54.3716 12.8921 54.3939L13.8956 54.9623C13.9342 54.9846 14.0023 54.9823 14.0478 54.9578L15.0967 54.3627C15.1421 54.3382 15.1444 54.298 15.1058 54.2757L14.1022 53.7074C14.0637 53.6851 13.9955 53.6873 13.9501 53.7118V53.714ZM15.8914 55.4549C15.93 55.4772 15.9981 55.4749 16.0435 55.4504L17.0925 54.8553C17.1379 54.8308 17.1402 54.7906 17.1016 54.7684L16.098 54.2C16.0594 54.1777 15.9913 54.1799 15.9459 54.2044L14.8969 54.7973C14.8515 54.8218 14.8492 54.862 14.8878 54.8843L15.8914 55.4526V55.4549ZM20.1168 56.3888L21.1658 55.7959C21.2112 55.7714 21.2134 55.7313 21.1748 55.709L20.1713 55.1406C20.1327 55.1183 20.0646 55.1205 20.0192 55.145L18.9702 55.738C18.9248 55.7625 18.9225 55.8026 18.9611 55.8249L19.9647 56.3933C20.0033 56.4156 20.0714 56.4133 20.1168 56.3888ZM18.4321 57.2626C18.4707 57.2849 18.5388 57.2826 18.5842 57.2581L19.6332 56.663C19.6786 56.6385 19.6809 56.5983 19.6423 56.5761L18.6387 56.0077C18.6001 55.9854 18.532 55.9876 18.4866 56.0121L17.4376 56.6073C17.3922 56.6318 17.3899 56.6719 17.4285 56.6942L18.4321 57.2626ZM15.4782 52.847L14.4292 53.4399C14.3838 53.4644 14.3815 53.5045 14.4201 53.5268L15.4237 54.0952C15.4623 54.1175 15.5304 54.1153 15.5758 54.0907L16.6248 53.4956C16.6702 53.4711 16.6724 53.431 16.6339 53.4087L15.6303 52.8403C15.5917 52.818 15.5236 52.8202 15.4782 52.8447V52.847ZM23.1365 48.5071L22.0876 49.1C22.0422 49.1246 22.0399 49.1647 22.0785 49.187L23.0821 49.7554C23.1207 49.7777 23.1888 49.7754 23.2342 49.7509L24.2831 49.1558C24.3286 49.1312 24.3308 49.0911 24.2922 49.0688L23.2887 48.5004C23.2501 48.4782 23.182 48.4804 23.1365 48.5049V48.5071ZM17.0085 51.9799L15.9595 52.5728C15.9141 52.5973 15.9118 52.6374 15.9504 52.6597L16.954 53.2281C16.9926 53.2504 17.0607 53.2482 17.1061 53.2237L18.1551 52.6308C18.2005 52.6062 18.2028 52.5661 18.1642 52.5438L17.1606 51.9754C17.122 51.9531 17.0539 51.9554 17.0085 51.9799ZM24.6669 47.6378L23.6179 48.233C23.5725 48.2575 23.5702 48.2976 23.6088 48.3199L24.6124 48.8883C24.651 48.9106 24.7191 48.9084 24.7645 48.8838L25.8135 48.2909C25.8589 48.2664 25.8611 48.2263 25.8225 48.204L24.819 47.6356C24.7804 47.6133 24.7123 47.6155 24.6669 47.6401V47.6378ZM21.604 49.3742L20.555 49.9671C20.5096 49.9916 20.5073 50.0318 20.5459 50.054L21.5495 50.6224C21.5881 50.6447 21.6562 50.6425 21.7016 50.618L22.7506 50.0251C22.796 50.0006 22.7982 49.9604 22.7596 49.9381L21.7561 49.3698C21.7175 49.3475 21.6494 49.3497 21.604 49.3742ZM20.0714 50.2413L19.0224 50.8364C18.977 50.8609 18.9747 50.9011 19.0133 50.9234L20.0169 51.4917C20.0555 51.514 20.1236 51.5118 20.169 51.4873L21.218 50.8944C21.2634 50.8699 21.2657 50.8297 21.2271 50.8074L20.2235 50.2391C20.1849 50.2168 20.1168 50.219 20.0714 50.2435V50.2413ZM18.5388 51.1106L17.4898 51.7035C17.4444 51.728 17.4421 51.7681 17.4807 51.7904L18.4843 52.3588C18.5229 52.3811 18.591 52.3789 18.6364 52.3544L19.6854 51.7592C19.7308 51.7347 19.7331 51.6946 19.6945 51.6723L18.6909 51.1039C18.6523 51.0816 18.5842 51.0838 18.5388 51.1084V51.1106ZM25.5319 51.6924L26.5809 51.0972C26.6263 51.0727 26.6286 51.0326 26.59 51.0103L25.5864 50.4419C25.5478 50.4196 25.4797 50.4218 25.4343 50.4464L24.3853 51.0393C24.3399 51.0638 24.3376 51.1039 24.3762 51.1262L25.3798 51.6946C25.4184 51.7169 25.4865 51.7146 25.5319 51.6901V51.6924ZM39.8224 39.0473L38.7734 39.6425C38.728 39.667 38.7257 39.7071 38.7643 39.7294L39.7679 40.2978C39.8065 40.3201 39.8746 40.3179 39.92 40.2933L40.969 39.7004C41.0144 39.6759 41.0167 39.6358 40.9781 39.6135L39.9745 39.0451C39.9359 39.0228 39.8678 39.025 39.8224 39.0496V39.0473ZM37.9674 40.0972L36.9184 40.6923C36.873 40.7168 36.8708 40.757 36.9094 40.7793L37.9129 41.3476C37.9515 41.3699 38.0196 41.3677 38.065 41.3432L39.114 40.7503C39.1594 40.7258 39.1617 40.6856 39.1231 40.6633L38.1195 40.095C38.0809 40.0727 38.0128 40.0749 37.9674 40.0994V40.0972ZM41.3527 38.178L40.3037 38.7709C40.2583 38.7955 40.2561 38.8356 40.2947 38.8579L41.2982 39.4263C41.3368 39.4485 41.4049 39.4463 41.4503 39.4218L42.4993 38.8289C42.5447 38.8044 42.547 38.7643 42.5084 38.742L41.5048 38.1736C41.4662 38.1513 41.3981 38.1535 41.3527 38.178ZM32.886 45.8992L33.935 45.3063C33.9804 45.2818 33.9827 45.2417 33.9441 45.2194L32.9405 44.651C32.9019 44.6287 32.8338 44.6309 32.7884 44.6555L31.7394 45.2484C31.694 45.2729 31.6918 45.313 31.7304 45.3353L32.7339 45.9037C32.7725 45.926 32.8406 45.9237 32.886 45.8992ZM43.0374 37.3043C42.9988 37.282 42.9307 37.2842 42.8853 37.3087L41.8363 37.9016C41.7909 37.9262 41.7886 37.9663 41.8272 37.9886L42.8308 38.557C42.8694 38.5792 42.9375 38.577 42.9829 38.5525L44.0319 37.9574C44.0773 37.9328 44.0796 37.8927 44.041 37.8704L43.0374 37.302V37.3043ZM27.0645 50.823L28.1135 50.2301C28.1589 50.2056 28.1611 50.1655 28.1225 50.1432L27.119 49.5748C27.0804 49.5525 27.0123 49.5548 26.9669 49.5793L25.9179 50.1744C25.8725 50.1989 25.8702 50.2391 25.9088 50.2613L26.9124 50.8297C26.951 50.852 27.0191 50.8498 27.0645 50.8253V50.823ZM45.8483 40.1774L46.8973 39.5845C46.9427 39.56 46.9449 39.5199 46.9063 39.4976L45.9028 38.9292C45.8642 38.9069 45.7961 38.9091 45.7507 38.9337L44.7017 39.5266C44.6563 39.5511 44.654 39.5912 44.6926 39.6135L45.6962 40.1819C45.7348 40.2042 45.8029 40.2019 45.8483 40.1774ZM42.8853 40.2332L43.9343 39.638C43.9797 39.6135 43.9819 39.5734 43.9433 39.5511L42.9398 38.9827C42.9012 38.9604 42.8331 38.9626 42.7877 38.9871L41.7387 39.5801C41.6933 39.6046 41.691 39.6447 41.7296 39.667L42.7332 40.2354C42.7718 40.2577 42.8399 40.2554 42.8853 40.2309V40.2332ZM44.4724 38.1156C44.4338 38.0933 44.3657 38.0956 44.3202 38.1201L43.2713 38.7152C43.2259 38.7397 43.2236 38.7799 43.2622 38.8021L44.2658 39.3705C44.3044 39.3928 44.3725 39.3906 44.4179 39.3661L45.4668 38.7732C45.5123 38.7486 45.5145 38.7085 45.4759 38.6862L44.4724 38.1178V38.1156ZM44.7948 37.9328L47.2287 39.3126C47.2673 39.3349 47.3355 39.3326 47.3809 39.3081L48.4298 38.7152C48.4753 38.6907 48.4775 38.6506 48.4389 38.6283L46.005 37.2485C45.9664 37.2263 45.8982 37.2285 45.8528 37.253L44.8039 37.8459C44.7585 37.8704 44.7562 37.9105 44.7948 37.9328ZM41.2574 39.8565L40.2084 40.4494C40.163 40.4739 40.1607 40.514 40.1993 40.5363L41.2029 41.1047C41.2415 41.127 41.3096 41.1247 41.355 41.1002L42.4039 40.5073C42.4494 40.4828 42.4516 40.4427 42.413 40.4204L41.4095 39.852C41.3709 39.8297 41.3028 39.8319 41.2574 39.8565ZM29.7301 46.3896L28.6811 46.9847C28.6357 47.0093 28.6334 47.0494 28.672 47.0717L29.6756 47.6401C29.7142 47.6623 29.7823 47.6601 29.8277 47.6356L30.8767 47.0427C30.9221 47.0182 30.9243 46.9781 30.8857 46.9558L29.8822 46.3874C29.8436 46.3651 29.7755 46.3673 29.7301 46.3918V46.3896ZM44.1681 41.0467C44.2067 41.069 44.2748 41.0668 44.3202 41.0423L45.3692 40.4494C45.4146 40.4248 45.4169 40.3847 45.3783 40.3624L44.3747 39.794C44.3361 39.7718 44.268 39.774 44.2226 39.7985L43.1736 40.3936C43.1282 40.4182 43.126 40.4583 43.1646 40.4806L44.1681 41.049V41.0467ZM31.2626 45.5203L30.2137 46.1132C30.1683 46.1377 30.166 46.1778 30.2046 46.2001L31.2081 46.7685C31.2467 46.7908 31.3149 46.7886 31.3603 46.7641L32.4092 46.1689C32.4547 46.1444 32.4569 46.1043 32.4183 46.082L31.4148 45.5136C31.3762 45.4913 31.3081 45.4936 31.2626 45.5181V45.5203ZM19.2585 55.1651C19.2971 55.1874 19.3653 55.1852 19.4107 55.1607L20.4596 54.5677C20.505 54.5432 20.5073 54.5031 20.4687 54.4808L19.4652 53.9124C19.4266 53.8901 19.3584 53.8924 19.313 53.9169L18.2641 54.512C18.2187 54.5365 18.2164 54.5767 18.255 54.5989L19.2585 55.1673V55.1651ZM17.4785 53.3329L16.4295 53.928C16.3841 53.9525 16.3818 53.9927 16.4204 54.015L17.424 54.5833C17.4626 54.6056 17.5307 54.6034 17.5761 54.5789L18.6251 53.986C18.6705 53.9615 18.6728 53.9213 18.6342 53.899L17.6306 53.3307C17.592 53.3084 17.5239 53.3106 17.4785 53.3351V53.3329ZM20.9432 54.2913L21.9922 53.6984C22.0376 53.6739 22.0399 53.6338 22.0013 53.6115L20.9977 53.0431C20.9591 53.0208 20.891 53.0231 20.8456 53.0476L19.7966 53.6405C19.7512 53.665 19.749 53.7051 19.7876 53.7274L20.7911 54.2958C20.8297 54.3181 20.8978 54.3159 20.9432 54.2913ZM22.4758 53.4243L23.5248 52.8314C23.5702 52.8068 23.5725 52.7667 23.5339 52.7444L22.5303 52.176C22.4917 52.1538 22.4236 52.156 22.3782 52.1805L21.3292 52.7734C21.2838 52.7979 21.2816 52.838 21.3201 52.8603L22.3237 53.4287C22.3623 53.451 22.4304 53.4488 22.4758 53.4243ZM24.0084 52.555L25.0574 51.9621C25.1028 51.9375 25.1051 51.8974 25.0665 51.8751L24.0629 51.3067C24.0243 51.2844 23.9562 51.2867 23.9108 51.3112L22.8618 51.9041C22.8164 51.9286 22.8141 51.9687 22.8527 51.991L23.8563 52.5594C23.8949 52.5817 23.963 52.5795 24.0084 52.555ZM19.0111 52.4636L17.9621 53.0565C17.9167 53.081 17.9144 53.1211 17.953 53.1434L18.9566 53.7118C18.9952 53.7341 19.0633 53.7319 19.1087 53.7074L20.1577 53.1144C20.2031 53.0899 20.2053 53.0498 20.1667 53.0275L19.1632 52.4591C19.1246 52.4368 19.0565 52.4391 19.0111 52.4636ZM20.5436 51.5943L19.4947 52.1894C19.4493 52.2139 19.447 52.2541 19.4856 52.2763L20.4891 52.8447C20.5277 52.867 20.5959 52.8648 20.6413 52.8403L21.6902 52.2451C21.7356 52.2206 21.7379 52.1805 21.6993 52.1582L20.6958 51.5898C20.6572 51.5675 20.5891 51.5698 20.5436 51.5943ZM26.6694 48.1215L25.6205 48.7144C25.5751 48.7389 25.5728 48.7791 25.6114 48.8014L26.6149 49.3698C26.6535 49.392 26.7217 49.3898 26.7671 49.3653L27.816 48.7724C27.8614 48.7479 27.8637 48.7077 27.8251 48.6855L26.8216 48.1171C26.783 48.0948 26.7148 48.097 26.6694 48.1215ZM25.1368 48.9886L24.0879 49.5837C24.0425 49.6083 24.0402 49.6484 24.0788 49.6707L25.0824 50.2391C25.121 50.2613 25.1891 50.2591 25.2345 50.2346L26.2834 49.6417C26.3289 49.6172 26.3311 49.577 26.2925 49.5548L25.289 48.9864C25.2504 48.9641 25.1823 48.9663 25.1368 48.9908V48.9886ZM28.1997 47.2522L27.1508 47.8451C27.1054 47.8696 27.1031 47.9098 27.1417 47.9321L28.1453 48.5004C28.1839 48.5227 28.252 48.5205 28.2974 48.496L29.3463 47.9009C29.3918 47.8763 29.394 47.8362 29.3554 47.8139L28.3519 47.2455C28.3133 47.2232 28.2452 47.2255 28.1997 47.25V47.2522ZM22.074 50.725L21.025 51.3201C20.9796 51.3446 20.9773 51.3848 21.0159 51.407L22.0195 51.9754C22.0581 51.9977 22.1262 51.9955 22.1716 51.971L23.2206 51.3781C23.266 51.3535 23.2682 51.3134 23.2296 51.2911L22.2261 50.7227C22.1875 50.7005 22.1194 50.7027 22.074 50.7272V50.725ZM23.6065 49.8579L22.5576 50.4508C22.5122 50.4753 22.5099 50.5154 22.5485 50.5377L23.552 51.1061C23.5906 51.1284 23.6588 51.1262 23.7042 51.1017L24.7531 50.5065C24.7985 50.482 24.8008 50.4419 24.7622 50.4196L23.7587 49.8512C23.7201 49.8289 23.6519 49.8312 23.6065 49.8557V49.8579ZM21.6516 55.5128L22.7006 54.9177C22.746 54.8932 22.7483 54.8531 22.7097 54.8308L21.7061 54.2624C21.6675 54.2401 21.5994 54.2423 21.554 54.2668L20.505 54.8597C20.4596 54.8843 20.4574 54.9244 20.496 54.9467L21.4995 55.5151C21.5381 55.5373 21.6062 55.5351 21.6516 55.5106V55.5128ZM13.5755 55.1384L12.5719 54.57C12.5333 54.5477 12.4652 54.5499 12.4198 54.5744L11.3708 55.1696C11.3254 55.1941 11.3232 55.2342 11.3618 55.2565L12.3653 55.8249C12.4039 55.8472 12.472 55.8449 12.5174 55.8204L13.5664 55.2275C13.6118 55.203 13.6141 55.1629 13.5755 55.1406V55.1384ZM15.5713 55.631L14.5677 55.0626C14.5291 55.0403 14.461 55.0425 14.4156 55.067L12.8035 55.9809C12.7581 56.0054 12.7558 56.0456 12.7944 56.0678L13.798 56.6362C13.8366 56.6585 13.9047 56.6563 13.9501 56.6318L15.5622 55.7179C15.6076 55.6934 15.6099 55.6533 15.5713 55.631ZM12.077 54.0172L11.0734 53.4488C11.0348 53.4265 10.9667 53.4287 10.9213 53.4532L9.63165 54.1844C9.58624 54.2089 9.58397 54.249 9.62257 54.2713L10.6261 54.8397C10.6647 54.862 10.7328 54.8597 10.7782 54.8352L12.0679 54.1041C12.1133 54.0796 12.1156 54.0395 12.077 54.0172ZM13.0669 53.4577C13.1055 53.48 13.1736 53.4778 13.219 53.4532L14.268 52.8581C14.3134 52.8336 14.3157 52.7935 14.2771 52.7712L13.2735 52.2028C13.2349 52.1805 13.1668 52.1827 13.1214 52.2072L12.0724 52.8002C12.027 52.8247 12.0247 52.8648 12.0633 52.8871L13.0669 53.4555V53.4577ZM17.4058 56.215L16.4023 55.6466C16.3637 55.6243 16.2955 55.6265 16.2501 55.651L14.2339 56.7923C14.1885 56.8168 14.1863 56.8569 14.2249 56.8792L15.2284 57.4476C15.267 57.4699 15.3351 57.4676 15.3805 57.4431L17.3967 56.2997C17.4421 56.2751 17.4444 56.235 17.4058 56.2127V56.215ZM18.1119 57.4387L17.1084 56.8703C17.0698 56.848 17.0017 56.8502 16.9563 56.8747L15.6666 57.6058C15.6212 57.6304 15.6189 57.6705 15.6575 57.6928L16.6611 58.2612C16.6997 58.2835 16.7678 58.2812 16.8132 58.2567L18.1029 57.5256C18.1483 57.5011 18.1505 57.461 18.1119 57.4387ZM24.4534 47.0026C24.492 47.0249 24.5601 47.0226 24.6056 46.9981L25.6545 46.403C25.6999 46.3785 25.7022 46.3383 25.6636 46.316L24.66 45.7477C24.6214 45.7254 24.5533 45.7276 24.5079 45.7521L23.459 46.345C23.4135 46.3695 23.4113 46.4097 23.4499 46.432L24.4534 47.0003V47.0026ZM21.3905 48.7389C21.4291 48.7612 21.4972 48.759 21.5427 48.7345L22.5916 48.1394C22.637 48.1148 22.6393 48.0747 22.6007 48.0524L21.5971 47.484C21.5586 47.4617 21.4904 47.464 21.445 47.4885L20.3961 48.0814C20.3506 48.1059 20.3484 48.146 20.387 48.1683L21.3905 48.7367V48.7389ZM14.5972 52.5884C14.6358 52.6107 14.7039 52.6085 14.7493 52.5839L15.7983 51.991C15.8437 51.9665 15.846 51.9264 15.8074 51.9041L14.8038 51.3357C14.7652 51.3134 14.6971 51.3157 14.6517 51.3402L13.6027 51.9331C13.5573 51.9576 13.5551 51.9977 13.5937 52.02L14.5972 52.5884ZM22.9231 47.8696C22.9617 47.8919 23.0298 47.8897 23.0752 47.8652L24.1242 47.2723C24.1696 47.2478 24.1719 47.2076 24.1333 47.1853L23.1297 46.617C23.0911 46.5947 23.023 46.5969 22.9776 46.6214L21.9286 47.2143C21.8832 47.2388 21.881 47.279 21.9196 47.3013L22.9231 47.8696ZM19.8602 49.606C19.8988 49.6283 19.9669 49.6261 20.0123 49.6016L21.0613 49.0087C21.1067 48.9841 21.109 48.944 21.0704 48.9217L20.0668 48.3533C20.0282 48.331 19.9601 48.3333 19.9147 48.3578L18.8657 48.9507C18.8203 48.9752 18.8181 49.0153 18.8567 49.0376L19.8602 49.606ZM18.8657 57.4988C18.8271 57.4766 18.759 57.4788 18.7136 57.5033L17.1016 58.4172C17.0562 58.4417 17.0539 58.4818 17.0925 58.5041L18.096 59.0725C18.1346 59.0948 18.2028 59.0926 18.2482 59.0681L19.8602 58.1542C19.9056 58.1297 19.9079 58.0895 19.8693 58.0672L18.8657 57.4988ZM17.6624 50.852C17.701 50.8743 17.7691 50.8721 17.8145 50.8476L18.8635 50.2547C18.9089 50.2301 18.9112 50.19 18.8726 50.1677L17.869 49.5993C17.8304 49.577 17.7623 49.5793 17.7169 49.6038L16.6679 50.1989C16.6225 50.2235 16.6202 50.2636 16.6588 50.2859L17.6624 50.8543V50.852ZM16.1298 51.7191C16.1684 51.7414 16.2365 51.7392 16.2819 51.7146L17.3309 51.1195C17.3763 51.095 17.3786 51.0549 17.34 51.0326L16.3364 50.4642C16.2978 50.4419 16.2297 50.4441 16.1843 50.4686L15.1353 51.0616C15.0899 51.0861 15.0876 51.1262 15.1262 51.1485L16.1298 51.7169V51.7191ZM47.2424 41.4123C47.2038 41.39 47.1357 41.3922 47.0902 41.4167L44.511 42.879C44.4656 42.9035 44.4633 42.9436 44.5019 42.9659L45.5054 43.5343C45.544 43.5566 45.6122 43.5543 45.6576 43.5298L48.2369 42.0676C48.2823 42.0431 48.2845 42.003 48.2459 41.9807L47.2424 41.4123ZM43.8571 43.3314C43.8185 43.3091 43.7504 43.3114 43.7049 43.3359L42.656 43.9288C42.6106 43.9533 42.6083 43.9934 42.6469 44.0157L43.6505 44.5841C43.6891 44.6064 43.7572 44.6042 43.8026 44.5797L44.8515 43.9845C44.897 43.96 44.8992 43.9199 44.8606 43.8976L43.8571 43.3292V43.3314ZM23.1842 54.6435L24.2332 54.0506C24.2786 54.0261 24.2809 53.986 24.2423 53.9637L23.2387 53.3953C23.2001 53.373 23.132 53.3752 23.0866 53.3998L22.0376 53.9949C21.9922 54.0194 21.9899 54.0595 22.0285 54.0818L23.0321 54.6502C23.0707 54.6725 23.1388 54.6703 23.1842 54.6458V54.6435ZM40.7942 45.0678C40.7556 45.0455 40.6875 45.0478 40.642 45.0723L39.5931 45.6652C39.5477 45.6897 39.5454 45.7298 39.584 45.7521L40.5876 46.3205C40.6262 46.3428 40.6943 46.3406 40.7397 46.316L41.7886 45.7209C41.8341 45.6964 41.8363 45.6563 41.7977 45.634L40.7942 45.0656V45.0678ZM48.775 40.5452C48.7364 40.5229 48.6682 40.5251 48.6228 40.5497L47.5739 41.1448C47.5285 41.1693 47.5262 41.2094 47.5648 41.2317L48.5683 41.8001C48.6069 41.8224 48.6751 41.8202 48.7205 41.7957L49.7694 41.2028C49.8148 41.1782 49.8171 41.1381 49.7785 41.1158L48.775 40.5474V40.5452ZM51.3088 40.2443L48.8749 38.8646C48.8363 38.8423 48.7681 38.8445 48.7227 38.869L47.6738 39.4642C47.6284 39.4887 47.6261 39.5288 47.6647 39.5511L50.0987 40.9308C50.1373 40.9531 50.2054 40.9509 50.2508 40.9264L51.2997 40.3312C51.3452 40.3067 51.3474 40.2666 51.3088 40.2443ZM35.0703 48.311C35.0317 48.2887 34.9635 48.2909 34.9181 48.3154L33.6285 49.0465C33.5831 49.0711 33.5808 49.1112 33.6194 49.1335L34.623 49.7019C34.6616 49.7242 34.7297 49.7219 34.7751 49.6974L36.0647 48.9663C36.1101 48.9418 36.1124 48.9017 36.0738 48.8794L35.0703 48.311ZM38.9392 46.1177C38.9006 46.0954 38.8325 46.0976 38.7871 46.1221L37.175 47.036C37.1296 47.0605 37.1273 47.1006 37.1659 47.1229L38.1695 47.6913C38.2081 47.7136 38.2762 47.7114 38.3216 47.6869L39.9337 46.773C39.9791 46.7485 39.9813 46.7083 39.9427 46.6861L38.9392 46.1177ZM31.5215 50.3215C31.4829 50.2992 31.4148 50.3015 31.3694 50.326L22.7437 55.2164C22.6983 55.2409 22.6961 55.281 22.7347 55.3033L23.7382 55.8717C23.7768 55.894 23.8449 55.8918 23.8903 55.8672L32.516 50.9791C32.5614 50.9546 32.5636 50.9144 32.525 50.8921L31.5215 50.3238V50.3215ZM22.4123 55.4861C22.3737 55.4638 22.3055 55.466 22.2601 55.4905L20.9705 56.2216C20.9251 56.2462 20.9228 56.2863 20.9614 56.3086L21.965 56.877C22.0036 56.8993 22.0717 56.897 22.1171 56.8725L23.4067 56.1414C23.4521 56.1169 23.4544 56.0768 23.4158 56.0545L22.4123 55.4861ZM33.2947 49.3185C33.2561 49.2962 33.188 49.2984 33.1426 49.3229L31.853 50.054C31.8076 50.0786 31.8053 50.1187 31.8439 50.141L32.8474 50.7094C32.886 50.7317 32.9542 50.7294 32.9996 50.7049L34.2892 49.9738C34.3346 49.9493 34.3369 49.9092 34.2983 49.8869L33.2947 49.3185ZM20.6367 56.4914C20.5981 56.4691 20.53 56.4713 20.4846 56.4958L19.195 57.2269C19.1496 57.2514 19.1473 57.2916 19.1859 57.3138L20.1894 57.8822C20.228 57.9045 20.2962 57.9023 20.3416 57.8778L21.6312 57.1467C21.6766 57.1222 21.6789 57.082 21.6403 57.0597L20.6367 56.4914ZM36.8412 47.3079C36.8026 47.2857 36.7345 47.2879 36.6891 47.3124L35.3995 48.0435C35.3541 48.068 35.3518 48.1081 35.3904 48.1304L36.394 48.6988C36.4326 48.7211 36.5007 48.7189 36.5461 48.6944L37.8357 47.9633C37.8811 47.9387 37.8834 47.8986 37.8448 47.8763L36.8412 47.3079ZM42.3222 44.2007C42.2836 44.1785 42.2155 44.1807 42.1701 44.2052L41.1211 44.8003C41.0757 44.8249 41.0734 44.865 41.112 44.8873L42.1156 45.4557C42.1542 45.4779 42.2223 45.4757 42.2677 45.4512L43.3167 44.8583C43.3621 44.8338 43.3644 44.7936 43.3258 44.7714L42.3222 44.203V44.2007ZM45.7529 41.8492L46.8019 41.2563C46.8473 41.2317 46.8496 41.1916 46.811 41.1693L45.8074 40.6009C45.7688 40.5786 45.7007 40.5809 45.6553 40.6054L44.6063 41.1983C44.5609 41.2228 44.5587 41.2629 44.5972 41.2852L45.6008 41.8536C45.6394 41.8759 45.7075 41.8737 45.7529 41.8492ZM39.5023 42.1456L40.5512 41.5505C40.5966 41.526 40.5989 41.4858 40.5603 41.4635L39.5568 40.8952C39.5182 40.8729 39.45 40.8751 39.4046 40.8996L38.3557 41.4925C38.3103 41.517 38.308 41.5572 38.3466 41.5795L39.3501 42.1478C39.3887 42.1701 39.4569 42.1679 39.5023 42.1434V42.1456ZM35.4335 47.698L38.4964 45.9616C38.5418 45.9371 38.5441 45.897 38.5055 45.8747L37.502 45.3063C37.4634 45.284 37.3952 45.2863 37.3498 45.3108L34.2869 47.0472C34.2415 47.0717 34.2393 47.1118 34.2779 47.1341L35.2814 47.7025C35.32 47.7248 35.3881 47.7225 35.4335 47.698ZM44.0682 42.7229C44.1068 42.7452 44.1749 42.743 44.2203 42.7185L45.2693 42.1256C45.3147 42.101 45.317 42.0609 45.2784 42.0386L44.2748 41.4702C44.2362 41.4479 44.1681 41.4502 44.1227 41.4747L43.0737 42.0698C43.0283 42.0944 43.0261 42.1345 43.0647 42.1568L44.0682 42.7252V42.7229ZM42.7877 41.9049L43.8366 41.3097C43.882 41.2852 43.8843 41.2451 43.8457 41.2228L42.8422 40.6544C42.8036 40.6321 42.7354 40.6344 42.69 40.6589L41.6411 41.2518C41.5957 41.2763 41.5934 41.3164 41.632 41.3387L42.6355 41.9071C42.6741 41.9294 42.7423 41.9272 42.7877 41.9027V41.9049ZM33.901 48.5651L34.9499 47.97C34.9953 47.9454 34.9976 47.9053 34.959 47.883L33.9554 47.3146C33.9168 47.2923 33.8487 47.2946 33.8033 47.3191L32.7544 47.9142C32.7089 47.9387 32.7067 47.9789 32.7453 48.0012L33.7488 48.5695C33.7874 48.5918 33.8555 48.5896 33.901 48.5651ZM40.6829 44.6399C40.7215 44.6621 40.7896 44.6599 40.835 44.6354L41.884 44.0403C41.9294 44.0157 41.9317 43.9756 41.8931 43.9533L40.8895 43.3849C40.8509 43.3626 40.7828 43.3649 40.7374 43.3894L39.6884 43.9823C39.643 44.0068 39.6408 44.0469 39.6794 44.0692L40.6829 44.6376V44.6399ZM26.2426 52.9049L27.2915 52.3098C27.337 52.2853 27.3392 52.2451 27.3006 52.2228L26.2971 51.6545C26.2585 51.6322 26.1904 51.6344 26.1449 51.6589L25.096 52.2541C25.0506 52.2786 25.0483 52.3187 25.0869 52.341L26.0905 52.9094C26.1291 52.9317 26.1972 52.9294 26.2426 52.9049ZM27.7752 52.0356L28.8241 51.4427C28.8695 51.4182 28.8718 51.3781 28.8332 51.3558L27.8297 50.7874C27.7911 50.7651 27.7229 50.7673 27.6775 50.7918L26.6286 51.3848C26.5832 51.4093 26.5809 51.4494 26.6195 51.4717L27.623 52.0401C27.6616 52.0624 27.7298 52.0601 27.7752 52.0356ZM24.7123 53.772L25.7612 53.1791C25.8066 53.1546 25.8089 53.1144 25.7703 53.0922L24.7668 52.5238C24.7282 52.5015 24.66 52.5037 24.6146 52.5282L23.5657 53.1211C23.5203 53.1457 23.518 53.1858 23.5566 53.2081L24.5601 53.7764C24.5987 53.7987 24.6669 53.7965 24.7123 53.772ZM30.8403 50.2992L31.8893 49.7063C31.9347 49.6818 31.937 49.6417 31.8984 49.6194L30.8948 49.051C30.8562 49.0287 30.7881 49.0309 30.7427 49.0555L29.6937 49.6506C29.6483 49.6751 29.6461 49.7152 29.6846 49.7375L30.6882 50.3059C30.7268 50.3282 30.7949 50.326 30.8403 50.3015V50.2992ZM29.3077 51.1663L30.3567 50.5734C30.4021 50.5489 30.4044 50.5088 30.3658 50.4865L29.3622 49.9181C29.3236 49.8958 29.2555 49.898 29.2101 49.9225L28.1611 50.5155C28.1157 50.54 28.1135 50.5801 28.1521 50.6024L29.1556 51.1708C29.1942 51.1931 29.2623 51.1908 29.3077 51.1663ZM32.3706 49.4299L33.4196 48.8348C33.465 48.8103 33.4673 48.7702 33.4287 48.7479L32.4251 48.1795C32.3865 48.1572 32.3184 48.1594 32.273 48.1839L31.224 48.7768C31.1786 48.8014 31.1764 48.8415 31.215 48.8638L32.2185 49.4322C32.2571 49.4545 32.3252 49.4522 32.3706 49.4277V49.4299ZM40.7283 37.3533C40.7669 37.3756 40.835 37.3734 40.8805 37.3488L41.9294 36.7537C41.9748 36.7292 41.9771 36.6891 41.9385 36.6668L41.6706 36.5152C41.632 36.4929 41.5639 36.4951 41.5185 36.5197L40.4695 37.1148C40.4241 37.1393 40.4218 37.1794 40.4604 37.2017L40.7283 37.3533ZM33.1154 42.0854C33.154 42.1077 33.2221 42.1055 33.2675 42.081L34.3165 41.4881C34.3619 41.4636 34.3641 41.4234 34.3255 41.4011L33.322 40.8327C33.2834 40.8105 33.2153 40.8127 33.1699 40.8372L32.1209 41.4323C32.0755 41.4569 32.0732 41.497 32.1118 41.5193L33.1154 42.0877V42.0854ZM36.1783 40.3491C36.2169 40.3713 36.285 40.3691 36.3304 40.3446L37.3794 39.7517C37.4248 39.7272 37.427 39.687 37.3884 39.6648L36.3849 39.0964C36.3463 39.0741 36.2782 39.0763 36.2328 39.1008L35.1838 39.696C35.1384 39.7205 35.1361 39.7606 35.1747 39.7829L36.1783 40.3513V40.3491ZM31.2445 43.1464C31.2831 43.1687 31.3512 43.1665 31.3966 43.142L32.4456 42.5468C32.491 42.5223 32.4932 42.4822 32.4547 42.4599L31.4511 41.8915C31.4125 41.8692 31.3444 41.8715 31.299 41.896L30.25 42.4889C30.2046 42.5134 30.2023 42.5535 30.2409 42.5758L31.2445 43.1442V43.1464ZM34.6457 41.2184C34.6843 41.2407 34.7524 41.2384 34.7978 41.2139L35.8468 40.6188C35.8922 40.5942 35.8944 40.5541 35.8558 40.5318L34.8523 39.9634C34.8137 39.9412 34.7456 39.9434 34.7002 39.9679L33.6512 40.5608C33.6058 40.5853 33.6035 40.6255 33.6421 40.6477L34.6457 41.2161V41.2184ZM28.1793 44.8828C28.2179 44.9051 28.286 44.9029 28.3314 44.8783L29.3804 44.2854C29.4258 44.2609 29.4281 44.2208 29.3895 44.1985L28.3859 43.6301C28.3473 43.6078 28.2792 43.6101 28.2338 43.6346L27.1848 44.2275C27.1394 44.252 27.1372 44.2921 27.1758 44.3144L28.1793 44.8828ZM29.7119 44.0135C29.7505 44.0358 29.8186 44.0336 29.864 44.009L30.913 43.4161C30.9584 43.3916 30.9607 43.3515 30.9221 43.3292L29.9185 42.7608C29.8799 42.7385 29.8118 42.7408 29.7664 42.7653L28.7174 43.3582C28.672 43.3827 28.6697 43.4228 28.7083 43.4451L29.7119 44.0135ZM37.6632 39.0897C37.7018 39.112 37.7699 39.1097 37.8153 39.0852L38.8643 38.4901C38.9097 38.4656 38.9119 38.4254 38.8733 38.4032L38.6054 38.2516C38.5668 38.2293 38.4987 38.2315 38.4533 38.256L37.4043 38.8512C37.3589 38.8757 37.3566 38.9158 37.3952 38.9381L37.6632 39.0897ZM42.2586 36.4862C42.2972 36.5085 42.3654 36.5063 42.4108 36.4818L43.4597 35.8889C43.5051 35.8643 43.5074 35.8242 43.4688 35.8019L43.2009 35.6504C43.1623 35.6281 43.0942 35.6303 43.0488 35.6548L41.9998 36.2477C41.9544 36.2722 41.9521 36.3124 41.9907 36.3347L42.2586 36.4862ZM44.3657 37.681C44.4043 37.7033 44.4724 37.701 44.5178 37.6765L45.5667 37.0836C45.6122 37.0591 45.6144 37.019 45.5758 36.9967L44.5723 36.4283C44.5337 36.406 44.4656 36.4082 44.4202 36.4327L43.3712 37.0279C43.3258 37.0524 43.3235 37.0925 43.3621 37.1148L44.3657 37.6832V37.681ZM47.2832 40.9799L48.3322 40.3847C48.3776 40.3602 48.3799 40.3201 48.3413 40.2978L47.3377 39.7294C47.2991 39.7071 47.231 39.7093 47.1856 39.7339L46.1366 40.3268C46.0912 40.3513 46.089 40.3914 46.1276 40.4137L47.1311 40.9821C47.1697 41.0044 47.2378 41.0021 47.2832 40.9776V40.9799ZM39.1957 38.2226C39.2343 38.2449 39.3025 38.2427 39.3479 38.2182L40.3968 37.6252C40.4422 37.6007 40.4445 37.5606 40.4059 37.5383L40.138 37.3867C40.0994 37.3644 40.0313 37.3667 39.9859 37.3912L38.9369 37.9841C38.8915 38.0086 38.8892 38.0487 38.9278 38.071L39.1957 38.2226ZM26.649 45.7521C26.6876 45.7744 26.7557 45.7722 26.8011 45.7477L27.8501 45.1547C27.8955 45.1302 27.8978 45.0901 27.8592 45.0678L26.8556 44.4994C26.817 44.4771 26.7489 44.4794 26.7035 44.5039L25.6545 45.099C25.6091 45.1235 25.6068 45.1637 25.6454 45.186L26.649 45.7543V45.7521Z" fill="#333B59"/>
<path d="M31.0444 54.3181L31.2715 54.4473L37.3246 57.8777L48.089 51.7748L48.3138 51.65L42.0314 48.0903L31.0444 54.3181Z" fill="#151728"/>
<path d="M47.9505 51.855L42.0313 48.5026L31.4099 54.5253L37.3245 57.8777L47.9505 51.855Z" fill="#1E2139"/>
<path d="M31.855 29.0347C31.9913 28.9121 32.216 28.8943 32.3613 29.0035L32.9358 29.427C33.0834 29.5363 33.29 29.505 33.399 29.3579L34.507 27.8601C34.6159 27.7129 34.6228 27.4722 34.5229 27.3184L34.0801 26.643C33.9802 26.4915 33.9689 26.2374 34.0483 26.0746C34.1914 25.7849 34.3185 25.4884 34.4298 25.1897C34.4933 25.0203 34.6727 24.8153 34.8385 24.735L35.9238 24.2068C36.0895 24.1265 36.2439 23.9148 36.2711 23.7364L36.5005 22.165C36.5163 22.0602 36.48 21.98 36.4119 21.9399L36.396 21.931L35.0678 21.1776C35.0201 21.1508 34.9565 21.1419 34.8839 21.1597L34.759 21.1887C34.7544 21.0416 34.7862 20.8811 34.8543 20.7741L35.7716 19.3498C35.8693 19.196 35.8488 18.9642 35.7239 18.8327L35.1359 18.2041C35.1109 18.1774 35.0814 18.1618 35.0519 18.1461V18.1417L33.7146 17.3816C33.5965 17.3214 33.4535 17.3459 33.3604 17.4574L32.4998 18.476L32.5339 17.9076C32.5407 17.8096 32.5021 17.736 32.4385 17.7004L31.0944 16.938C31.0422 16.9113 30.9763 16.9068 30.8991 16.9358L29.7298 17.3593C29.5573 17.4217 29.3847 17.6157 29.3439 17.7917L29.0101 19.2584C28.9692 19.4345 28.8126 19.6596 28.665 19.7666C28.447 19.9249 28.2313 20.101 28.0247 20.2904C27.9657 20.3439 27.8907 20.3751 27.8113 20.3885L26.9054 19.8758C26.7623 19.7978 26.5807 19.8335 26.4808 19.9695L25.3728 21.4673C25.2638 21.6144 25.257 21.8552 25.3569 22.009L25.7996 22.6844C25.8995 22.8359 25.9109 23.09 25.8314 23.2527C25.6884 23.5425 25.5612 23.839 25.45 24.1377C25.3864 24.3071 25.207 24.5121 25.0413 24.5924L23.956 25.1206C23.7902 25.2009 23.6358 25.4126 23.6086 25.591L23.3793 27.1624C23.3634 27.2694 23.402 27.3518 23.4746 27.392L24.8142 28.1521C24.8619 28.1788 24.9232 28.1877 24.9959 28.1699L25.1207 28.1409C25.1253 28.288 25.0935 28.4485 25.0254 28.5555L24.1081 29.9798C24.0105 30.1336 24.0309 30.3654 24.1558 30.4969L24.7438 31.1255C24.7665 31.15 24.7915 31.1679 24.8188 31.1835L26.1538 31.9413V31.9346C26.2742 32.006 26.424 31.9881 26.5216 31.8722L27.3822 30.8536L27.3481 31.422C27.3413 31.5223 27.3822 31.5958 27.4457 31.6315L28.7808 32.3893C28.833 32.4183 28.9034 32.425 28.9829 32.396L30.1522 31.9725C30.3247 31.9101 30.4973 31.7162 30.5381 31.5401L30.8719 30.0734C30.9128 29.8973 31.0694 29.6722 31.217 29.5652C31.435 29.407 31.6484 29.2309 31.8573 29.0414L31.855 29.0347ZM31.603 21.8329C31.7915 22.2252 31.8573 22.7512 31.7665 23.3776C31.5167 25.0805 30.1976 26.8659 28.8194 27.363C28.6241 27.4343 28.4447 27.4744 28.279 27.49C28.0905 27.0977 28.0224 26.5695 28.1133 25.9409C28.363 24.238 29.6822 22.4525 31.0604 21.9533C31.2511 21.8842 31.4327 21.8463 31.603 21.8307V21.8329Z" fill="#74C1C4"/>
<path opacity="0.2" d="M31.855 29.0347C31.9913 28.9121 32.216 28.8943 32.3613 29.0035L32.9358 29.427C33.0834 29.5363 33.29 29.505 33.399 29.3579L34.507 27.8601C34.6159 27.7129 34.6228 27.4722 34.5229 27.3184L34.0801 26.643C33.9802 26.4915 33.9689 26.2374 34.0483 26.0746C34.1914 25.7849 34.3185 25.4884 34.4298 25.1897C34.4933 25.0203 34.6727 24.8153 34.8385 24.735L35.9238 24.2068C36.0895 24.1265 36.2439 23.9148 36.2711 23.7364L36.5005 22.165C36.5163 22.0602 36.48 21.98 36.4119 21.9399L36.396 21.931L35.0678 21.1776C35.0201 21.1508 34.9565 21.1419 34.8839 21.1597L34.759 21.1887C34.7544 21.0416 34.7862 20.8811 34.8543 20.7741L35.7716 19.3498C35.8693 19.196 35.8488 18.9642 35.7239 18.8327L35.1359 18.2041C35.1109 18.1774 35.0814 18.1618 35.0519 18.1461V18.1417L33.7146 17.3816C33.5965 17.3214 33.4535 17.3459 33.3604 17.4574L32.4998 18.476L32.5339 17.9076C32.5407 17.8096 32.5021 17.736 32.4385 17.7004L31.0944 16.938C31.0422 16.9113 30.9763 16.9068 30.8991 16.9358L29.7298 17.3593C29.5573 17.4217 29.3847 17.6157 29.3439 17.7917L29.0101 19.2584C28.9692 19.4345 28.8126 19.6596 28.665 19.7666C28.447 19.9249 28.2313 20.101 28.0247 20.2904C27.9657 20.3439 27.8907 20.3751 27.8113 20.3885L26.9054 19.8758C26.7623 19.7978 26.5807 19.8335 26.4808 19.9695L25.3728 21.4673C25.2638 21.6144 25.257 21.8552 25.3569 22.009L25.7996 22.6844C25.8995 22.8359 25.9109 23.09 25.8314 23.2527C25.6884 23.5425 25.5612 23.839 25.45 24.1377C25.3864 24.3071 25.207 24.5121 25.0413 24.5924L23.956 25.1206C23.7902 25.2009 23.6358 25.4126 23.6086 25.591L23.3793 27.1624C23.3634 27.2694 23.402 27.3518 23.4746 27.392L24.8142 28.1521C24.8619 28.1788 24.9232 28.1877 24.9959 28.1699L25.1207 28.1409C25.1253 28.288 25.0935 28.4485 25.0254 28.5555L24.1081 29.9798C24.0105 30.1336 24.0309 30.3654 24.1558 30.4969L24.7438 31.1255C24.7665 31.15 24.7915 31.1679 24.8188 31.1835L26.1538 31.9413V31.9346C26.2742 32.006 26.424 31.9881 26.5216 31.8722L27.3822 30.8536L27.3481 31.422C27.3413 31.5223 27.3822 31.5958 27.4457 31.6315L28.7808 32.3893C28.833 32.4183 28.9034 32.425 28.9829 32.396L30.1522 31.9725C30.3247 31.9101 30.4973 31.7162 30.5381 31.5401L30.8719 30.0734C30.9128 29.8973 31.0694 29.6722 31.217 29.5652C31.435 29.407 31.6484 29.2309 31.8573 29.0414L31.855 29.0347ZM31.603 21.8329C31.7915 22.2252 31.8573 22.7512 31.7665 23.3776C31.5167 25.0805 30.1976 26.8659 28.8194 27.363C28.6241 27.4343 28.4447 27.4744 28.279 27.49C28.0905 27.0977 28.0224 26.5695 28.1133 25.9409C28.363 24.238 29.6822 22.4525 31.0604 21.9533C31.2511 21.8842 31.4327 21.8463 31.603 21.8307V21.8329Z" fill="white"/>
<path opacity="0.1" d="M33.1105 19.6128C33.2899 19.6552 33.5237 19.5994 33.6395 19.4612L34.6976 18.2108C34.7907 18.1038 34.9246 18.077 35.0382 18.1305L33.7145 17.3794C33.5964 17.3192 33.4533 17.3437 33.3603 17.4529L32.4975 18.4716L32.4521 19.225C32.4407 19.4077 32.5815 19.5437 32.7654 19.5593C32.8835 19.5705 32.997 19.5883 33.1082 19.615L33.1105 19.6128ZM35.0677 21.1753H35.0654C35.02 21.1486 34.9564 21.1397 34.8838 21.1553L34.7589 21.1842C34.7589 21.2466 34.768 21.3068 34.7816 21.3581C34.8315 21.523 34.8679 21.7014 34.8928 21.8864C34.9201 22.0647 35.0745 22.1784 35.2538 22.1382L36.2211 21.9131C36.2937 21.8953 36.355 21.9042 36.4027 21.9332L35.0677 21.1753Z" fill="black"/>
<path opacity="0.1" d="M33.1039 24.1354C33.3195 22.6665 32.6702 21.737 31.6008 21.8329C31.7915 22.2252 31.8551 22.7512 31.7665 23.3753C31.5168 25.0783 30.1999 26.8637 28.8194 27.363C28.6242 27.4321 28.4448 27.4744 28.2791 27.4878C28.5992 28.1632 29.2872 28.4374 30.1568 28.1231C31.5372 27.6238 32.8541 25.8384 33.1039 24.1354Z" fill="black"/>
<path d="M27.2165 23.6562C27.2052 23.5737 27.1802 23.4957 27.1393 23.4355L26.6966 22.7579C26.6353 22.6621 26.6148 22.5305 26.6353 22.4102L25.2979 21.6501C25.2752 21.7727 25.2979 21.902 25.3615 21.9978L25.8043 22.6754C25.8451 22.7356 25.8656 22.8159 25.8769 22.8983L27.2188 23.654L27.2165 23.6562ZM24.8143 28.1454H24.8166C24.7417 28.1052 24.7053 28.0228 24.7212 27.9135L24.9506 26.3443C24.9664 26.2284 25.0414 26.0991 25.1345 26.0033L23.7971 25.2432C23.7041 25.3435 23.6291 25.4683 23.6132 25.5865L23.3839 27.1601C23.368 27.2671 23.4066 27.3496 23.4793 27.3897L24.8166 28.1498L24.8143 28.1454ZM30.3566 19.994L30.6836 18.5474C30.7085 18.4404 30.7789 18.3267 30.8697 18.242L29.5347 17.4841C29.4439 17.5711 29.3689 17.6803 29.344 17.7895L29.0147 19.2383L30.3543 19.9962L30.3566 19.994ZM26.1539 31.9369C26.1289 31.9213 26.1062 31.9012 26.0835 31.8789L25.4932 31.2526C25.3683 31.1188 25.3479 30.887 25.4455 30.7354L26.3628 29.3111C26.4059 29.242 26.4355 29.1506 26.4491 29.057L25.1118 28.2969C25.0981 28.3905 25.0686 28.4819 25.0255 28.551L24.1082 29.9753C24.0106 30.1291 24.031 30.361 24.1559 30.4925L24.7462 31.1188C24.7666 31.1456 24.7939 31.1634 24.8211 31.179L26.1562 31.9369H26.1539ZM28.7786 32.3849C28.765 32.376 28.7491 32.3626 28.7377 32.347C28.7173 32.3269 28.7037 32.2979 28.6946 32.2645C28.6878 32.2378 28.6855 32.2066 28.6878 32.1731L28.765 30.8513C28.7673 30.8201 28.765 30.7889 28.7559 30.7644C28.7446 30.7154 28.7218 30.6708 28.6878 30.6329C28.6605 30.6039 28.631 30.5794 28.5924 30.5593C28.5765 30.5504 28.5538 30.5415 28.5357 30.5348C28.5061 30.5281 28.4789 30.5215 28.4494 30.517C28.3313 30.5058 28.2178 30.4902 28.1088 30.4635C27.9294 30.4189 27.6933 30.4746 27.5752 30.6128L27.3823 30.8447L27.3459 31.413C27.3414 31.5133 27.3823 31.5869 27.4436 31.6226L28.7786 32.3827V32.3849Z" fill="#74C1C4"/>
<path opacity="0.7" d="M27.2165 23.6562C27.2052 23.5737 27.1802 23.4957 27.1393 23.4355L26.6966 22.7579C26.6353 22.6621 26.6148 22.5305 26.6353 22.4102L25.2979 21.6501C25.2752 21.7727 25.2979 21.902 25.3615 21.9978L25.8043 22.6754C25.8451 22.7356 25.8656 22.8159 25.8769 22.8983L27.2188 23.654L27.2165 23.6562ZM24.8143 28.1454H24.8166C24.7417 28.1052 24.7053 28.0228 24.7212 27.9135L24.9506 26.3443C24.9664 26.2284 25.0414 26.0991 25.1345 26.0033L23.7971 25.2432C23.7041 25.3435 23.6291 25.4683 23.6132 25.5865L23.3839 27.1601C23.368 27.2671 23.4066 27.3496 23.4793 27.3897L24.8166 28.1498L24.8143 28.1454ZM30.3566 19.994L30.6836 18.5474C30.7085 18.4404 30.7789 18.3267 30.8697 18.242L29.5347 17.4841C29.4439 17.5711 29.3689 17.6803 29.344 17.7895L29.0147 19.2383L30.3543 19.9962L30.3566 19.994ZM26.1539 31.9369C26.1289 31.9213 26.1062 31.9012 26.0835 31.8789L25.4932 31.2526C25.3683 31.1188 25.3479 30.887 25.4455 30.7354L26.3628 29.3111C26.4059 29.242 26.4355 29.1506 26.4491 29.057L25.1118 28.2969C25.0981 28.3905 25.0686 28.4819 25.0255 28.551L24.1082 29.9753C24.0106 30.1291 24.031 30.361 24.1559 30.4925L24.7462 31.1188C24.7666 31.1456 24.7939 31.1634 24.8211 31.179L26.1562 31.9369H26.1539ZM28.7786 32.3849C28.765 32.376 28.7491 32.3626 28.7377 32.347C28.7173 32.3269 28.7037 32.2979 28.6946 32.2645C28.6878 32.2378 28.6855 32.2066 28.6878 32.1731L28.765 30.8513C28.7673 30.8201 28.765 30.7889 28.7559 30.7644C28.7446 30.7154 28.7218 30.6708 28.6878 30.6329C28.6605 30.6039 28.631 30.5794 28.5924 30.5593C28.5765 30.5504 28.5538 30.5415 28.5357 30.5348C28.5061 30.5281 28.4789 30.5215 28.4494 30.517C28.3313 30.5058 28.2178 30.4902 28.1088 30.4635C27.9294 30.4189 27.6933 30.4746 27.5752 30.6128L27.3823 30.8447L27.3459 31.413C27.3414 31.5133 27.3823 31.5869 27.4436 31.6226L28.7786 32.3827V32.3849Z" fill="white"/>
<path d="M30.5359 31.5334L30.8697 30.0667C30.9106 29.8907 31.0672 29.6655 31.2148 29.5585C31.4328 29.4003 31.6462 29.2242 31.8551 29.0347C31.9913 28.9121 32.2161 28.8943 32.3614 29.0035L32.9358 29.427C33.0834 29.5362 33.29 29.505 33.399 29.3579L34.507 27.86C34.616 27.7129 34.6228 27.4722 34.5229 27.3184L34.0802 26.643C33.9803 26.4915 33.9689 26.2373 34.0484 26.0746C34.1914 25.7849 34.3186 25.4884 34.4298 25.1897C34.4934 25.0203 34.6728 24.8153 34.8385 24.735L35.9238 24.2067C36.0896 24.1265 36.2439 23.9147 36.2712 23.7364L36.5005 22.165C36.5278 21.9867 36.4029 21.8752 36.2235 21.9154L35.2563 22.1382C35.0769 22.1806 34.9225 22.0669 34.8975 21.8864C34.8703 21.7014 34.834 21.5231 34.7863 21.3581C34.7363 21.1842 34.7613 20.9235 34.8589 20.7697L35.7762 19.3453C35.8739 19.1915 35.8534 18.9597 35.7285 18.8282L35.1405 18.1996C35.0156 18.0659 34.8181 18.0704 34.7023 18.2108L33.6442 19.4612C33.5262 19.5994 33.2923 19.6552 33.1129 19.6128C33.0017 19.5861 32.8882 19.5682 32.7701 19.5593C32.5862 19.5437 32.4454 19.4055 32.4568 19.225L32.5362 17.9054C32.5476 17.7249 32.4159 17.629 32.2433 17.6914L31.074 18.1149C30.9015 18.1773 30.7289 18.3713 30.688 18.5474L30.3543 20.014C30.3134 20.1901 30.1568 20.4152 30.0092 20.5222C29.7912 20.6805 29.5778 20.8566 29.3689 21.046C29.2327 21.1686 29.0079 21.1842 28.8626 21.0773L28.2881 20.6537C28.1406 20.5445 27.9339 20.5757 27.825 20.7228L26.717 22.2207C26.608 22.3678 26.6012 22.6086 26.7011 22.7624L27.1438 23.4377C27.2437 23.5893 27.2551 23.8434 27.1756 24.0061C27.0326 24.2959 26.9054 24.5924 26.7942 24.891C26.7306 25.0604 26.5512 25.2655 26.3855 25.3458L25.3002 25.874C25.1344 25.9543 24.98 26.166 24.9528 26.3443L24.7235 27.9158C24.6962 28.0941 24.8211 28.2055 25.0005 28.1654L25.9677 27.9425C26.1471 27.9002 26.3015 28.0138 26.3264 28.1944C26.3537 28.3794 26.39 28.5577 26.4377 28.7227C26.4876 28.8965 26.4627 29.1573 26.365 29.3111L25.4477 30.7354C25.3501 30.8892 25.3706 31.1211 25.4954 31.2526L26.0835 31.8811C26.2084 32.0149 26.4059 32.0104 26.5217 31.87L27.5797 30.6195C27.6978 30.4813 27.9317 30.4256 28.111 30.468C28.2223 30.4947 28.3358 30.5125 28.4539 30.5237C28.6378 30.5393 28.7786 30.6775 28.7672 30.858L28.6877 32.1776C28.6764 32.3581 28.8081 32.454 28.9806 32.3916L30.1499 31.9681C30.3225 31.9057 30.4951 31.7117 30.5359 31.5356V31.5334ZM30.159 28.1231C28.7808 28.6224 27.8658 27.6461 28.1156 25.9409C28.3653 24.238 29.6845 22.4525 31.0627 21.9532C32.4409 21.454 33.3559 22.4325 33.1061 24.1354C32.8564 25.8384 31.5372 27.6238 30.159 28.1231Z" fill="#74C1C4"/>
<path opacity="0.55" d="M30.5359 31.5334L30.8697 30.0667C30.9106 29.8907 31.0672 29.6655 31.2148 29.5585C31.4328 29.4003 31.6462 29.2242 31.8551 29.0347C31.9913 28.9121 32.2161 28.8943 32.3614 29.0035L32.9358 29.427C33.0834 29.5362 33.29 29.505 33.399 29.3579L34.507 27.86C34.616 27.7129 34.6228 27.4722 34.5229 27.3184L34.0802 26.643C33.9803 26.4915 33.9689 26.2373 34.0484 26.0746C34.1914 25.7849 34.3186 25.4884 34.4298 25.1897C34.4934 25.0203 34.6728 24.8153 34.8385 24.735L35.9238 24.2067C36.0896 24.1265 36.2439 23.9147 36.2712 23.7364L36.5005 22.165C36.5278 21.9867 36.4029 21.8752 36.2235 21.9154L35.2563 22.1382C35.0769 22.1806 34.9225 22.0669 34.8975 21.8864C34.8703 21.7014 34.834 21.5231 34.7863 21.3581C34.7363 21.1842 34.7613 20.9235 34.8589 20.7697L35.7762 19.3453C35.8739 19.1915 35.8534 18.9597 35.7285 18.8282L35.1405 18.1996C35.0156 18.0659 34.8181 18.0704 34.7023 18.2108L33.6442 19.4612C33.5262 19.5994 33.2923 19.6552 33.1129 19.6128C33.0017 19.5861 32.8882 19.5682 32.7701 19.5593C32.5862 19.5437 32.4454 19.4055 32.4568 19.225L32.5362 17.9054C32.5476 17.7249 32.4159 17.629 32.2433 17.6914L31.074 18.1149C30.9015 18.1773 30.7289 18.3713 30.688 18.5474L30.3543 20.014C30.3134 20.1901 30.1568 20.4152 30.0092 20.5222C29.7912 20.6805 29.5778 20.8566 29.3689 21.046C29.2327 21.1686 29.0079 21.1842 28.8626 21.0773L28.2881 20.6537C28.1406 20.5445 27.9339 20.5757 27.825 20.7228L26.717 22.2207C26.608 22.3678 26.6012 22.6086 26.7011 22.7624L27.1438 23.4377C27.2437 23.5893 27.2551 23.8434 27.1756 24.0061C27.0326 24.2959 26.9054 24.5924 26.7942 24.891C26.7306 25.0604 26.5512 25.2655 26.3855 25.3458L25.3002 25.874C25.1344 25.9543 24.98 26.166 24.9528 26.3443L24.7235 27.9158C24.6962 28.0941 24.8211 28.2055 25.0005 28.1654L25.9677 27.9425C26.1471 27.9002 26.3015 28.0138 26.3264 28.1944C26.3537 28.3794 26.39 28.5577 26.4377 28.7227C26.4876 28.8965 26.4627 29.1573 26.365 29.3111L25.4477 30.7354C25.3501 30.8892 25.3706 31.1211 25.4954 31.2526L26.0835 31.8811C26.2084 32.0149 26.4059 32.0104 26.5217 31.87L27.5797 30.6195C27.6978 30.4813 27.9317 30.4256 28.111 30.468C28.2223 30.4947 28.3358 30.5125 28.4539 30.5237C28.6378 30.5393 28.7786 30.6775 28.7672 30.858L28.6877 32.1776C28.6764 32.3581 28.8081 32.454 28.9806 32.3916L30.1499 31.9681C30.3225 31.9057 30.4951 31.7117 30.5359 31.5356V31.5334ZM30.159 28.1231C28.7808 28.6224 27.8658 27.6461 28.1156 25.9409C28.3653 24.238 29.6845 22.4525 31.0627 21.9532C32.4409 21.454 33.3559 22.4325 33.1061 24.1354C32.8564 25.8384 31.5372 27.6238 30.159 28.1231Z" fill="white" stroke="white" stroke-width="1.11" stroke-miterlimit="10"/>
<path d="M14.1655 40.2064L16.4087 38.9359C16.5427 38.8601 16.663 38.6751 16.6767 38.5258L16.9014 36.0761C16.9151 35.9245 17.0218 35.7217 17.1353 35.6192C17.5712 35.2246 17.989 34.79 18.3818 34.3241C18.4794 34.2082 18.677 34.1503 18.8223 34.2015L20.2618 34.6941C20.4071 34.7432 20.5887 34.6785 20.6659 34.547L22.3143 31.743C22.3915 31.6115 22.3597 31.4242 22.2416 31.3261L21.086 30.3476C20.9679 30.2496 20.9202 30.0534 20.9747 29.9107C21.1881 29.3446 21.363 28.7717 21.4946 28.2033C21.5287 28.0562 21.6559 27.8645 21.7807 27.7754L23.831 26.36C23.9581 26.273 24.0603 26.0791 24.0603 25.9276V23.3843C24.0603 23.3063 24.0285 23.2483 23.9808 23.2216L22.3007 22.2609C22.2553 22.2341 22.194 22.2341 22.1258 22.2631L20.9679 22.7758C20.9565 22.6799 20.9656 22.5841 21.0042 22.5083L22.3347 19.8736C22.4028 19.7377 22.3506 19.566 22.2167 19.4903L21.1155 18.8661L19.0925 17.7115C18.9585 17.6357 18.7814 17.6759 18.6951 17.8029L17.0377 20.2526C16.99 20.3239 16.9037 20.3818 16.8129 20.4197L16.6857 19.1849C16.6789 19.1136 16.6471 19.0623 16.6017 19.0355L14.9193 18.0748C14.8693 18.0481 14.8035 18.0503 14.7354 18.0905L12.4921 19.361C12.3582 19.4368 12.2378 19.6218 12.2242 19.7711L11.9994 22.2208C11.9858 22.3723 11.8791 22.5752 11.7656 22.6777C11.3296 23.0722 10.9119 23.5069 10.5191 23.9727C10.4215 24.0886 10.2239 24.1466 10.0786 24.0953L8.63911 23.6027C8.4938 23.5537 8.31216 23.6183 8.23496 23.7498L6.58659 26.5539C6.50939 26.6854 6.54118 26.8726 6.65924 26.9707L7.81492 27.947C7.93299 28.0451 7.98067 28.2412 7.92618 28.3839C7.71275 28.9501 7.53792 29.5229 7.40623 30.0913C7.37218 30.2384 7.24503 30.4301 7.12015 30.5193L5.0699 31.9347C4.94275 32.0216 4.84058 32.2155 4.84058 32.3671V34.9104C4.84058 34.9861 4.87009 35.0441 4.91777 35.0731L6.60475 36.036C6.65016 36.0605 6.71146 36.0627 6.77731 36.0338L7.93526 35.5211C7.94661 35.6169 7.93753 35.7128 7.89893 35.7886L6.56842 38.4232C6.50031 38.5592 6.55253 38.7308 6.68649 38.8066L8.36211 39.7606C8.36211 39.7606 8.36665 39.7651 8.36892 39.7651L9.81296 40.5831C9.94692 40.6589 10.124 40.6188 10.2103 40.4917L11.8678 38.0421C11.9154 37.9707 12.0017 37.9128 12.0925 37.8749L12.2197 39.1098C12.2265 39.1811 12.2583 39.2324 12.3037 39.2591L13.9861 40.2198C14.0361 40.2465 14.1019 40.2443 14.17 40.2042L14.1655 40.2064ZM17.3737 24.8599C17.7574 25.2611 17.9731 25.9276 17.9731 26.8548C17.9731 29.2264 16.2771 32.113 14.1837 33.2988C13.4162 33.7335 12.7442 33.9207 12.1992 33.8672C11.7588 33.4147 11.4977 32.7037 11.4977 31.7764C11.4977 29.4048 13.1937 26.5182 15.2871 25.3324C16.0591 24.8955 16.7743 24.7507 17.3737 24.8599Z" fill="#74C1C4"/>
<g opacity="0.3">
<path opacity="0.3" d="M14.1655 40.2064L16.4087 38.9359C16.5427 38.8601 16.663 38.6751 16.6767 38.5258L16.9014 36.0761C16.9151 35.9245 17.0218 35.7217 17.1353 35.6192C17.5712 35.2246 17.989 34.79 18.3818 34.3241C18.4794 34.2082 18.677 34.1503 18.8223 34.2015L20.2618 34.6941C20.4071 34.7432 20.5887 34.6785 20.6659 34.547L22.3143 31.743C22.3915 31.6115 22.3597 31.4242 22.2416 31.3261L21.086 30.3476C20.9679 30.2496 20.9202 30.0534 20.9747 29.9107C21.1881 29.3446 21.363 28.7717 21.4946 28.2033C21.5287 28.0562 21.6559 27.8645 21.7807 27.7754L23.831 26.36C23.9581 26.273 24.0603 26.0791 24.0603 25.9276V23.3843C24.0603 23.3063 24.0285 23.2483 23.9808 23.2216L22.3007 22.2609C22.2553 22.2341 22.194 22.2341 22.1258 22.2631L20.9679 22.7758C20.9565 22.6799 20.9656 22.5841 21.0042 22.5083L22.3347 19.8736C22.4028 19.7377 22.3506 19.566 22.2167 19.4903L21.1155 18.8661L19.0925 17.7115C18.9585 17.6357 18.7814 17.6759 18.6951 17.8029L17.0377 20.2526C16.99 20.3239 16.9037 20.3818 16.8129 20.4197L16.6857 19.1849C16.6789 19.1136 16.6471 19.0623 16.6017 19.0355L14.9193 18.0748C14.8693 18.0481 14.8035 18.0503 14.7354 18.0905L12.4921 19.361C12.3582 19.4368 12.2378 19.6218 12.2242 19.7711L11.9994 22.2208C11.9858 22.3723 11.8791 22.5752 11.7656 22.6777C11.3296 23.0722 10.9119 23.5069 10.5191 23.9727C10.4215 24.0886 10.2239 24.1466 10.0786 24.0953L8.63911 23.6027C8.4938 23.5537 8.31216 23.6183 8.23496 23.7498L6.58659 26.5539C6.50939 26.6854 6.54118 26.8726 6.65924 26.9707L7.81492 27.947C7.93299 28.0451 7.98067 28.2412 7.92618 28.3839C7.71275 28.9501 7.53792 29.5229 7.40623 30.0913C7.37218 30.2384 7.24503 30.4301 7.12015 30.5193L5.0699 31.9347C4.94275 32.0216 4.84058 32.2155 4.84058 32.3671V34.9104C4.84058 34.9861 4.87009 35.0441 4.91777 35.0731L6.60475 36.036C6.65016 36.0605 6.71146 36.0627 6.77731 36.0338L7.93526 35.5211C7.94661 35.6169 7.93753 35.7128 7.89893 35.7886L6.56842 38.4232C6.50031 38.5592 6.55253 38.7308 6.68649 38.8066L8.36211 39.7606C8.36211 39.7606 8.36665 39.7651 8.36892 39.7651L9.81296 40.5831C9.94692 40.6589 10.124 40.6188 10.2103 40.4917L11.8678 38.0421C11.9154 37.9707 12.0017 37.9128 12.0925 37.8749L12.2197 39.1098C12.2265 39.1811 12.2583 39.2324 12.3037 39.2591L13.9861 40.2198C14.0361 40.2465 14.1019 40.2443 14.17 40.2042L14.1655 40.2064ZM17.3737 24.8599C17.7574 25.2611 17.9731 25.9276 17.9731 26.8548C17.9731 29.2264 16.2771 32.113 14.1837 33.2988C13.4162 33.7335 12.7442 33.9207 12.1992 33.8672C11.7588 33.4147 11.4977 32.7037 11.4977 31.7764C11.4977 29.4048 13.1937 26.5182 15.2871 25.3324C16.0591 24.8955 16.7743 24.7507 17.3737 24.8599Z" fill="black"/>
</g>
<g opacity="0.2">
<path opacity="0.2" d="M8.33047 39.7428C8.22376 39.6581 8.18289 39.5043 8.24419 39.3795L9.5747 36.747C9.59741 36.7047 9.61103 36.6512 9.61557 36.5999L7.93086 35.6415C7.92632 35.695 7.91497 35.744 7.89454 35.7863L6.56403 38.421C6.49364 38.557 6.54813 38.7308 6.67982 38.8044L8.33047 39.7428ZM13.9817 40.2198C13.9636 40.2109 13.9499 40.1975 13.9363 40.1797C13.9204 40.1663 13.9113 40.144 13.9045 40.1195C13.9 40.1017 13.8955 40.086 13.8955 40.0682L13.6775 37.9284C13.6775 37.9083 13.6729 37.8883 13.6661 37.8727C13.6525 37.8303 13.6298 37.7969 13.598 37.7701C13.5776 37.7545 13.5571 37.7412 13.5344 37.7322C13.5208 37.7278 13.5095 37.7233 13.4981 37.7211C13.4595 37.7122 13.4186 37.7122 13.3778 37.7211C13.3596 37.7256 13.3437 37.7278 13.3278 37.73C12.9714 37.8058 12.6262 37.837 12.2993 37.8303C12.2334 37.8303 12.1608 37.8437 12.0904 37.8727L12.2153 39.1098C12.2244 39.1811 12.2562 39.2346 12.2993 39.2591L13.9863 40.2198H13.9817ZM6.58219 36.0248C6.54132 35.9936 6.51635 35.9401 6.51635 35.8688V33.3255C6.51635 33.2208 6.5663 33.096 6.63895 33.0001L4.95879 32.0439C4.88613 32.1397 4.83618 32.2623 4.83618 32.3671V34.9104C4.83618 34.9884 4.8657 35.0441 4.91111 35.0731L6.58219 36.0271V36.0248ZM13.6094 23.3954C13.6434 23.3219 13.6684 23.2439 13.6752 23.1792L13.9 20.7296C13.9045 20.6672 13.9272 20.6003 13.9636 20.5356L12.2857 19.5794C12.2516 19.644 12.2244 19.7087 12.2176 19.7711L11.9928 22.2208C11.986 22.2876 11.961 22.3634 11.9269 22.4347L13.6094 23.3954ZM8.251 27.82C8.20559 27.7219 8.20559 27.6037 8.26009 27.5124L9.90846 24.7061C9.94706 24.6437 10.0038 24.5968 10.0719 24.5701L8.38723 23.6139C8.31912 23.6428 8.26236 23.6874 8.22376 23.7476L6.57538 26.5517C6.51635 26.652 6.52089 26.779 6.57538 26.8793L8.24646 27.82H8.251Z" fill="black"/>
</g>
<path d="M16.6745 38.5235L16.8993 36.0739C16.9129 35.9223 17.0196 35.7195 17.1331 35.6169C17.569 35.2224 17.9868 34.7878 18.3796 34.3219C18.4772 34.206 18.6748 34.148 18.8201 34.1993L20.2596 34.6919C20.4049 34.741 20.5865 34.6763 20.6637 34.5448L22.3121 31.7407C22.3893 31.6092 22.3575 31.422 22.2395 31.3239L21.0838 30.3454C20.9657 30.2473 20.918 30.0512 20.9725 29.9085C21.1859 29.3424 21.3608 28.7695 21.4925 28.2011C21.5265 28.054 21.6537 27.8623 21.7785 27.7732L23.8288 26.3578C23.9559 26.2708 24.0581 26.0769 24.0581 25.9253V23.3821C24.0581 23.2305 23.9446 23.1569 23.8038 23.2193L21.8081 24.102C21.6673 24.1644 21.522 24.0953 21.4766 23.9504C21.3608 23.5894 21.2109 23.2662 21.0315 22.9786C20.9498 22.8493 20.9316 22.6398 21.002 22.5038L22.3325 19.8692C22.4007 19.7332 22.3484 19.5616 22.2145 19.4858L20.7704 18.6678C20.6365 18.592 20.4594 18.6321 20.3731 18.7591L18.7156 21.2066C18.6294 21.3336 18.4364 21.4228 18.282 21.4183C17.9391 21.4094 17.5781 21.4451 17.2012 21.5253C17.0514 21.5588 16.9174 21.4696 16.9015 21.318L16.6836 19.1782C16.6677 19.0266 16.5473 18.9664 16.4134 19.0422L14.1701 20.3127C14.0362 20.3885 13.9158 20.5735 13.9022 20.7229L13.6774 23.1725C13.6638 23.3241 13.5571 23.5269 13.4436 23.6295C13.0076 24.024 12.5899 24.4587 12.1971 24.9245C12.0994 25.0404 11.9019 25.0984 11.7566 25.0471L10.3171 24.5545C10.1718 24.5055 9.99014 24.5701 9.91294 24.7016L8.26456 27.5057C8.18737 27.6372 8.21915 27.8244 8.33722 27.9225L9.4929 28.901C9.61097 28.9991 9.65865 29.1952 9.60416 29.3379C9.39073 29.9041 9.2159 30.4769 9.08421 31.0453C9.05015 31.1924 8.92301 31.3841 8.79813 31.4733L6.74787 32.8887C6.62073 32.9756 6.51855 33.1695 6.51855 33.3211V35.8644C6.51855 36.0159 6.63208 36.0895 6.77285 36.0271L8.76861 35.1444C8.90938 35.082 9.0547 35.1511 9.10011 35.296C9.2159 35.6571 9.36575 35.9803 9.54512 36.2678C9.62686 36.3971 9.64502 36.6066 9.57464 36.7426L8.24413 39.3772C8.17602 39.5132 8.22824 39.6848 8.3622 39.7606L9.80623 40.5787C9.94019 40.6544 10.1173 40.6143 10.2036 40.4873L11.861 38.0376C11.9473 37.9106 12.1403 37.8214 12.2947 37.8259C12.6375 37.8348 12.9985 37.7991 13.3754 37.7189C13.5253 37.6854 13.6593 37.7746 13.6752 37.9262L13.8931 40.066C13.909 40.2176 14.0293 40.2778 14.1633 40.202L16.4066 38.9314C16.5405 38.8557 16.6608 38.6707 16.6745 38.5213V38.5235ZM15.2849 33.9229C13.1915 35.1087 11.4955 34.148 11.4955 31.7742C11.4955 29.4025 13.1915 26.516 15.2849 25.3302C17.3783 24.1444 19.0744 25.1051 19.0744 27.4789C19.0744 29.8506 17.3783 32.7371 15.2849 33.9229Z" fill="#74C1C4"/>
</g>
<defs>
<clipPath id="clip0_50_391">
<rect width="67" height="74" fill="white"/>
</clipPath>
</defs>
</svg>
