<svg width="300" height="150" viewBox="0 0 300 150" fill="none" xmlns="http://www.w3.org/2000/svg">
<path d="M283.784 90.577L281.725 71.2687L263.56 76.1359L260.338 64.1113C258.98 59.0419 260.193 53.4205 268.328 51.2407L276.586 49.028L272.359 33.2518C272.359 33.2518 264.53 34.0079 257.365 35.9277C242.406 39.936 235.006 51.4309 239.311 67.4971L243.095 81.6194L226.467 86.0749L231.432 104.605L248.06 100.149L260.063 144.944L280.528 139.461L268.525 94.6657L283.784 90.577Z" fill="white" fill-opacity="0.08"/>
<path d="M105.487 75.2796L110.369 67.4725L102.167 63.9723L104.484 58.5428C105.461 56.2537 107.559 54.5115 111.233 56.0791L114.961 57.6704L118.001 50.5468C118.001 50.5468 114.859 48.5376 111.624 47.1569C104.869 44.2744 98.7438 46.3976 95.648 53.652L92.9266 60.0288L85.4184 56.8246L81.8478 65.1915L89.356 68.3957L80.7242 88.6222L89.9649 92.5657L98.5967 72.3392L105.487 75.2796Z" fill="white" fill-opacity="0.17"/>
<path d="M192.903 26.2352L194.362 20.5509L188.705 20.0073L189.065 16.2622C189.216 14.6833 190.154 13.2202 192.688 13.4636L195.26 13.7107L195.732 8.79715C195.732 8.79715 193.436 8.18299 191.204 7.96858C186.545 7.52093 183.234 9.99248 182.753 14.9964L182.331 19.3949L177.152 18.8973L176.597 24.6685L181.776 25.1661L180.436 39.1177L186.81 39.7302L188.15 25.7785L192.903 26.2352Z" fill="white" fill-opacity="0.3"/>
<path d="M28.3201 74.4101L33.8876 52.7244L12.3042 50.6506L13.6771 36.3628C14.2558 30.3392 17.835 24.7574 27.5015 25.6862L37.3136 26.629L39.1147 7.88351C39.1147 7.88351 30.3534 5.54049 21.84 4.72251C4.06549 3.01469 -8.56597 12.4438 -10.4002 31.5338L-12.0125 48.3142L-31.7703 46.4158L-33.8858 68.4332L-14.128 70.3316L-19.2421 123.557L5.07468 125.894L10.1888 72.668L28.3201 74.4101Z" fill="white" fill-opacity="0.25"/>
</svg>
