<svg width="283" height="231" viewBox="0 0 283 231" fill="none" xmlns="http://www.w3.org/2000/svg">
<path d="M64.6259 71.9214L72.4961 54.17L54.3316 49.3028L57.5536 37.2782C58.9119 32.2088 62.7734 27.9473 70.9087 30.1271L79.1666 32.3398L83.3938 16.5637C83.3938 16.5637 76.2355 13.3038 69.0706 11.384C54.1116 7.37577 41.9557 13.6308 37.6508 29.6969L33.8667 43.8193L17.2385 39.3638L12.2735 57.8936L28.9016 62.3491L16.8989 107.144L37.3638 112.627L49.3666 67.8327L64.6259 71.9214Z" fill="white" fill-opacity="0.1"/>
<path d="M199.206 71.1742L201.991 63.035L193.786 61.5919L194.741 56.1604C195.144 53.8705 196.682 51.84 200.357 52.4863L204.087 53.1424L205.34 46.0162C205.34 46.0162 202.055 44.8554 198.819 44.2862C192.062 43.0978 186.94 46.3299 185.663 53.587L184.541 59.9661L177.03 58.6451L175.558 67.0151L183.069 68.3361L179.511 88.5701L188.755 90.196L192.313 69.962L199.206 71.1742Z" fill="white" fill-opacity="0.2"/>
<path d="M303 156.18L300.934 131.306L277.445 137.014L273.667 121.464C272.074 114.909 273.802 107.722 284.322 105.165L295 102.571L290.043 82.1702C290.043 82.1702 279.959 82.9062 270.694 85.1576C251.351 89.8582 241.495 104.407 246.544 125.182L250.982 143.444L229.48 148.669L235.302 172.631L256.804 167.405L270.88 225.33L297.344 218.9L283.268 160.975L303 156.18Z" fill="white" fill-opacity="0.3"/>
<path d="M130.497 114.689L130.295 107.267L123.224 108.573L122.359 103.893C121.994 101.919 122.627 99.813 125.793 99.2278L129.008 98.6337L127.873 92.4925C127.873 92.4925 124.866 92.5443 122.077 93.0598C116.254 94.1359 113.086 98.2941 114.242 104.548L115.258 110.046L108.785 111.242L110.118 118.455L116.591 117.259L119.813 134.696L127.78 133.224L124.557 115.786L130.497 114.689Z" fill="white" fill-opacity="0.5"/>
</svg>
