<svg width="75" height="71" viewBox="0 0 75 71" fill="none" xmlns="http://www.w3.org/2000/svg">
<g clip-path="url(#clip0_50_244)">
<path d="M45.8059 70.5157L74.1618 54.1597C75.282 53.5129 75.282 52.4649 74.1618 51.818L33.2487 28.1513C32.1285 27.5045 30.3145 27.5045 29.1943 28.1513L0.83845 44.5037C-0.281762 45.1506 -0.281762 46.1986 0.83845 46.8455L41.7515 70.5157C42.8717 71.1626 44.6857 71.1626 45.8059 70.5157Z" fill="#E0E0E0"/>
<path d="M68.3185 53.0214L43.168 67.2236L4.54956 45.0603L29.6965 30.8581L68.3185 53.0214Z" fill="#74C1C4"/>
<path opacity="0.6" d="M68.3185 53.0214L43.168 67.2236L4.54956 45.0603L29.6965 30.8581L68.3185 53.0214Z" fill="black"/>
<path d="M42.8969 66.1828L67.1983 52.3782C66.5948 50.6652 66.6418 50.1449 67.3247 47.8646L43.1715 61.5283C43.1715 61.5283 42.7343 61.4958 42.9005 66.1828H42.8969Z" fill="#F5F5F5"/>
<path d="M44.3496 59.6563C43.1246 60.361 42.1309 62.0704 42.1309 63.4797V66.4647C42.1309 67.8741 43.1246 68.4415 44.3496 67.7404L68.3149 54.1273V53.0214L44.6568 66.378C43.9196 66.8008 43.327 66.4575 43.327 65.6119L43.3486 62.9521C43.3486 62.1065 43.9449 61.0802 44.6821 60.6574L68.3185 47.2936V46.0396L44.3532 59.6527L44.3496 59.6563Z" fill="#74C1C4"/>
<path opacity="0.5" d="M44.3496 59.6563C43.1246 60.361 42.1309 62.0704 42.1309 63.4797V66.4647C42.1309 67.8741 43.1246 68.4415 44.3496 67.7404L68.3149 54.1273V53.0214L44.6568 66.378C43.9196 66.8008 43.327 66.4575 43.327 65.6119L43.3486 62.9521C43.3486 62.1065 43.9449 61.0802 44.6821 60.6574L68.3185 47.2936V46.0396L44.3532 59.6527L44.3496 59.6563Z" fill="black"/>
<path d="M68.3149 46.0468L29.6965 23.8835L5.73119 37.4966C4.50619 38.2013 3.51245 39.9142 3.51245 41.32V44.3086C3.51245 45.0097 3.75818 45.5047 4.1629 45.736L42.7813 67.8994C42.3766 67.6681 42.1309 67.173 42.1309 66.4719V63.4833C42.1309 62.0776 43.121 60.3646 44.346 59.6599L68.3149 46.0504V46.0468Z" fill="#74C1C4"/>
<path opacity="0.35" d="M68.3149 46.0468L29.6965 23.8835L5.73119 37.4966C4.50619 38.2013 3.51245 39.9142 3.51245 41.32V44.3086C3.51245 45.0097 3.75818 45.5047 4.1629 45.736L42.7813 67.8994C42.3766 67.6681 42.1309 67.173 42.1309 66.4719V63.4833C42.1309 62.0776 43.121 60.3646 44.346 59.6599L68.3149 46.0504V46.0468Z" fill="black"/>
<path d="M42.7777 61.3042C42.3766 61.9944 42.1272 62.775 42.1272 63.4797V66.4683C42.1309 67.1694 42.3766 67.6644 42.7813 67.8957L4.1629 45.736C3.75818 45.5047 3.51245 45.0096 3.51245 44.3086V41.32C3.51245 40.6153 3.76179 39.8383 4.1629 39.1445L42.7777 61.3042Z" fill="#74C1C4"/>
<path opacity="0.45" d="M42.7777 61.3042C42.3766 61.9944 42.1272 62.775 42.1272 63.4797V66.4683C42.1309 67.1694 42.3766 67.6644 42.7813 67.8957L4.1629 45.736C3.75818 45.5047 3.51245 45.0096 3.51245 44.3086V41.32C3.51245 40.6153 3.76179 39.8383 4.1629 39.1445L42.7777 61.3042Z" fill="black"/>
<path d="M9.37731 42.1078C8.65821 45.2337 8.66905 46.4552 9.37731 48.7463L11.2166 49.8088C10.5084 47.5176 10.4975 46.2962 11.2166 43.1702L9.37731 42.1078Z" fill="#74C1C4"/>
<path d="M34.7086 56.6641C33.9895 59.79 34.0003 60.9718 34.7086 63.2629L36.5479 64.3253C35.8397 62.0342 35.8288 60.8525 36.5479 57.7266L34.7086 56.6641Z" fill="#74C1C4"/>
<path d="M73.3884 45.6746L48.2415 59.8732L9.62305 37.7135L34.77 23.5113L73.3884 45.6746Z" fill="#74C1C4"/>
<path opacity="0.4" d="M73.3884 45.6746L48.2415 59.8732L9.62305 37.7135L34.77 23.5113L73.3884 45.6746Z" fill="black"/>
<path d="M47.9704 58.836L72.2717 45.0314C71.6683 43.3185 71.7153 42.5523 72.3982 40.272L48.245 53.9394C48.245 53.9394 47.8078 54.1526 47.974 58.8397L47.9704 58.836Z" fill="#F5F5F5"/>
<path d="M49.4194 52.0638C48.1944 52.7685 47.2007 54.4778 47.2007 55.8872V59.1215C47.2007 60.5309 48.1944 61.0983 49.4194 60.3972L73.3847 46.7841V45.6782L49.7266 59.0348C48.9894 59.4576 48.3968 59.1143 48.3968 58.2687L48.4185 55.3632C48.4185 54.5176 49.0147 53.4913 49.7519 53.0684L73.3883 39.7047V38.4507L49.423 52.0638H49.4194Z" fill="#74C1C4"/>
<path opacity="0.25" d="M49.4194 52.0638C48.1944 52.7685 47.2007 54.4778 47.2007 55.8872V59.1215C47.2007 60.5309 48.1944 61.0983 49.4194 60.3972L73.3847 46.7841V45.6782L49.7266 59.0348C48.9894 59.4576 48.3968 59.1143 48.3968 58.2687L48.4185 55.3632C48.4185 54.5176 49.0147 53.4913 49.7519 53.0684L73.3883 39.7047V38.4507L49.423 52.0638H49.4194Z" fill="black"/>
<path d="M73.3884 38.4507L34.77 16.291L10.8047 29.9041C9.57967 30.6088 8.58594 32.3217 8.58594 33.7275V36.9618C8.58594 37.6629 8.83166 38.158 9.23638 38.3892L47.8548 60.5526C47.4501 60.3213 47.2043 59.8262 47.2043 59.1251V55.8872C47.2043 54.4814 48.1945 52.7685 49.4195 52.0638L73.3884 38.4543V38.4507Z" fill="#74C1C4"/>
<path d="M47.8475 53.7081C47.4464 54.3983 47.1971 55.1789 47.1971 55.8836V59.1215C47.2007 59.8226 47.4464 60.3177 47.8511 60.549L9.23272 38.3856C8.828 38.1543 8.58228 37.6592 8.58228 36.9582V33.7238C8.58228 33.0191 8.83161 32.2422 9.23272 31.5483L47.8475 53.7081Z" fill="#74C1C4"/>
<path opacity="0.15" d="M47.8475 53.7081C47.4464 54.3983 47.1971 55.1789 47.1971 55.8836V59.1215C47.2007 59.8226 47.4464 60.3177 47.8511 60.549L9.23272 38.3856C8.828 38.1543 8.58228 37.6592 8.58228 36.9582V33.7238C8.58228 33.0191 8.83161 32.2422 9.23272 31.5483L47.8475 53.7081Z" fill="black"/>
<path d="M14.4508 34.5117C13.7317 37.6376 13.7425 39.1048 14.4508 41.3959L16.2901 42.4584C15.5819 40.1672 15.571 38.7 16.2901 35.5741L14.4508 34.5117Z" fill="#74C1C4"/>
<path d="M39.7821 49.0861C39.063 52.212 39.0738 53.6286 39.7821 55.9197L41.6214 56.9822C40.9132 54.691 40.9023 53.2636 41.6214 50.1377L39.7821 49.0861Z" fill="#74C1C4"/>
<g opacity="0.4">
<path opacity="0.4" d="M14.4508 34.5117C13.7317 37.6376 13.7425 39.1048 14.4508 41.3959L16.2901 42.4584C15.5819 40.1672 15.571 38.7 16.2901 35.5741L14.4508 34.5117Z" fill="white"/>
<path opacity="0.4" d="M39.7821 49.0861C39.063 52.212 39.0738 53.6286 39.7821 55.9197L41.6214 56.9822C40.9132 54.691 40.9023 53.2636 41.6214 50.1377L39.7821 49.0861Z" fill="white"/>
</g>
<path d="M20.2937 18.7592V33.4673C20.3045 35.5886 22.1547 37.7026 25.8442 39.318C33.2448 42.5559 45.2455 42.5559 52.6461 39.318C56.3501 37.6954 58.193 35.5705 58.193 33.4492V18.7592C58.2364 16.609 56.3898 14.4552 52.6461 12.8181C45.2455 9.58016 33.2448 9.58016 25.8442 12.8181C22.0969 14.4588 20.2503 16.609 20.2973 18.7592H20.2937Z" fill="#1E2139"/>
<path d="M20.2975 18.7592C20.2541 16.609 22.1006 14.4552 25.8443 12.8181C33.2449 9.58016 45.2457 9.58016 52.6463 12.8181C56.39 14.4588 58.2365 16.609 58.1931 18.7592V25.4772C58.1931 23.8112 56.7188 22.6187 52.3391 24.2304C45.1662 26.8721 41.1406 31.2339 33.8231 33.3914C27.774 35.173 22.4114 34.4864 20.2866 32.2639V18.7592H20.2975Z" fill="#151728"/>
<path d="M20.2939 26.5433V28.2128C20.3048 30.3305 22.1549 32.4482 25.8444 34.0635C33.245 37.3051 45.2458 37.3051 52.6464 34.0635C56.3756 32.4337 58.2222 30.2871 58.1932 28.1478V26.5288C58.1932 28.6501 56.3467 30.775 52.6464 32.3976C45.2458 35.6355 33.245 35.6355 25.8444 32.3976C22.1513 30.7822 20.3012 28.6646 20.2939 26.5469V26.5433Z" fill="#74C1C4"/>
<path d="M69.0266 14.0685L39.2434 0L9.46387 14.0685V16.4138L39.2434 28.9175L69.0266 16.4138V14.0685Z" fill="#1E2139"/>
<path d="M39.2434 28.9175V26.5758L69.0266 14.0685V16.4138L39.2434 28.9175Z" fill="#151728"/>
<path d="M39.2434 26.5758L68.6002 14.7659L69.0266 16.4138V14.0685L39.2434 26.5758Z" fill="#272C47"/>
<path d="M39.2434 0L9.46387 14.0685L39.2434 26.5758L69.0266 14.0685L39.2434 0Z" fill="#333B59"/>
<path d="M23.2787 25.5892C23.2751 25.3941 23.1847 20.8226 23.6292 19.5217C24.0737 18.2207 25.7721 16.9017 29.3061 15.1092C33.2305 13.118 36.8369 12.2724 37.238 12.1821L37.3861 12.8325C36.9959 12.9193 33.4654 13.7504 29.6097 15.7055C26.2924 17.3895 24.641 18.6327 24.2616 19.7421C23.9219 20.7287 23.9183 24.2882 23.9472 25.5784L23.2823 25.5928L23.2787 25.5892Z" fill="#74C1C4"/>
<path opacity="0.8" d="M23.2787 25.5892C23.2751 25.3941 23.1847 20.8226 23.6292 19.5217C24.0737 18.2207 25.7721 16.9017 29.3061 15.1092C33.2305 13.118 36.8369 12.2724 37.238 12.1821L37.3861 12.8325C36.9959 12.9193 33.4654 13.7504 29.6097 15.7055C26.2924 17.3895 24.641 18.6327 24.2616 19.7421C23.9219 20.7287 23.9183 24.2882 23.9472 25.5784L23.2823 25.5928L23.2787 25.5892Z" fill="white"/>
<path d="M27.1452 39.5711C27.1452 36.1452 26.5779 30.0163 24.7819 28.2383H22.415C20.6227 30.0199 20.0518 36.1452 20.0518 39.5711C20.0518 40.0951 20.3987 40.6191 21.0889 41.0202C21.7827 41.4214 22.6897 41.6201 23.5967 41.6201C24.5037 41.6201 25.4107 41.4214 26.1045 41.0202C26.7983 40.6191 27.1416 40.0951 27.1416 39.5711H27.1452Z" fill="#74C1C4"/>
<path opacity="0.5" d="M27.1452 39.5711C27.1452 36.1452 26.5779 30.0163 24.7819 28.2383H22.415C20.6227 30.0199 20.0518 36.1452 20.0518 39.5711C20.0518 40.0951 20.3987 40.6191 21.0889 41.0202C21.7827 41.4214 22.6897 41.6201 23.5967 41.6201C24.5037 41.6201 25.4107 41.4214 26.1045 41.0202C26.7983 40.6191 27.1416 40.0951 27.1416 39.5711H27.1452Z" fill="white"/>
<path d="M22.4188 28.2381C22.2851 28.3718 22.155 28.5344 22.0357 28.7115C22.4874 29.1885 23.1812 29.3114 23.8714 29.3656C24.5074 29.4162 25.2807 29.98 25.5879 32.7879C25.895 35.5958 26.4913 39.1843 25.3783 40.2684C24.2653 41.3525 21.7828 41.3453 20.4783 40.5358C20.6373 40.7093 20.8432 40.8719 21.0962 41.0164C21.79 41.4176 22.697 41.6163 23.604 41.6163C24.511 41.6163 25.418 41.4176 26.1119 41.0164C26.8057 40.6153 27.149 40.0913 27.149 39.5673C27.149 36.1415 26.5816 30.0125 24.7857 28.2345H22.4188V28.2381Z" fill="#74C1C4"/>
<path d="M25.3781 26.9877C25.3781 27.9671 24.5831 28.7621 23.6038 28.7621C22.6245 28.7621 21.8259 27.9671 21.8259 26.9877C21.8259 26.0084 22.6209 25.2134 23.6038 25.2134C24.5867 25.2134 25.3781 26.0084 25.3781 26.9877Z" fill="#74C1C4"/>
<path opacity="0.5" d="M25.3781 26.9877C25.3781 27.9671 24.5831 28.7621 23.6038 28.7621C22.6245 28.7621 21.8259 27.9671 21.8259 26.9877C21.8259 26.0084 22.6209 25.2134 23.6038 25.2134C24.5867 25.2134 25.3781 26.0084 25.3781 26.9877Z" fill="white"/>
<path d="M24.6336 25.5494C25.0781 26.0156 25.1431 27.2407 24.2 27.8586C23.2641 28.473 22.2848 27.996 21.9126 27.519C22.1403 28.2381 22.8052 28.7657 23.6001 28.7657C24.5794 28.7657 25.3744 27.9707 25.3744 26.9913C25.3744 26.3951 25.0781 25.8747 24.63 25.5531L24.6336 25.5494Z" fill="#74C1C4"/>
<path d="M36.8513 11.333C36.8513 10.9788 37.0862 10.6247 37.5524 10.3573C38.4883 9.81882 40.0024 9.81882 40.9383 10.3573C41.4044 10.6283 41.6393 10.9825 41.6393 11.333V12.1136C41.6393 12.4677 41.4044 12.8219 40.9383 13.0893C40.0024 13.6277 38.4883 13.6277 37.5524 13.0893C37.0862 12.8183 36.8513 12.4641 36.8513 12.1136V11.333Z" fill="#151728"/>
<path d="M40.9382 12.3085C41.8741 11.7701 41.8741 10.8956 40.9382 10.3535C40.0023 9.81503 38.4882 9.81503 37.5523 10.3535C36.6164 10.8919 36.6164 11.7665 37.5523 12.3085C38.4882 12.847 40.0023 12.847 40.9382 12.3085Z" fill="#1E2139"/>
<path d="M56.1625 21.5598C56.1083 21.5598 56.0613 21.5165 56.0613 21.4586V20.8732C56.0613 20.8371 56.0793 20.8046 56.1119 20.7865L56.5816 20.5154C56.6286 20.4865 56.69 20.5046 56.719 20.5516C56.7479 20.5986 56.7298 20.66 56.6828 20.6889L56.2636 20.931V21.4623C56.2636 21.5165 56.2203 21.5634 56.1625 21.5634V21.5598Z" fill="white"/>
<path d="M57.4417 20.819C57.3875 20.819 57.3405 20.7757 57.3405 20.7178V20.3022L57.0189 20.4866C56.9719 20.5155 56.9105 20.4974 56.8816 20.4504C56.8527 20.4034 56.8708 20.342 56.9177 20.3131L57.3875 20.0421C57.4164 20.024 57.4562 20.024 57.4851 20.0421C57.5176 20.0601 57.5357 20.0926 57.5357 20.1288V20.7142C57.5357 20.7684 57.4923 20.8154 57.4345 20.8154L57.4417 20.819Z" fill="white"/>
<path d="M56.972 22.1995C56.9359 22.1995 56.9033 22.1814 56.8853 22.1489C56.8564 22.1019 56.8744 22.0405 56.9214 22.0116L57.3406 21.7694V21.2382C57.3406 21.184 57.3839 21.137 57.4418 21.137C57.4996 21.137 57.5429 21.1804 57.5429 21.2382V21.8236C57.5429 21.8598 57.5249 21.8923 57.4923 21.9104L57.0226 22.1814C57.0226 22.1814 56.9901 22.1959 56.972 22.1959V22.1995Z" fill="white"/>
<path d="M56.1625 22.6693C56.1625 22.6693 56.1299 22.6657 56.1119 22.6548C56.0793 22.6368 56.0613 22.6042 56.0613 22.5681V21.9827C56.0613 21.9284 56.1046 21.8815 56.1625 21.8815C56.2203 21.8815 56.2636 21.9248 56.2636 21.9827V22.3982L56.5852 22.2139C56.6322 22.185 56.6937 22.2031 56.7226 22.2501C56.7515 22.2971 56.7334 22.3585 56.6864 22.3874L56.2167 22.6584C56.2167 22.6584 56.1841 22.6729 56.1661 22.6729L56.1625 22.6693Z" fill="white"/>
<path d="M55.4361 21.8851L55.2446 21.9646C55.2446 21.9646 55.2229 21.9646 55.2193 21.9502C55.2049 21.9032 55.1904 21.8598 55.1723 21.8273C55.1651 21.8164 55.1723 21.7875 55.1832 21.7659L55.2916 21.5237C55.3024 21.502 55.306 21.4768 55.2988 21.4695L55.147 21.3539C55.147 21.3539 55.1217 21.3647 55.1073 21.3864L54.9736 21.6068C54.9591 21.6285 54.9411 21.6466 54.9338 21.643C54.8977 21.643 54.8616 21.643 54.8182 21.643C54.8074 21.643 54.8001 21.6358 54.7965 21.6213L54.7784 21.3792C54.7784 21.3792 54.7676 21.3611 54.7532 21.3647L54.5472 21.484C54.5472 21.484 54.5219 21.5093 54.5219 21.5273L54.5002 21.7839C54.5002 21.802 54.4857 21.8273 54.4749 21.8417C54.4388 21.8779 54.4062 21.914 54.3737 21.9574C54.3593 21.9718 54.3412 21.9863 54.334 21.9827L54.1822 21.9068C54.1822 21.9068 54.1569 21.9176 54.1461 21.9465L54.0124 22.1995C53.9979 22.2212 53.9943 22.2465 53.9979 22.2537L54.1208 22.3874C54.1208 22.3874 54.1208 22.4199 54.1208 22.4452C54.1063 22.4958 54.0883 22.55 54.081 22.6006C54.081 22.6223 54.063 22.644 54.0485 22.6548L53.8642 22.7922C53.8642 22.7922 53.8425 22.8211 53.8425 22.8355V23.1102C53.8425 23.1282 53.8534 23.1391 53.8606 23.1319L54.0521 23.0487C54.0521 23.0487 54.0738 23.0487 54.0774 23.0632C54.0919 23.1102 54.1063 23.1535 54.128 23.1897C54.128 23.2005 54.128 23.2258 54.1135 23.2511L54.0088 23.4896C53.9943 23.5149 53.9943 23.5402 54.0015 23.5438L54.1533 23.6595C54.1533 23.6595 54.175 23.6486 54.1894 23.627L54.3231 23.4065C54.3376 23.3848 54.3557 23.3668 54.3629 23.3668C54.4026 23.374 54.4388 23.374 54.4785 23.3668C54.493 23.3668 54.5002 23.3776 54.5002 23.3921L54.5219 23.6306C54.5219 23.6306 54.5327 23.6522 54.5472 23.645L54.7532 23.5258C54.7532 23.5258 54.7748 23.4969 54.7784 23.4824L54.7965 23.2222C54.7965 23.2222 54.811 23.1825 54.8254 23.168C54.8616 23.1319 54.8905 23.0957 54.923 23.0524C54.9374 23.0343 54.9555 23.0198 54.9627 23.0271L55.1145 23.0993C55.1145 23.0993 55.1398 23.0885 55.1543 23.0632L55.288 22.8102C55.3024 22.7849 55.3024 22.7596 55.2988 22.7524L55.1796 22.6187C55.1796 22.6187 55.1723 22.5862 55.1796 22.5645C55.1976 22.5139 55.2121 22.4597 55.2193 22.4091C55.2265 22.3874 55.2374 22.3621 55.2518 22.3513L55.4361 22.2176C55.4361 22.2176 55.4614 22.1887 55.4614 22.1706V21.8959C55.4614 21.8959 55.4506 21.8707 55.4397 21.8779L55.4361 21.8851ZM54.6447 22.9801C54.4496 23.0921 54.2942 22.9692 54.2942 22.7127C54.2942 22.4561 54.4496 22.1561 54.6447 22.0441C54.8399 21.9321 54.9953 22.0513 54.9953 22.3115C54.9953 22.5717 54.8363 22.8681 54.6447 22.9801Z" fill="white"/>
</g>
<defs>
<clipPath id="clip0_50_244">
<rect width="75" height="71" fill="white"/>
</clipPath>
</defs>
</svg>
