<svg width="271" height="138" viewBox="0 0 271 138" fill="none" xmlns="http://www.w3.org/2000/svg">
<g clip-path="url(#clip0_50_963)">
<path d="M146.85 53.1294H135.801V30.5518C133.126 30.5518 130.632 31.4781 128.64 33.0266V60.3178H154.011C154.011 56.349 150.807 53.134 146.85 53.134V53.1294Z" fill="url(#paint0_linear_50_963)"/>
<path d="M135.797 26.0654H128.635V53.1296H135.797V26.0654Z" fill="url(#paint1_linear_50_963)"/>
<g filter="url(#filter0_d_50_963)">
<path d="M135.797 23.3682L128.635 24.7895V33.0268C130.627 31.4783 133.121 30.552 135.797 30.552V23.3682Z" fill="url(#paint2_linear_50_963)"/>
</g>
<path d="M135.797 0H116.989V42.0267C116.993 36.1052 119.809 30.8286 124.15 27.4093V7.18381H135.797C140.242 7.18381 143.863 10.812 143.863 15.2758C143.863 19.7396 140.246 23.3678 135.797 23.3678C131.347 23.3678 127.368 24.88 124.15 27.4138V42.0357C124.15 38.3848 125.924 35.1289 128.636 33.0219C130.627 31.4734 133.121 30.5471 135.797 30.5471C144.207 30.5471 151.024 23.7084 151.024 15.2713C151.024 6.83416 144.207 0 135.797 0Z" fill="url(#paint3_linear_50_963)"/>
<path d="M124.154 0H116.993V60.3131H124.154V0Z" fill="url(#paint4_linear_50_963)"/>
<g filter="url(#filter1_d_50_963)">
<path d="M116.993 42.0269V60.3134H124.154V27.4141C119.813 30.8334 116.998 36.11 116.993 42.0314V42.0269Z" fill="url(#paint5_linear_50_963)"/>
</g>
<path d="M1.96 132.17H0V113.725H1.96V132.17Z" fill="white"/>
<path d="M7.6906 114.842L7.86713 115.101C7.66344 115.891 7.36469 116.808 6.97993 117.857C6.59517 118.906 6.19231 119.878 5.77587 120.781H4.33643C4.88866 118.529 5.29153 116.549 5.54049 114.842H7.6906Z" fill="white"/>
<path d="M10.0671 115.659C10.0671 115.209 10.1758 114.878 10.3976 114.669C10.6194 114.46 10.8955 114.355 11.2259 114.355C11.5564 114.355 11.8144 114.46 12.0407 114.673C12.267 114.887 12.3847 115.214 12.3847 115.659C12.3847 116.104 12.2716 116.431 12.0407 116.649C11.8099 116.867 11.5383 116.976 11.2259 116.976C10.8955 116.976 10.6194 116.867 10.3976 116.649C10.1758 116.431 10.0671 116.104 10.0671 115.659ZM12.1946 132.17H10.2346V119.178H12.1946V132.17Z" fill="white"/>
<path d="M25.2175 132.17V123.765C25.2175 122.707 24.9776 121.917 24.4978 121.395C24.0179 120.872 23.2665 120.613 22.239 120.613C20.8856 120.613 19.8897 120.981 19.2605 121.717C18.6313 122.453 18.3145 123.665 18.3145 125.354V132.17H16.3545V119.179H17.9478L18.2647 120.959H18.3598C18.7626 120.318 19.3239 119.823 20.0482 119.469C20.7724 119.115 21.5781 118.942 22.4699 118.942C24.0315 118.942 25.2039 119.319 25.9915 120.073C26.7791 120.827 27.1729 122.035 27.1729 123.697V132.17H25.2129H25.2175Z" fill="white"/>
<path d="M37.0453 120.708H33.75V132.17H31.79V120.708H29.4724V119.818L31.79 119.106V118.384C31.79 115.191 33.1797 113.593 35.9635 113.593C36.647 113.593 37.4527 113.729 38.3761 114.006L37.8692 115.582C37.1132 115.337 36.4659 115.214 35.9318 115.214C35.1894 115.214 34.6417 115.459 34.2887 115.954C33.9356 116.449 33.7591 117.239 33.7591 118.329V119.169H37.0544V120.699L37.0453 120.708Z" fill="white"/>
<path d="M50.5886 125.663C50.5886 127.779 50.059 129.432 48.9953 130.622C47.9316 131.811 46.4604 132.406 44.5864 132.406C43.4276 132.406 42.4001 132.134 41.5039 131.589C40.6076 131.044 39.9105 130.263 39.4262 129.241C38.9418 128.22 38.6929 127.03 38.6929 125.663C38.6929 123.547 39.2225 121.894 40.2772 120.713C41.3318 119.533 42.7985 118.942 44.6724 118.942C46.5464 118.942 47.9225 119.546 48.9908 120.754C50.059 121.962 50.5932 123.601 50.5932 125.663H50.5886ZM40.7208 125.663C40.7208 127.32 41.0512 128.587 41.7121 129.455C42.373 130.322 43.3462 130.758 44.6317 130.758C45.9172 130.758 46.8905 130.327 47.5559 129.459C48.2213 128.592 48.5562 127.33 48.5562 125.658C48.5562 123.987 48.2213 122.752 47.5559 121.894C46.8905 121.036 45.9082 120.609 44.6091 120.609C43.31 120.609 42.3548 121.031 41.703 121.876C41.0512 122.72 40.7208 123.983 40.7208 125.658V125.663Z" fill="white"/>
<path d="M59.9316 118.942C60.5064 118.942 61.0225 118.988 61.4796 119.083L61.208 120.909C60.6739 120.791 60.1986 120.732 59.7912 120.732C58.7456 120.732 57.8448 121.158 57.1025 122.012C56.3556 122.866 55.9844 123.928 55.9844 125.2V132.17H54.0244V119.179H55.6449L55.8712 121.585H55.9663C56.4461 120.741 57.0255 120.087 57.7045 119.628C58.3835 119.169 59.1258 118.942 59.9361 118.942H59.9316Z" fill="white"/>
<path d="M80.4097 132.17V123.719C80.4097 122.684 80.1879 121.907 79.7488 121.389C79.3097 120.872 78.6217 120.613 77.6937 120.613C76.4716 120.613 75.5708 120.962 74.9869 121.666C74.4029 122.37 74.1132 123.451 74.1132 124.913V132.17H72.1532V123.719C72.1532 122.684 71.9314 121.907 71.4924 121.389C71.0533 120.872 70.3607 120.613 69.4237 120.613C68.197 120.613 67.2963 120.981 66.7259 121.721C66.1556 122.461 65.8704 123.673 65.8704 125.354V132.17H63.9104V119.178H65.5037L65.8206 120.958H65.9157C66.2868 120.327 66.8074 119.832 67.4818 119.478C68.1563 119.123 68.9077 118.946 69.7451 118.946C71.7685 118.946 73.0948 119.682 73.7149 121.153H73.81C74.1947 120.472 74.756 119.936 75.4893 119.541C76.2226 119.146 77.0555 118.946 77.9925 118.946C79.4591 118.946 80.5545 119.323 81.2833 120.077C82.0121 120.831 82.3742 122.039 82.3742 123.701V132.174H80.4142L80.4097 132.17Z" fill="white"/>
<path d="M94.3785 132.17L93.9892 130.322H93.8942C93.2469 131.135 92.6041 131.689 91.9614 131.975C91.3186 132.265 90.5174 132.406 89.5578 132.406C88.2722 132.406 87.2673 132.075 86.5385 131.412C85.8098 130.749 85.4431 129.804 85.4431 128.578C85.4431 125.953 87.5344 124.577 91.7169 124.455L93.9168 124.382V123.574C93.9168 122.552 93.6995 121.803 93.2605 121.317C92.8259 120.831 92.1243 120.591 91.1647 120.591C90.0874 120.591 88.8652 120.922 87.5027 121.585L86.9007 120.077C87.5389 119.728 88.236 119.455 88.9965 119.26C89.7569 119.06 90.5174 118.965 91.2824 118.965C92.8259 118.965 93.9711 119.31 94.7135 119.996C95.4558 120.681 95.8316 121.785 95.8316 123.301V132.17H94.3785ZM89.947 130.785C91.1692 130.785 92.1288 130.449 92.8259 129.777C93.523 129.105 93.8716 128.165 93.8716 126.957V125.785L91.9116 125.867C90.3499 125.922 89.2273 126.167 88.5393 126.594C87.8512 127.021 87.5072 127.693 87.5072 128.605C87.5072 129.318 87.72 129.859 88.15 130.231C88.58 130.603 89.1775 130.79 89.9516 130.79L89.947 130.785Z" fill="white"/>
<path d="M104.056 130.785C104.405 130.785 104.74 130.758 105.061 130.708C105.383 130.658 105.641 130.604 105.831 130.549V132.057C105.618 132.161 105.306 132.243 104.894 132.311C104.477 132.379 104.106 132.411 103.776 132.411C101.273 132.411 100.019 131.085 100.019 128.438V120.709H98.1628V119.76L100.019 118.942L100.847 116.168H101.983V119.179H105.74V120.709H101.983V128.356C101.983 129.137 102.169 129.741 102.54 130.159C102.911 130.576 103.418 130.785 104.065 130.785H104.056Z" fill="white"/>
<path d="M108.252 115.659C108.252 115.209 108.361 114.878 108.583 114.669C108.805 114.46 109.081 114.355 109.411 114.355C109.742 114.355 110 114.46 110.226 114.673C110.452 114.887 110.57 115.214 110.57 115.659C110.57 116.104 110.457 116.431 110.226 116.649C109.995 116.867 109.724 116.976 109.411 116.976C109.081 116.976 108.805 116.867 108.583 116.649C108.361 116.431 108.252 116.104 108.252 115.659ZM110.38 132.17H108.42V119.178H110.38V132.17Z" fill="white"/>
<path d="M119.134 132.406C117.464 132.406 116.16 131.816 115.223 130.64C114.286 129.464 113.816 127.82 113.816 125.708C113.816 123.597 114.286 121.921 115.232 120.732C116.179 119.542 117.491 118.942 119.18 118.942C120.954 118.942 122.317 119.614 123.267 120.959H123.371L123.656 119.179H125.204V138.001H123.244V132.443C123.244 131.653 123.29 130.98 123.376 130.426H123.222C122.317 131.748 120.954 132.406 119.134 132.406ZM119.429 130.758C120.737 130.758 121.687 130.408 122.289 129.704C122.891 129.001 123.208 127.815 123.244 126.149V125.708C123.244 123.892 122.937 122.584 122.321 121.785C121.705 120.986 120.732 120.586 119.401 120.586C118.252 120.586 117.369 121.036 116.762 121.93C116.151 122.829 115.848 124.096 115.848 125.731C115.848 127.366 116.151 128.615 116.753 129.473C117.355 130.331 118.247 130.758 119.429 130.758Z" fill="white"/>
<path d="M131.211 119.178V127.606C131.211 128.664 131.451 129.455 131.931 129.977C132.411 130.499 133.162 130.758 134.19 130.758C135.543 130.758 136.534 130.385 137.159 129.645C137.788 128.901 138.1 127.688 138.1 126.008V119.178H140.06V132.17H138.44L138.155 130.426H138.051C137.648 131.067 137.091 131.557 136.38 131.898C135.67 132.238 134.855 132.406 133.941 132.406C132.365 132.406 131.184 132.029 130.401 131.28C129.618 130.531 129.224 129.327 129.224 127.675V119.174H131.211V119.178Z" fill="white"/>
<path d="M149.693 132.406C147.778 132.406 146.266 131.821 145.162 130.654C144.053 129.482 143.501 127.861 143.501 125.781C143.501 123.701 144.017 122.021 145.044 120.791C146.072 119.56 147.452 118.942 149.186 118.942C150.811 118.942 152.092 119.478 153.038 120.55C153.984 121.622 154.455 123.034 154.455 124.787V126.031H145.533C145.574 127.557 145.954 128.715 146.687 129.505C147.416 130.295 148.444 130.69 149.765 130.69C151.16 130.69 152.54 130.399 153.903 129.813V131.566C153.21 131.866 152.554 132.079 151.934 132.211C151.314 132.343 150.567 132.406 149.693 132.406ZM149.163 120.586C148.122 120.586 147.294 120.927 146.674 121.608C146.054 122.289 145.692 123.229 145.583 124.428H152.355C152.355 123.188 152.079 122.235 151.526 121.576C150.974 120.918 150.186 120.586 149.163 120.586Z" fill="white"/>
<path d="M172.05 132.17L171.66 130.322H171.565C170.918 131.135 170.275 131.689 169.632 131.975C168.99 132.265 168.189 132.406 167.229 132.406C165.943 132.406 164.938 132.075 164.21 131.412C163.481 130.749 163.114 129.804 163.114 128.578C163.114 125.953 165.206 124.577 169.388 124.455L171.588 124.382V123.574C171.588 122.552 171.371 121.803 170.932 121.317C170.497 120.831 169.795 120.591 168.836 120.591C167.758 120.591 166.536 120.922 165.174 121.585L164.572 120.077C165.21 119.728 165.907 119.455 166.668 119.26C167.428 119.06 168.189 118.965 168.954 118.965C170.497 118.965 171.642 119.31 172.385 119.996C173.127 120.681 173.503 121.785 173.503 123.301V132.17H172.05ZM167.618 130.785C168.84 130.785 169.8 130.449 170.497 129.777C171.194 129.105 171.543 128.165 171.543 126.957V125.785L169.583 125.867C168.021 125.922 166.898 126.167 166.21 126.594C165.522 127.021 165.178 127.693 165.178 128.605C165.178 129.318 165.391 129.859 165.821 130.231C166.251 130.603 166.849 130.79 167.623 130.79L167.618 130.785Z" fill="white"/>
<path d="M180.378 132.169L175.463 119.178H177.567L180.356 126.884C180.985 128.687 181.356 129.854 181.465 130.394H181.56C181.646 129.976 181.922 129.109 182.379 127.792C182.841 126.475 183.873 123.605 185.48 119.182H187.585L182.669 132.174H180.378V132.169Z" fill="white"/>
<path d="M195.14 132.406C193.225 132.406 191.713 131.821 190.609 130.654C189.499 129.482 188.947 127.861 188.947 125.781C188.947 123.701 189.463 122.021 190.491 120.791C191.518 119.56 192.899 118.942 194.633 118.942C196.258 118.942 197.539 119.478 198.485 120.55C199.431 121.622 199.902 123.034 199.902 124.787V126.031H190.98C191.02 127.557 191.401 128.715 192.134 129.505C192.863 130.295 193.89 130.69 195.212 130.69C196.606 130.69 197.987 130.399 199.349 129.813V131.566C198.657 131.866 198 132.079 197.38 132.211C196.76 132.343 196.013 132.406 195.14 132.406ZM194.61 120.586C193.569 120.586 192.741 120.927 192.12 121.608C191.5 122.289 191.138 123.229 191.029 124.428H197.801C197.801 123.188 197.525 122.235 196.973 121.576C196.421 120.918 195.633 120.586 194.61 120.586Z" fill="white"/>
<path d="M208.421 132.406C206.547 132.406 205.094 131.825 204.066 130.667C203.038 129.509 202.522 127.87 202.522 125.753C202.522 123.637 203.043 121.903 204.089 120.718C205.134 119.532 206.619 118.938 208.552 118.938C209.172 118.938 209.797 119.006 210.417 119.137C211.037 119.269 211.526 119.428 211.883 119.61L211.281 121.281C210.847 121.108 210.376 120.963 209.865 120.849C209.353 120.736 208.9 120.677 208.507 120.677C205.877 120.677 204.559 122.361 204.559 125.726C204.559 127.325 204.881 128.546 205.524 129.4C206.166 130.254 207.117 130.68 208.375 130.68C209.453 130.68 210.562 130.449 211.698 129.981V131.725C210.833 132.174 209.742 132.401 208.425 132.401L208.421 132.406Z" fill="white"/>
<path d="M223.888 132.169L218.972 119.178H221.077L223.865 126.884C224.494 128.687 224.865 129.854 224.974 130.394H225.069C225.155 129.976 225.431 129.109 225.888 127.792C226.35 126.475 227.382 123.605 228.989 119.182H231.094L226.178 132.174H223.888V132.169Z" fill="white"/>
<path d="M244.352 125.663C244.352 127.779 243.823 129.432 242.759 130.622C241.695 131.811 240.224 132.406 238.35 132.406C237.191 132.406 236.164 132.134 235.268 131.589C234.371 131.044 233.674 130.263 233.19 129.241C232.706 128.22 232.457 127.03 232.457 125.663C232.457 123.547 232.986 121.894 234.041 120.713C235.096 119.533 236.562 118.942 238.436 118.942C240.31 118.942 241.686 119.546 242.754 120.754C243.823 121.962 244.357 123.601 244.357 125.663H244.352ZM234.484 125.663C234.484 127.32 234.815 128.587 235.476 129.455C236.137 130.322 237.11 130.758 238.395 130.758C239.681 130.758 240.654 130.327 241.32 129.459C241.985 128.592 242.32 127.33 242.32 125.658C242.32 123.987 241.985 122.752 241.32 121.894C240.654 121.036 239.672 120.609 238.373 120.609C237.074 120.609 236.119 121.031 235.467 121.876C234.815 122.72 234.484 123.983 234.484 125.658V125.663Z" fill="white"/>
<path d="M249.635 119.178V127.606C249.635 128.664 249.875 129.455 250.354 129.977C250.834 130.499 251.586 130.758 252.613 130.758C253.967 130.758 254.958 130.385 255.583 129.645C256.212 128.901 256.524 127.688 256.524 126.008V119.178H258.484V132.17H256.864L256.578 130.426H256.474C256.071 131.067 255.515 131.557 254.804 131.898C254.093 132.238 253.279 132.406 252.364 132.406C250.789 132.406 249.607 132.029 248.824 131.28C248.041 130.531 247.647 129.327 247.647 127.675V119.174H249.635V119.178Z" fill="white"/>
<path d="M271 128.628C271 129.836 270.552 130.772 269.651 131.426C268.755 132.079 267.492 132.411 265.871 132.411C264.156 132.411 262.816 132.138 261.852 131.594V129.768C262.472 130.086 263.142 130.331 263.857 130.513C264.568 130.694 265.256 130.785 265.917 130.785C266.94 130.785 267.727 130.622 268.28 130.295C268.832 129.968 269.108 129.468 269.108 128.796C269.108 128.292 268.891 127.856 268.452 127.498C268.017 127.139 267.162 126.712 265.894 126.222C264.69 125.772 263.834 125.377 263.323 125.041C262.816 124.705 262.436 124.323 262.187 123.897C261.938 123.47 261.816 122.961 261.816 122.366C261.816 121.308 262.246 120.473 263.106 119.86C263.966 119.247 265.143 118.942 266.641 118.942C268.035 118.942 269.398 119.228 270.728 119.796L270.031 121.395C268.732 120.859 267.555 120.586 266.496 120.586C265.568 120.586 264.867 120.732 264.391 121.027C263.916 121.322 263.681 121.721 263.681 122.235C263.681 122.584 263.767 122.879 263.948 123.125C264.124 123.37 264.409 123.601 264.803 123.824C265.197 124.046 265.953 124.364 267.071 124.782C268.605 125.345 269.647 125.908 270.185 126.476C270.724 127.043 270.996 127.761 270.996 128.619L271 128.628Z" fill="white"/>
<path d="M14.5211 104.212H14.9693C16.5898 104.212 17.9025 105.533 17.9025 107.154V107.604H14.5166V104.207L14.5211 104.212Z" fill="url(#paint6_linear_50_963)"/>
<path d="M0 107.607V75.3848H3.7344V104.211H14.5212L17.907 107.607H0Z" fill="url(#paint7_linear_50_963)"/>
<path d="M50.3081 75.3809V96.233C50.3081 99.9066 49.2036 102.795 46.9901 104.897C44.7766 107 41.7393 108.049 37.8736 108.049C34.0079 108.049 31.0159 106.991 28.8975 104.874C26.7791 102.758 25.7244 99.8476 25.7244 96.1467V75.3854H29.4588V96.4101C29.4588 99.0983 30.1921 101.164 31.6541 102.604C33.1207 104.043 35.2709 104.765 38.1135 104.765C40.9562 104.765 42.9117 104.043 44.3737 102.595C45.8404 101.146 46.5691 99.0711 46.5691 96.3692V75.3854H50.3035L50.3081 75.3809Z" fill="url(#paint8_linear_50_963)"/>
<path d="M75.2629 78.2686C71.7322 78.2686 68.9484 79.4492 66.9024 81.806C64.8609 84.1627 63.8379 87.3914 63.8379 91.4919C63.8379 95.5924 64.8247 98.9663 66.7937 101.269C68.7628 103.566 71.5738 104.72 75.2176 104.72C77.4583 104.72 80.0158 104.316 82.8856 103.507V106.79C80.6586 107.626 77.9109 108.048 74.6473 108.048C69.9171 108.048 66.2641 106.609 63.693 103.73C61.122 100.851 59.8364 96.7594 59.8364 91.4555C59.8364 88.1361 60.4566 85.2253 61.6923 82.7278C62.9281 80.2303 64.716 78.3049 67.0517 76.9517C69.3874 75.5985 72.1396 74.9219 75.3036 74.9219C78.6714 74.9219 81.6182 75.5394 84.1349 76.7746L82.5552 79.9941C80.1244 78.8498 77.6937 78.2731 75.2584 78.2731L75.2629 78.2686Z" fill="url(#paint9_linear_50_963)"/>
<path d="M114.413 85.4339C114.413 88.9032 113.331 91.5552 111.172 93.3897C109.013 95.2243 105.939 96.1461 101.956 96.1461H99.0319V107.607H92.2195V75.3848H102.481C106.379 75.3848 109.339 76.2249 111.367 77.9095C113.395 79.5942 114.409 82.1009 114.409 85.4339H114.413ZM99.0319 90.5471H101.273C103.368 90.5471 104.935 90.1338 105.976 89.3028C107.017 88.4718 107.537 87.2639 107.537 85.6791C107.537 84.0943 107.103 82.8955 106.229 82.1281C105.356 81.3652 103.993 80.9838 102.133 80.9838H99.0365V90.5471H99.0319Z" fill="url(#paint10_linear_50_963)"/>
<path d="M123.177 107.607V75.3848H129.989V107.607H123.177Z" fill="url(#paint11_linear_50_963)"/>
<path d="M169.266 107.607H160.611L146.638 83.2316H146.438C146.714 87.5364 146.855 90.6061 146.855 92.4452V107.607H140.767V75.3848H149.358L163.309 99.52H163.463C163.241 95.3332 163.132 92.3725 163.132 90.6379V75.3848H169.261V107.607H169.266Z" fill="url(#paint12_linear_50_963)"/>
<path d="M198.553 107.607H180.052V75.3848H198.553V80.9838H186.865V88.0586H197.742V93.6576H186.865V101.968H198.553V107.612V107.607Z" fill="url(#paint13_linear_50_963)"/>
<path d="M207.95 107.607V75.3848H214.762V101.968H222.168L227.794 107.612H207.954L207.95 107.607Z" fill="url(#paint14_linear_50_963)"/>
<path d="M236.069 107.607V75.3848H242.881V101.968H250.286L255.908 107.612H236.069V107.607Z" fill="url(#paint15_linear_50_963)"/>
<path d="M264.188 107.607V75.3848H271V107.607H264.188Z" fill="url(#paint16_linear_50_963)"/>
<path d="M222.168 101.964H222.914C225.608 101.964 227.79 104.157 227.79 106.854V107.603H222.163V101.959L222.168 101.964Z" fill="url(#paint17_linear_50_963)"/>
<path d="M250.287 101.964H251.033C253.727 101.964 255.908 104.157 255.908 106.854V107.603H250.282V101.959L250.287 101.964Z" fill="url(#paint18_linear_50_963)"/>
</g>
<defs>
<filter id="filter0_d_50_963" x="117.295" y="20.5282" width="29.8409" height="32.3382" filterUnits="userSpaceOnUse" color-interpolation-filters="sRGB">
<feFlood flood-opacity="0" result="BackgroundImageFix"/>
<feColorMatrix in="SourceAlpha" type="matrix" values="0 0 0 0 0 0 0 0 0 0 0 0 0 0 0 0 0 0 127 0" result="hardAlpha"/>
<feOffset dy="8.5"/>
<feGaussianBlur stdDeviation="5.67"/>
<feColorMatrix type="matrix" values="0 0 0 0 0 0 0 0 0 0 0 0 0 0 0 0 0 0 0.5 0"/>
<feBlend mode="normal" in2="BackgroundImageFix" result="effect1_dropShadow_50_963"/>
<feBlend mode="normal" in="SourceGraphic" in2="effect1_dropShadow_50_963" result="shape"/>
</filter>
<filter id="filter1_d_50_963" x="105.653" y="7.57406" width="29.8409" height="55.5794" filterUnits="userSpaceOnUse" color-interpolation-filters="sRGB">
<feFlood flood-opacity="0" result="BackgroundImageFix"/>
<feColorMatrix in="SourceAlpha" type="matrix" values="0 0 0 0 0 0 0 0 0 0 0 0 0 0 0 0 0 0 127 0" result="hardAlpha"/>
<feOffset dy="-8.5"/>
<feGaussianBlur stdDeviation="5.67"/>
<feColorMatrix type="matrix" values="0 0 0 0 0 0 0 0 0 0 0 0 0 0 0 0 0 0 0.5 0"/>
<feBlend mode="normal" in2="BackgroundImageFix" result="effect1_dropShadow_50_963"/>
<feBlend mode="normal" in="SourceGraphic" in2="effect1_dropShadow_50_963" result="shape"/>
</filter>
<linearGradient id="paint0_linear_50_963" x1="126.789" y1="69.8675" x2="165.813" y2="7.97692" gradientUnits="userSpaceOnUse">
<stop offset="0.2" stop-color="#009BD9"/>
<stop offset="0.24" stop-color="#079FD6"/>
<stop offset="0.37" stop-color="#1BAACE"/>
<stop offset="0.52" stop-color="#2AB2C9"/>
<stop offset="0.7" stop-color="#32B7C5"/>
<stop offset="1" stop-color="#35B9C5"/>
</linearGradient>
<linearGradient id="paint1_linear_50_963" x1="117.088" y1="63.7464" x2="156.112" y2="1.85582" gradientUnits="userSpaceOnUse">
<stop offset="0.2" stop-color="#009BD9"/>
<stop offset="0.24" stop-color="#079FD6"/>
<stop offset="0.37" stop-color="#1BAACE"/>
<stop offset="0.52" stop-color="#2AB2C9"/>
<stop offset="0.7" stop-color="#32B7C5"/>
<stop offset="1" stop-color="#35B9C5"/>
</linearGradient>
<linearGradient id="paint2_linear_50_963" x1="111.729" y1="60.368" x2="150.753" y2="-1.52259" gradientUnits="userSpaceOnUse">
<stop offset="0.2" stop-color="#009BD9"/>
<stop offset="0.24" stop-color="#079FD6"/>
<stop offset="0.37" stop-color="#1BAACE"/>
<stop offset="0.52" stop-color="#2AB2C9"/>
<stop offset="0.7" stop-color="#32B7C5"/>
<stop offset="1" stop-color="#35B9C5"/>
</linearGradient>
<linearGradient id="paint3_linear_50_963" x1="105.007" y1="56.1309" x2="144.031" y2="-5.75965" gradientUnits="userSpaceOnUse">
<stop offset="0.2" stop-color="#009BD9"/>
<stop offset="0.24" stop-color="#079FD6"/>
<stop offset="0.37" stop-color="#1BAACE"/>
<stop offset="0.52" stop-color="#2AB2C9"/>
<stop offset="0.7" stop-color="#32B7C5"/>
<stop offset="1" stop-color="#35B9C5"/>
</linearGradient>
<linearGradient id="paint4_linear_50_963" x1="104.5" y1="55.8085" x2="143.524" y2="-6.08206" gradientUnits="userSpaceOnUse">
<stop offset="0.2" stop-color="#009BD9"/>
<stop offset="0.24" stop-color="#079FD6"/>
<stop offset="0.37" stop-color="#1BAACE"/>
<stop offset="0.52" stop-color="#2AB2C9"/>
<stop offset="0.7" stop-color="#32B7C5"/>
<stop offset="1" stop-color="#35B9C5"/>
</linearGradient>
<linearGradient id="paint5_linear_50_963" x1="112.752" y1="61.0127" x2="151.771" y2="-0.877895" gradientUnits="userSpaceOnUse">
<stop offset="0.2" stop-color="#009BD9"/>
<stop offset="0.24" stop-color="#079FD6"/>
<stop offset="0.37" stop-color="#1BAACE"/>
<stop offset="0.52" stop-color="#2AB2C9"/>
<stop offset="0.7" stop-color="#32B7C5"/>
<stop offset="1" stop-color="#35B9C5"/>
</linearGradient>
<linearGradient id="paint6_linear_50_963" x1="-0.602074" y1="107.912" x2="270.961" y2="75.7378" gradientUnits="userSpaceOnUse">
<stop offset="0.2" stop-color="#009BD9"/>
<stop offset="0.24" stop-color="#079FD6"/>
<stop offset="0.37" stop-color="#1BAACE"/>
<stop offset="0.52" stop-color="#2AB2C9"/>
<stop offset="0.7" stop-color="#32B7C5"/>
<stop offset="1" stop-color="#35B9C5"/>
</linearGradient>
<linearGradient id="paint7_linear_50_963" x1="-2.17274" y1="92.8221" x2="265.451" y2="61.1077" gradientUnits="userSpaceOnUse">
<stop offset="0.2" stop-color="#009BD9"/>
<stop offset="0.24" stop-color="#079FD6"/>
<stop offset="0.37" stop-color="#1BAACE"/>
<stop offset="0.52" stop-color="#2AB2C9"/>
<stop offset="0.7" stop-color="#32B7C5"/>
<stop offset="1" stop-color="#35B9C5"/>
</linearGradient>
<linearGradient id="paint8_linear_50_963" x1="-1.81969" y1="95.7925" x2="265.805" y2="64.0826" gradientUnits="userSpaceOnUse">
<stop offset="0.2" stop-color="#009BD9"/>
<stop offset="0.24" stop-color="#079FD6"/>
<stop offset="0.37" stop-color="#1BAACE"/>
<stop offset="0.52" stop-color="#2AB2C9"/>
<stop offset="0.7" stop-color="#32B7C5"/>
<stop offset="1" stop-color="#35B9C5"/>
</linearGradient>
<linearGradient id="paint9_linear_50_963" x1="-1.24935" y1="100.619" x2="266.375" y2="68.9048" gradientUnits="userSpaceOnUse">
<stop offset="0.2" stop-color="#009BD9"/>
<stop offset="0.24" stop-color="#079FD6"/>
<stop offset="0.37" stop-color="#1BAACE"/>
<stop offset="0.52" stop-color="#2AB2C9"/>
<stop offset="0.7" stop-color="#32B7C5"/>
<stop offset="1" stop-color="#35B9C5"/>
</linearGradient>
<linearGradient id="paint10_linear_50_963" x1="-0.964071" y1="103.012" x2="266.66" y2="71.3021" gradientUnits="userSpaceOnUse">
<stop offset="0.2" stop-color="#009BD9"/>
<stop offset="0.24" stop-color="#079FD6"/>
<stop offset="0.37" stop-color="#1BAACE"/>
<stop offset="0.52" stop-color="#2AB2C9"/>
<stop offset="0.7" stop-color="#32B7C5"/>
<stop offset="1" stop-color="#35B9C5"/>
</linearGradient>
<linearGradient id="paint11_linear_50_963" x1="-0.534244" y1="106.654" x2="267.09" y2="74.9394" gradientUnits="userSpaceOnUse">
<stop offset="0.2" stop-color="#009BD9"/>
<stop offset="0.24" stop-color="#079FD6"/>
<stop offset="0.37" stop-color="#1BAACE"/>
<stop offset="0.52" stop-color="#2AB2C9"/>
<stop offset="0.7" stop-color="#32B7C5"/>
<stop offset="1" stop-color="#35B9C5"/>
</linearGradient>
<linearGradient id="paint12_linear_50_963" x1="-0.13582" y1="109.996" x2="267.488" y2="78.2862" gradientUnits="userSpaceOnUse">
<stop offset="0.2" stop-color="#009BD9"/>
<stop offset="0.24" stop-color="#079FD6"/>
<stop offset="0.37" stop-color="#1BAACE"/>
<stop offset="0.52" stop-color="#2AB2C9"/>
<stop offset="0.7" stop-color="#32B7C5"/>
<stop offset="1" stop-color="#35B9C5"/>
</linearGradient>
<linearGradient id="paint13_linear_50_963" x1="0.33931" y1="114.028" x2="267.964" y2="82.314" gradientUnits="userSpaceOnUse">
<stop offset="0.2" stop-color="#009BD9"/>
<stop offset="0.24" stop-color="#079FD6"/>
<stop offset="0.37" stop-color="#1BAACE"/>
<stop offset="0.52" stop-color="#2AB2C9"/>
<stop offset="0.7" stop-color="#32B7C5"/>
<stop offset="1" stop-color="#35B9C5"/>
</linearGradient>
<linearGradient id="paint14_linear_50_963" x1="0.737857" y1="117.389" x2="268.362" y2="85.6743" gradientUnits="userSpaceOnUse">
<stop offset="0.2" stop-color="#009BD9"/>
<stop offset="0.24" stop-color="#079FD6"/>
<stop offset="0.37" stop-color="#1BAACE"/>
<stop offset="0.52" stop-color="#2AB2C9"/>
<stop offset="0.7" stop-color="#32B7C5"/>
<stop offset="1" stop-color="#35B9C5"/>
</linearGradient>
<linearGradient id="paint15_linear_50_963" x1="1.13184" y1="120.695" x2="268.756" y2="88.9802" gradientUnits="userSpaceOnUse">
<stop offset="0.2" stop-color="#009BD9"/>
<stop offset="0.24" stop-color="#079FD6"/>
<stop offset="0.37" stop-color="#1BAACE"/>
<stop offset="0.52" stop-color="#2AB2C9"/>
<stop offset="0.7" stop-color="#32B7C5"/>
<stop offset="1" stop-color="#35B9C5"/>
</linearGradient>
<linearGradient id="paint16_linear_50_963" x1="1.43055" y1="123.233" x2="269.055" y2="91.5231" gradientUnits="userSpaceOnUse">
<stop offset="0.2" stop-color="#009BD9"/>
<stop offset="0.24" stop-color="#079FD6"/>
<stop offset="0.37" stop-color="#1BAACE"/>
<stop offset="0.52" stop-color="#2AB2C9"/>
<stop offset="0.7" stop-color="#32B7C5"/>
<stop offset="1" stop-color="#35B9C5"/>
</linearGradient>
<linearGradient id="paint17_linear_50_963" x1="-0.837791" y1="131.711" x2="270.725" y2="99.5367" gradientUnits="userSpaceOnUse">
<stop offset="0.2" stop-color="#009BD9"/>
<stop offset="0.24" stop-color="#079FD6"/>
<stop offset="0.37" stop-color="#1BAACE"/>
<stop offset="0.52" stop-color="#2AB2C9"/>
<stop offset="0.7" stop-color="#32B7C5"/>
<stop offset="1" stop-color="#35B9C5"/>
</linearGradient>
<linearGradient id="paint18_linear_50_963" x1="-0.855381" y1="135.067" x2="270.707" y2="102.888" gradientUnits="userSpaceOnUse">
<stop offset="0.2" stop-color="#009BD9"/>
<stop offset="0.24" stop-color="#079FD6"/>
<stop offset="0.37" stop-color="#1BAACE"/>
<stop offset="0.52" stop-color="#2AB2C9"/>
<stop offset="0.7" stop-color="#32B7C5"/>
<stop offset="1" stop-color="#35B9C5"/>
</linearGradient>
<clipPath id="clip0_50_963">
<rect width="271" height="138" fill="white"/>
</clipPath>
</defs>
</svg>
