<svg width="252" height="48" viewBox="0 0 252 48" fill="none" xmlns="http://www.w3.org/2000/svg">
<path d="M32.7466 38.1106H25.0665V22.4839C23.2075 22.4839 21.4722 23.1254 20.0913 24.1946V43.0822H37.7217C37.7217 40.3358 35.495 38.1106 32.7466 38.1106Z" fill="url(#paint0_linear_199_15)"/>
<path d="M25.0665 19.3799H20.0913V38.1105H25.0665V19.3799Z" fill="url(#paint1_linear_199_15)"/>
<g filter="url(#filter0_d_199_15)">
<path d="M25.0699 17.5088L20.0947 18.4911V24.1945C21.4789 23.1253 23.2109 22.4838 25.0699 22.4838V17.5121V17.5088Z" fill="url(#paint2_linear_199_15)"/>
</g>
<path d="M25.0699 1.3374H12V30.4257C12.0033 26.3261 13.9593 22.6742 16.9752 20.3086V6.30907H25.0665C28.1559 6.30907 30.6703 8.82164 30.6703 11.9089C30.6703 14.9961 28.1559 17.5087 25.0665 17.5087C21.9771 17.5087 19.2087 18.5578 16.9752 20.3086V30.4324C16.9752 27.9064 18.2089 25.6512 20.0913 24.1944C21.4756 23.1252 23.2075 22.4837 25.0665 22.4837C30.911 22.4837 35.6455 17.7493 35.6455 11.9122C35.6455 6.07519 30.911 1.3374 25.0699 1.3374Z" fill="url(#paint3_linear_199_15)"/>
<path d="M16.9752 1.3374H12V43.0854H16.9752V1.3374Z" fill="url(#paint4_linear_199_15)"/>
<g filter="url(#filter1_d_199_15)">
<path d="M12 30.4258V43.0821H16.9752V20.312C13.9593 22.6776 12.0033 26.3295 12 30.4291V30.4258Z" fill="url(#paint5_linear_199_15)"/>
</g>
<path d="M53.2739 43.1222H51.8262V29.5503H53.2739V43.1222Z" fill="white"/>
<path d="M57.5069 30.3691L57.6373 30.5596C57.4868 31.141 57.2661 31.8159 56.9819 32.5877C56.6977 33.3595 56.4001 34.0745 56.0925 34.7394H55.0293C55.4372 33.0822 55.7348 31.6254 55.9187 30.3691H57.5069Z" fill="white"/>
<path d="M59.2622 30.9706C59.2622 30.6399 59.3425 30.396 59.5063 30.2423C59.6701 30.0886 59.8741 30.0117 60.1182 30.0117C60.3622 30.0117 60.5528 30.0886 60.72 30.2456C60.8872 30.4026 60.9741 30.6432 60.9741 30.9706C60.9741 31.2981 60.8905 31.5386 60.72 31.699C60.5495 31.8594 60.3489 31.9396 60.1182 31.9396C59.8741 31.9396 59.6701 31.8594 59.5063 31.699C59.3425 31.5386 59.2622 31.2981 59.2622 30.9706ZM60.8337 43.1192H59.3859V33.5601H60.8337V43.1192Z" fill="white"/>
<path d="M70.4529 43.1225V36.938C70.4529 36.1595 70.2757 35.5781 69.9213 35.1939C69.5668 34.8096 69.0118 34.6192 68.2528 34.6192C67.2531 34.6192 66.5175 34.8898 66.0528 35.4311C65.588 35.9724 65.354 36.8645 65.354 38.1074V43.1225H63.9062V33.5634H65.0832L65.3172 34.8731H65.3874C65.685 34.402 66.0996 34.0378 66.6346 33.7772C67.1695 33.5166 67.7647 33.3896 68.4234 33.3896C69.5769 33.3896 70.4429 33.667 71.0246 34.2216C71.6064 34.7762 71.8973 35.665 71.8973 36.8879V43.1225H70.4495H70.4529Z" fill="white"/>
<path d="M79.1897 34.6858H76.7556V43.119H75.3078V34.6858H73.5959V34.0309L75.3078 33.5064V32.9751C75.3078 30.6263 76.3343 29.4502 78.3906 29.4502C78.8954 29.4502 79.4906 29.5504 80.1727 29.7542L79.7982 30.9136C79.2398 30.7332 78.7617 30.643 78.3672 30.643C77.8188 30.643 77.4143 30.8234 77.1535 31.1876C76.8927 31.5518 76.7623 32.1332 76.7623 32.935V33.5532H79.1964V34.6791L79.1897 34.6858Z" fill="white"/>
<path d="M89.1901 38.3312C89.1901 39.8882 88.7989 41.1044 88.0132 41.9797C87.2275 42.8551 86.1408 43.2928 84.7566 43.2928C83.9007 43.2928 83.1417 43.0924 82.4797 42.6914C81.8176 42.2905 81.3027 41.7158 80.945 40.964C80.5872 40.2123 80.4033 39.3369 80.4033 38.3312C80.4033 36.7742 80.7945 35.558 81.5736 34.6893C82.3526 33.8206 83.4359 33.3862 84.8201 33.3862C86.2043 33.3862 87.2208 33.8306 88.0099 34.7194C88.7989 35.6081 89.1935 36.8143 89.1935 38.3312H89.1901ZM81.9012 38.3312C81.9012 39.5507 82.1453 40.4829 82.6335 41.1211C83.1216 41.7592 83.8405 42.08 84.79 42.08C85.7396 42.08 86.4585 41.7626 86.95 41.1244C87.4415 40.4862 87.6889 39.5574 87.6889 38.3278C87.6889 37.0983 87.4415 36.1895 86.95 35.558C86.4585 34.9265 85.7329 34.6124 84.7733 34.6124C83.8137 34.6124 83.1082 34.9232 82.6268 35.5446C82.1453 36.1661 81.9012 37.0949 81.9012 38.3278V38.3312Z" fill="white"/>
<path d="M96.0945 33.3862C96.5191 33.3862 96.9003 33.4196 97.238 33.4898L97.0374 34.833C96.6428 34.7461 96.2918 34.7027 95.9909 34.7027C95.2185 34.7027 94.5531 35.0167 94.0048 35.6449C93.4531 36.273 93.1789 37.0548 93.1789 37.9904V43.1191H91.7312V33.56H92.9282L93.0954 35.3308H93.1656C93.52 34.7093 93.948 34.2282 94.4495 33.8907C94.951 33.5533 95.4994 33.3862 96.0979 33.3862H96.0945Z" fill="white"/>
<path d="M111.221 43.1221V36.9042C111.221 36.1424 111.057 35.571 110.732 35.1901C110.408 34.8092 109.9 34.6188 109.215 34.6188C108.312 34.6188 107.646 34.8761 107.215 35.3939C106.784 35.9118 106.57 36.707 106.57 37.7829V43.1221H105.122V36.9042C105.122 36.1424 104.958 35.571 104.634 35.1901C104.31 34.8092 103.798 34.6188 103.106 34.6188C102.2 34.6188 101.534 34.8894 101.113 35.434C100.692 35.9787 100.481 36.8707 100.481 38.107V43.1221H99.0334V33.563H100.21L100.444 34.8727H100.515C100.789 34.4083 101.173 34.0441 101.671 33.7835C102.17 33.5229 102.725 33.3926 103.343 33.3926C104.838 33.3926 105.817 33.9338 106.276 35.0164H106.346C106.63 34.5152 107.045 34.121 107.586 33.8303C108.128 33.5396 108.743 33.3926 109.435 33.3926C110.518 33.3926 111.328 33.6699 111.866 34.2245C112.404 34.7792 112.672 35.6679 112.672 36.8908V43.1254H111.224L111.221 43.1221Z" fill="white"/>
<path d="M121.539 43.1224L121.251 41.7625H121.181C120.703 42.3606 120.228 42.7682 119.753 42.9787C119.279 43.1926 118.687 43.2961 117.978 43.2961C117.028 43.2961 116.286 43.0522 115.748 42.5644C115.21 42.0766 114.939 41.3816 114.939 40.4795C114.939 38.5483 116.483 37.5359 119.573 37.4457L121.198 37.3923V36.7975C121.198 36.0458 121.037 35.4945 120.713 35.137C120.392 34.7795 119.874 34.6024 119.165 34.6024C118.369 34.6024 117.466 34.8463 116.46 35.3341L116.015 34.2248C116.487 33.9676 117.002 33.7671 117.563 33.6234C118.125 33.4764 118.687 33.4062 119.252 33.4062C120.392 33.4062 121.238 33.6602 121.786 34.1647C122.335 34.6692 122.612 35.4811 122.612 36.5971V43.1224H121.539ZM118.266 42.1033C119.168 42.1033 119.877 41.8561 120.392 41.3616C120.907 40.8671 121.164 40.1755 121.164 39.2867V38.4247L119.717 38.4848C118.563 38.5249 117.734 38.7054 117.226 39.0194C116.717 39.3335 116.463 39.828 116.463 40.4996C116.463 41.0241 116.621 41.4217 116.938 41.6957C117.256 41.9697 117.697 42.1067 118.269 42.1067L118.266 42.1033Z" fill="white"/>
<path d="M128.687 42.1C128.945 42.1 129.192 42.0799 129.43 42.0432C129.667 42.0064 129.857 41.9663 129.998 41.9262V43.0355C129.841 43.1124 129.61 43.1725 129.306 43.2226C128.998 43.2727 128.724 43.2961 128.48 43.2961C126.631 43.2961 125.705 42.3205 125.705 40.3726V34.6859H124.334V33.9876L125.705 33.3862L126.317 31.3447H127.156V33.5599H129.931V34.6859H127.156V40.3124C127.156 40.8871 127.293 41.3315 127.567 41.6389C127.841 41.9463 128.216 42.1 128.694 42.1H128.687Z" fill="white"/>
<path d="M131.787 30.9706C131.787 30.6399 131.867 30.396 132.031 30.2423C132.195 30.0886 132.398 30.0117 132.643 30.0117C132.887 30.0117 133.077 30.0886 133.244 30.2456C133.412 30.4026 133.499 30.6432 133.499 30.9706C133.499 31.2981 133.415 31.5386 133.244 31.699C133.074 31.8594 132.873 31.9396 132.643 31.9396C132.398 31.9396 132.195 31.8594 132.031 31.699C131.867 31.5386 131.787 31.2981 131.787 30.9706ZM133.358 43.1192H131.91V33.5601H133.358V43.1192Z" fill="white"/>
<path d="M139.825 43.2962C138.591 43.2962 137.628 42.8619 136.936 41.9965C136.244 41.1312 135.896 39.9217 135.896 38.368C135.896 36.8144 136.244 35.5815 136.943 34.7061C137.641 33.8307 138.611 33.3896 139.858 33.3896C141.169 33.3896 142.175 33.8841 142.877 34.8731H142.954L143.165 33.5634H144.308V47.4126H142.861V43.323C142.861 42.7416 142.894 42.2471 142.958 41.8395H142.844C142.175 42.8118 141.169 43.2962 139.825 43.2962ZM140.042 42.0834C141.008 42.0834 141.71 41.8261 142.155 41.3082C142.6 40.7904 142.834 39.9183 142.861 38.6921V38.368C142.861 37.0315 142.633 36.0693 142.178 35.4812C141.724 34.8932 141.005 34.5992 140.022 34.5992C139.173 34.5992 138.521 34.9299 138.073 35.5881C137.621 36.2497 137.397 37.1819 137.397 38.3847C137.397 39.5875 137.621 40.5064 138.066 41.1378C138.511 41.7693 139.169 42.0834 140.042 42.0834Z" fill="white"/>
<path d="M148.745 33.56V39.7612C148.745 40.5397 148.922 41.1211 149.277 41.5053C149.631 41.8895 150.186 42.08 150.945 42.08C151.945 42.08 152.677 41.806 153.139 41.2614C153.603 40.7134 153.834 39.8214 153.834 38.5851V33.56H155.282V43.1191H154.085L153.874 41.8361H153.797C153.5 42.3072 153.088 42.668 152.563 42.9186C152.039 43.1692 151.437 43.2928 150.761 43.2928C149.598 43.2928 148.725 43.0155 148.147 42.4642C147.568 41.9129 147.277 41.0275 147.277 39.8113V33.5566H148.745V33.56Z" fill="white"/>
<path d="M162.393 43.2962C160.979 43.2962 159.862 42.8652 159.046 42.0065C158.227 41.1445 157.819 39.9517 157.819 38.4215C157.819 36.8912 158.2 35.655 158.959 34.7495C159.718 33.844 160.738 33.3896 162.019 33.3896C163.219 33.3896 164.165 33.7839 164.864 34.5724C165.563 35.3609 165.911 36.4001 165.911 37.6897V38.6052H159.321C159.351 39.7279 159.632 40.5799 160.173 41.1612C160.711 41.7426 161.47 42.0333 162.447 42.0333C163.477 42.0333 164.496 41.8194 165.503 41.3884V42.6781C164.991 42.8986 164.506 43.0557 164.048 43.1526C163.59 43.2495 163.039 43.2962 162.393 43.2962ZM162.002 34.5992C161.233 34.5992 160.621 34.8497 160.163 35.3509C159.705 35.8521 159.438 36.5437 159.357 37.4258H164.359C164.359 36.5137 164.155 35.812 163.747 35.3275C163.339 34.8431 162.758 34.5992 162.002 34.5992Z" fill="white"/>
<path d="M178.91 43.1224L178.623 41.7625H178.553C178.075 42.3606 177.6 42.7682 177.125 42.9787C176.65 43.1926 176.058 43.2961 175.35 43.2961C174.4 43.2961 173.658 43.0522 173.119 42.5644C172.581 42.0766 172.31 41.3816 172.31 40.4795C172.31 38.5483 173.855 37.5359 176.944 37.4457L178.569 37.3923V36.7975C178.569 36.0458 178.409 35.4945 178.085 35.137C177.764 34.7795 177.245 34.6024 176.537 34.6024C175.741 34.6024 174.838 34.8463 173.832 35.3341L173.387 34.2248C173.858 33.9676 174.373 33.7671 174.935 33.6234C175.497 33.4764 176.058 33.4062 176.623 33.4062C177.764 33.4062 178.61 33.6602 179.158 34.1647C179.706 34.6692 179.984 35.4811 179.984 36.5971V43.1224H178.91ZM175.637 42.1033C176.54 42.1033 177.249 41.8561 177.764 41.3616C178.279 40.8671 178.536 40.1755 178.536 39.2867V38.4247L177.088 38.4848C175.935 38.5249 175.106 38.7054 174.597 39.0194C174.089 39.3335 173.835 39.828 173.835 40.4996C173.835 41.0241 173.992 41.4217 174.31 41.6957C174.627 41.9697 175.069 42.1067 175.64 42.1067L175.637 42.1033Z" fill="white"/>
<path d="M185.062 43.1221L181.431 33.563H182.986L185.046 39.233C185.511 40.5594 185.785 41.4181 185.865 41.8157H185.935C185.999 41.5083 186.203 40.8701 186.54 39.9012C186.881 38.9323 187.644 36.8206 188.831 33.5663H190.385L186.754 43.1254H185.062V43.1221Z" fill="white"/>
<path d="M195.962 43.2962C194.548 43.2962 193.431 42.8652 192.615 42.0065C191.796 41.1445 191.388 39.9517 191.388 38.4215C191.388 36.8912 191.77 35.655 192.529 34.7495C193.288 33.844 194.307 33.3896 195.588 33.3896C196.788 33.3896 197.734 33.7839 198.433 34.5724C199.132 35.3609 199.48 36.4001 199.48 37.6897V38.6052H192.89C192.92 39.7279 193.201 40.5799 193.742 41.1612C194.281 41.7426 195.04 42.0333 196.016 42.0333C197.046 42.0333 198.065 41.8194 199.072 41.3884V42.6781C198.56 42.8986 198.075 43.0557 197.617 43.1526C197.159 43.2495 196.608 43.2962 195.962 43.2962ZM195.571 34.5992C194.802 34.5992 194.19 34.8497 193.732 35.3509C193.274 35.8521 193.007 36.5437 192.926 37.4258H197.928C197.928 36.5137 197.724 35.812 197.317 35.3275C196.909 34.8431 196.327 34.5992 195.571 34.5992Z" fill="white"/>
<path d="M205.776 43.2962C204.391 43.2962 203.318 42.8685 202.559 42.0165C201.8 41.1645 201.419 39.9583 201.419 38.4013C201.419 36.8443 201.803 35.568 202.576 34.696C203.348 33.8239 204.445 33.3862 205.873 33.3862C206.331 33.3862 206.792 33.4363 207.25 33.5332C207.708 33.6301 208.069 33.7471 208.333 33.8807L207.889 35.1103C207.568 34.9833 207.22 34.8764 206.842 34.7929C206.464 34.7093 206.13 34.6659 205.839 34.6659C203.896 34.6659 202.924 35.9055 202.924 38.3813C202.924 39.5574 203.161 40.4562 203.636 41.0843C204.11 41.7124 204.813 42.0265 205.742 42.0265C206.538 42.0265 207.357 41.8561 208.196 41.512V42.795C207.558 43.1258 206.752 43.2928 205.779 43.2928L205.776 43.2962Z" fill="white"/>
<path d="M217.201 43.1221L213.57 33.563H215.124L217.184 39.233C217.649 40.5594 217.923 41.4181 218.003 41.8157H218.073C218.137 41.5083 218.341 40.8701 218.679 39.9012C219.02 38.9323 219.782 36.8206 220.969 33.5663H222.524L218.892 43.1254H217.201V43.1221Z" fill="white"/>
<path d="M232.317 38.3312C232.317 39.8882 231.925 41.1044 231.14 41.9797C230.354 42.8551 229.267 43.2928 227.883 43.2928C227.027 43.2928 226.268 43.0924 225.606 42.6914C224.944 42.2905 224.429 41.7158 224.071 40.964C223.714 40.2123 223.53 39.3369 223.53 38.3312C223.53 36.7742 223.921 35.558 224.7 34.6893C225.479 33.8206 226.562 33.3862 227.947 33.3862C229.331 33.3862 230.347 33.8306 231.136 34.7194C231.925 35.6081 232.32 36.8143 232.32 38.3312H232.317ZM225.028 38.3312C225.028 39.5507 225.272 40.4829 225.76 41.1211C226.248 41.7592 226.967 42.08 227.917 42.08C228.866 42.08 229.585 41.7626 230.076 41.1244C230.568 40.4862 230.815 39.5574 230.815 38.3278C230.815 37.0983 230.568 36.1895 230.076 35.558C229.585 34.9265 228.859 34.6124 227.9 34.6124C226.94 34.6124 226.235 34.9232 225.753 35.5446C225.272 36.1661 225.028 37.0949 225.028 38.3278V38.3312Z" fill="white"/>
<path d="M236.219 33.56V39.7612C236.219 40.5397 236.396 41.1211 236.75 41.5053C237.105 41.8895 237.66 42.08 238.419 42.08C239.418 42.08 240.151 41.806 240.612 41.2614C241.077 40.7134 241.307 39.8214 241.307 38.5851V33.56H242.755V43.1191H241.558L241.348 41.8361H241.271C240.973 42.3072 240.562 42.668 240.037 42.9186C239.512 43.1692 238.91 43.2928 238.235 43.2928C237.071 43.2928 236.198 43.0155 235.62 42.4642C235.042 41.9129 234.751 41.0275 234.751 39.8113V33.5566H236.219V33.56Z" fill="white"/>
<path d="M252 40.513C252 41.4017 251.669 42.09 251.004 42.5711C250.342 43.0523 249.409 43.2962 248.212 43.2962C246.945 43.2962 245.955 43.0957 245.243 42.6948V41.3516C245.701 41.5855 246.196 41.7659 246.724 41.8995C247.249 42.0332 247.757 42.1 248.245 42.1C249.001 42.1 249.583 41.9797 249.991 41.7392C250.399 41.4986 250.602 41.1311 250.602 40.6366C250.602 40.2657 250.442 39.945 250.118 39.681C249.797 39.4171 249.165 39.103 248.229 38.7421C247.339 38.4114 246.707 38.1207 246.329 37.8734C245.955 37.6262 245.674 37.3455 245.49 37.0315C245.306 36.7174 245.216 36.3432 245.216 35.9055C245.216 35.127 245.534 34.5122 246.169 34.0611C246.804 33.6101 247.674 33.3862 248.78 33.3862C249.81 33.3862 250.816 33.5967 251.799 34.0144L251.285 35.1905C250.325 34.7962 249.456 34.5957 248.673 34.5957C247.988 34.5957 247.47 34.7027 247.119 34.9198C246.767 35.137 246.594 35.431 246.594 35.8086C246.594 36.0659 246.657 36.283 246.791 36.4635C246.921 36.6439 247.132 36.8143 247.423 36.978C247.714 37.1417 248.272 37.3756 249.098 37.683C250.231 38.0973 251 38.5116 251.398 38.9292C251.796 39.3469 251.997 39.8748 251.997 40.5063L252 40.513Z" fill="white"/>
<path d="M62.5522 22.5473H62.8832C64.0802 22.5473 65.0498 23.5196 65.0498 24.7124V25.0431H62.5488V22.5439L62.5522 22.5473Z" fill="url(#paint6_linear_199_15)"/>
<path d="M51.8262 25.0464V1.3374H54.5846V22.5472H62.5522L65.0532 25.0464H51.8262Z" fill="url(#paint7_linear_199_15)"/>
<path d="M88.9861 1.3374V16.6767C88.9861 19.3798 88.1703 21.5048 86.5353 23.0517C84.9003 24.5987 82.6568 25.3705 79.8014 25.3705C76.9461 25.3705 74.736 24.592 73.1712 23.035C71.6064 21.478 70.8274 19.3363 70.8274 16.6133V1.3374H73.5858V16.8071C73.5858 18.785 74.1275 20.3053 75.2074 21.3644C76.2907 22.4236 77.8789 22.9548 79.9786 22.9548C82.0784 22.9548 83.5228 22.4236 84.6027 21.3577C85.686 20.2919 86.2244 18.765 86.2244 16.777V1.3374H88.9828H88.9861Z" fill="url(#paint8_linear_199_15)"/>
<path d="M107.419 3.46245C104.811 3.46245 102.755 4.33115 101.244 6.06523C99.7357 7.7993 98.9801 10.1749 98.9801 13.192C98.9801 16.209 99.709 18.6915 101.163 20.3855C102.618 22.0762 104.694 22.9248 107.386 22.9248C109.041 22.9248 110.93 22.6274 113.05 22.0327V24.4484C111.405 25.0632 109.375 25.3739 106.964 25.3739C103.47 25.3739 100.772 24.3147 98.8731 22.1964C96.974 20.0781 96.0244 17.0677 96.0244 13.1652C96.0244 10.7228 96.4825 8.58113 97.3953 6.74349C98.308 4.90584 99.6287 3.48918 101.354 2.49351C103.079 1.49784 105.112 1 107.449 1C109.937 1 112.113 1.4544 113.972 2.3632L112.806 4.7321C111.01 3.89012 109.215 3.46579 107.416 3.46579L107.419 3.46245Z" fill="url(#paint9_linear_199_15)"/>
<path d="M136.337 8.73143C136.337 11.2841 135.538 13.2353 133.943 14.5852C132.348 15.935 130.078 16.6133 127.136 16.6133H124.976V25.0464H119.944V1.3374H127.524C130.402 1.3374 132.589 1.95552 134.087 3.1951C135.585 4.43467 136.334 6.279 136.334 8.73143H136.337ZM124.976 12.4936H126.631C128.179 12.4936 129.336 12.1895 130.105 11.5781C130.874 10.9667 131.258 10.0779 131.258 8.91185C131.258 7.74578 130.937 6.86371 130.292 6.29905C129.647 5.73773 128.64 5.45707 127.266 5.45707H124.979V12.4936H124.976Z" fill="url(#paint10_linear_199_15)"/>
<path d="M142.81 25.0464V1.3374H147.842V25.0464H142.81Z" fill="url(#paint11_linear_199_15)"/>
<path d="M176.854 25.0464H170.461L160.14 7.11096H159.993C160.197 10.2784 160.3 12.537 160.3 13.8902V25.0464H155.803V1.3374H162.149L172.454 19.0958H172.568C172.404 16.0152 172.324 13.8367 172.324 12.5604V1.3374H176.851V25.0464H176.854Z" fill="url(#paint12_linear_199_15)"/>
<path d="M198.483 25.0464H184.818V1.3374H198.483V5.45707H189.85V10.6626H197.885V14.7823H189.85V20.8967H198.483V25.0497V25.0464Z" fill="url(#paint13_linear_199_15)"/>
<path d="M205.428 25.0464V1.3374H210.46V20.8933H215.93L220.086 25.0464H205.431H205.428Z" fill="url(#paint14_linear_199_15)"/>
<path d="M226.198 25.0464V1.3374H231.23V20.8933H236.7L240.853 25.0464H226.198Z" fill="url(#paint15_linear_199_15)"/>
<path d="M246.968 25.0464V1.3374H252V25.0464H246.968Z" fill="url(#paint16_linear_199_15)"/>
<path d="M215.927 20.8935H216.478C218.468 20.8935 220.079 22.5073 220.079 24.4919V25.0432H215.923V20.8901L215.927 20.8935Z" fill="url(#paint17_linear_199_15)"/>
<path d="M236.697 20.8935H237.248C239.238 20.8935 240.849 22.5073 240.849 24.4919V25.0432H236.693V20.8901L236.697 20.8935Z" fill="url(#paint18_linear_199_15)"/>
<defs>
<filter id="filter0_d_199_15" x="8.75473" y="14.6688" width="27.6551" height="29.3655" filterUnits="userSpaceOnUse" color-interpolation-filters="sRGB">
<feFlood flood-opacity="0" result="BackgroundImageFix"/>
<feColorMatrix in="SourceAlpha" type="matrix" values="0 0 0 0 0 0 0 0 0 0 0 0 0 0 0 0 0 0 127 0" result="hardAlpha"/>
<feOffset dy="8.5"/>
<feGaussianBlur stdDeviation="5.67"/>
<feColorMatrix type="matrix" values="0 0 0 0 0 0 0 0 0 0 0 0 0 0 0 0 0 0 0.5 0"/>
<feBlend mode="normal" in2="BackgroundImageFix" result="effect1_dropShadow_199_15"/>
<feBlend mode="normal" in="SourceGraphic" in2="effect1_dropShadow_199_15" result="shape"/>
</filter>
<filter id="filter1_d_199_15" x="0.66" y="0.472012" width="27.6551" height="45.45" filterUnits="userSpaceOnUse" color-interpolation-filters="sRGB">
<feFlood flood-opacity="0" result="BackgroundImageFix"/>
<feColorMatrix in="SourceAlpha" type="matrix" values="0 0 0 0 0 0 0 0 0 0 0 0 0 0 0 0 0 0 127 0" result="hardAlpha"/>
<feOffset dy="-8.5"/>
<feGaussianBlur stdDeviation="5.67"/>
<feColorMatrix type="matrix" values="0 0 0 0 0 0 0 0 0 0 0 0 0 0 0 0 0 0 0.5 0"/>
<feBlend mode="normal" in2="BackgroundImageFix" result="effect1_dropShadow_199_15"/>
<feBlend mode="normal" in="SourceGraphic" in2="effect1_dropShadow_199_15" result="shape"/>
</filter>
<linearGradient id="paint0_linear_199_15" x1="18.8074" y1="49.6944" x2="45.7725" y2="6.76325" gradientUnits="userSpaceOnUse">
<stop offset="0.2" stop-color="#009BD9"/>
<stop offset="0.24" stop-color="#079FD6"/>
<stop offset="0.37" stop-color="#1BAACE"/>
<stop offset="0.52" stop-color="#2AB2C9"/>
<stop offset="0.7" stop-color="#32B7C5"/>
<stop offset="1" stop-color="#35B9C5"/>
</linearGradient>
<linearGradient id="paint1_linear_199_15" x1="12.0668" y1="45.4611" x2="39.0319" y2="2.52658" gradientUnits="userSpaceOnUse">
<stop offset="0.2" stop-color="#009BD9"/>
<stop offset="0.24" stop-color="#079FD6"/>
<stop offset="0.37" stop-color="#1BAACE"/>
<stop offset="0.52" stop-color="#2AB2C9"/>
<stop offset="0.7" stop-color="#32B7C5"/>
<stop offset="1" stop-color="#35B9C5"/>
</linearGradient>
<linearGradient id="paint2_linear_199_15" x1="8.34556" y1="43.1223" x2="35.3107" y2="0.191065" gradientUnits="userSpaceOnUse">
<stop offset="0.2" stop-color="#009BD9"/>
<stop offset="0.24" stop-color="#079FD6"/>
<stop offset="0.37" stop-color="#1BAACE"/>
<stop offset="0.52" stop-color="#2AB2C9"/>
<stop offset="0.7" stop-color="#32B7C5"/>
<stop offset="1" stop-color="#35B9C5"/>
</linearGradient>
<linearGradient id="paint3_linear_199_15" x1="3.67126" y1="40.1886" x2="30.6364" y2="-2.74592" gradientUnits="userSpaceOnUse">
<stop offset="0.2" stop-color="#009BD9"/>
<stop offset="0.24" stop-color="#079FD6"/>
<stop offset="0.37" stop-color="#1BAACE"/>
<stop offset="0.52" stop-color="#2AB2C9"/>
<stop offset="0.7" stop-color="#32B7C5"/>
<stop offset="1" stop-color="#35B9C5"/>
</linearGradient>
<linearGradient id="paint4_linear_199_15" x1="3.32019" y1="39.9681" x2="30.2853" y2="-2.96643" gradientUnits="userSpaceOnUse">
<stop offset="0.2" stop-color="#009BD9"/>
<stop offset="0.24" stop-color="#079FD6"/>
<stop offset="0.37" stop-color="#1BAACE"/>
<stop offset="0.52" stop-color="#2AB2C9"/>
<stop offset="0.7" stop-color="#32B7C5"/>
<stop offset="1" stop-color="#35B9C5"/>
</linearGradient>
<linearGradient id="paint5_linear_199_15" x1="9.05435" y1="43.5666" x2="36.0194" y2="0.635415" gradientUnits="userSpaceOnUse">
<stop offset="0.2" stop-color="#009BD9"/>
<stop offset="0.24" stop-color="#079FD6"/>
<stop offset="0.37" stop-color="#1BAACE"/>
<stop offset="0.52" stop-color="#2AB2C9"/>
<stop offset="0.7" stop-color="#32B7C5"/>
<stop offset="1" stop-color="#35B9C5"/>
</linearGradient>
<linearGradient id="paint6_linear_199_15" x1="51.3781" y1="25.2737" x2="251.949" y2="1.41469" gradientUnits="userSpaceOnUse">
<stop offset="0.2" stop-color="#009BD9"/>
<stop offset="0.24" stop-color="#079FD6"/>
<stop offset="0.37" stop-color="#1BAACE"/>
<stop offset="0.52" stop-color="#2AB2C9"/>
<stop offset="0.7" stop-color="#32B7C5"/>
<stop offset="1" stop-color="#35B9C5"/>
</linearGradient>
<linearGradient id="paint7_linear_199_15" x1="50.2213" y1="14.1675" x2="247.88" y2="-9.34354" gradientUnits="userSpaceOnUse">
<stop offset="0.2" stop-color="#009BD9"/>
<stop offset="0.24" stop-color="#079FD6"/>
<stop offset="0.37" stop-color="#1BAACE"/>
<stop offset="0.52" stop-color="#2AB2C9"/>
<stop offset="0.7" stop-color="#32B7C5"/>
<stop offset="1" stop-color="#35B9C5"/>
</linearGradient>
<linearGradient id="paint8_linear_199_15" x1="50.482" y1="16.356" x2="248.141" y2="-7.15844" gradientUnits="userSpaceOnUse">
<stop offset="0.2" stop-color="#009BD9"/>
<stop offset="0.24" stop-color="#079FD6"/>
<stop offset="0.37" stop-color="#1BAACE"/>
<stop offset="0.52" stop-color="#2AB2C9"/>
<stop offset="0.7" stop-color="#32B7C5"/>
<stop offset="1" stop-color="#35B9C5"/>
</linearGradient>
<linearGradient id="paint9_linear_199_15" x1="50.9035" y1="19.9044" x2="248.562" y2="-3.60668" gradientUnits="userSpaceOnUse">
<stop offset="0.2" stop-color="#009BD9"/>
<stop offset="0.24" stop-color="#079FD6"/>
<stop offset="0.37" stop-color="#1BAACE"/>
<stop offset="0.52" stop-color="#2AB2C9"/>
<stop offset="0.7" stop-color="#32B7C5"/>
<stop offset="1" stop-color="#35B9C5"/>
</linearGradient>
<linearGradient id="paint10_linear_199_15" x1="51.1139" y1="21.6685" x2="248.773" y2="-1.84595" gradientUnits="userSpaceOnUse">
<stop offset="0.2" stop-color="#009BD9"/>
<stop offset="0.24" stop-color="#079FD6"/>
<stop offset="0.37" stop-color="#1BAACE"/>
<stop offset="0.52" stop-color="#2AB2C9"/>
<stop offset="0.7" stop-color="#32B7C5"/>
<stop offset="1" stop-color="#35B9C5"/>
</linearGradient>
<linearGradient id="paint11_linear_199_15" x1="51.4315" y1="24.3448" x2="249.091" y2="0.833629" gradientUnits="userSpaceOnUse">
<stop offset="0.2" stop-color="#009BD9"/>
<stop offset="0.24" stop-color="#079FD6"/>
<stop offset="0.37" stop-color="#1BAACE"/>
<stop offset="0.52" stop-color="#2AB2C9"/>
<stop offset="0.7" stop-color="#32B7C5"/>
<stop offset="1" stop-color="#35B9C5"/>
</linearGradient>
<linearGradient id="paint12_linear_199_15" x1="51.7225" y1="26.8039" x2="249.385" y2="3.2928" gradientUnits="userSpaceOnUse">
<stop offset="0.2" stop-color="#009BD9"/>
<stop offset="0.24" stop-color="#079FD6"/>
<stop offset="0.37" stop-color="#1BAACE"/>
<stop offset="0.52" stop-color="#2AB2C9"/>
<stop offset="0.7" stop-color="#32B7C5"/>
<stop offset="1" stop-color="#35B9C5"/>
</linearGradient>
<linearGradient id="paint13_linear_199_15" x1="52.0769" y1="29.7708" x2="249.736" y2="6.25976" gradientUnits="userSpaceOnUse">
<stop offset="0.2" stop-color="#009BD9"/>
<stop offset="0.24" stop-color="#079FD6"/>
<stop offset="0.37" stop-color="#1BAACE"/>
<stop offset="0.52" stop-color="#2AB2C9"/>
<stop offset="0.7" stop-color="#32B7C5"/>
<stop offset="1" stop-color="#35B9C5"/>
</linearGradient>
<linearGradient id="paint14_linear_199_15" x1="52.3713" y1="32.2433" x2="250.03" y2="8.73227" gradientUnits="userSpaceOnUse">
<stop offset="0.2" stop-color="#009BD9"/>
<stop offset="0.24" stop-color="#079FD6"/>
<stop offset="0.37" stop-color="#1BAACE"/>
<stop offset="0.52" stop-color="#2AB2C9"/>
<stop offset="0.7" stop-color="#32B7C5"/>
<stop offset="1" stop-color="#35B9C5"/>
</linearGradient>
<linearGradient id="paint15_linear_199_15" x1="52.6589" y1="34.6757" x2="250.321" y2="11.1647" gradientUnits="userSpaceOnUse">
<stop offset="0.2" stop-color="#009BD9"/>
<stop offset="0.24" stop-color="#079FD6"/>
<stop offset="0.37" stop-color="#1BAACE"/>
<stop offset="0.52" stop-color="#2AB2C9"/>
<stop offset="0.7" stop-color="#32B7C5"/>
<stop offset="1" stop-color="#35B9C5"/>
</linearGradient>
<linearGradient id="paint16_linear_199_15" x1="52.8829" y1="36.5467" x2="250.542" y2="13.0324" gradientUnits="userSpaceOnUse">
<stop offset="0.2" stop-color="#009BD9"/>
<stop offset="0.24" stop-color="#079FD6"/>
<stop offset="0.37" stop-color="#1BAACE"/>
<stop offset="0.52" stop-color="#2AB2C9"/>
<stop offset="0.7" stop-color="#32B7C5"/>
<stop offset="1" stop-color="#35B9C5"/>
</linearGradient>
<linearGradient id="paint17_linear_199_15" x1="51.2036" y1="42.7849" x2="251.772" y2="18.9256" gradientUnits="userSpaceOnUse">
<stop offset="0.2" stop-color="#009BD9"/>
<stop offset="0.24" stop-color="#079FD6"/>
<stop offset="0.37" stop-color="#1BAACE"/>
<stop offset="0.52" stop-color="#2AB2C9"/>
<stop offset="0.7" stop-color="#32B7C5"/>
<stop offset="1" stop-color="#35B9C5"/>
</linearGradient>
<linearGradient id="paint18_linear_199_15" x1="51.1944" y1="45.254" x2="251.762" y2="21.395" gradientUnits="userSpaceOnUse">
<stop offset="0.2" stop-color="#009BD9"/>
<stop offset="0.24" stop-color="#079FD6"/>
<stop offset="0.37" stop-color="#1BAACE"/>
<stop offset="0.52" stop-color="#2AB2C9"/>
<stop offset="0.7" stop-color="#32B7C5"/>
<stop offset="1" stop-color="#35B9C5"/>
</linearGradient>
</defs>
</svg>
