<svg width="77" height="69" viewBox="0 0 77 69" fill="none" xmlns="http://www.w3.org/2000/svg">
<g clip-path="url(#clip0_50_314)">
<path d="M17.8939 22.2047L16.3157 21.3009C16.2735 21.2787 16.2164 21.2762 16.1544 21.3034L15.0774 21.7887C15.065 21.6971 15.0725 21.6005 15.1097 21.5287L16.3529 19.028C16.4174 18.8993 16.3678 18.7359 16.2437 18.6641L14.8938 17.8866C14.8938 17.8866 14.8889 17.8866 14.8864 17.8866L13.3181 16.9878C13.194 16.916 13.0278 16.9556 12.9459 17.0745L11.3974 19.3994C11.3528 19.4663 11.2758 19.5207 11.1939 19.5554L11.0748 18.3768C11.0674 18.3075 11.0376 18.2605 10.9954 18.2357L9.41474 17.3295C9.36759 17.3048 9.30803 17.3072 9.246 17.3444L7.14915 18.5526C7.02508 18.6244 6.91093 18.8002 6.89853 18.9438L6.6876 21.2712C6.67519 21.4148 6.57593 21.608 6.46923 21.707C6.06227 22.0809 5.67268 22.4944 5.30542 22.9376C5.21361 23.049 5.02998 23.101 4.8935 23.0539L3.54854 22.586C3.41206 22.5389 3.24332 22.6008 3.17136 22.7271L1.63037 25.3912C1.5584 25.515 1.58818 25.6933 1.69737 25.7874L2.7768 26.7159C2.88599 26.81 2.93066 26.9957 2.88103 27.1294C2.68003 27.6666 2.51625 28.2113 2.39466 28.7511C2.3624 28.8922 2.24577 29.073 2.12666 29.1572L0.210965 30.5016C0.0918545 30.5858 -0.00244141 30.769 -0.00244141 30.9126V33.3267C-0.00244141 33.401 0.0273362 33.4554 0.0720027 33.4827L1.65022 34.3864C1.6924 34.4111 1.74948 34.4111 1.81151 34.3839L2.88847 33.8986C2.90088 33.9902 2.89343 34.0868 2.85621 34.1586L1.613 36.6593C1.54848 36.7881 1.59811 36.9515 1.72218 37.0233L3.61802 38.1102H3.6205L4.64783 38.7045C4.77191 38.7763 4.93816 38.7366 5.02005 38.6178L6.57097 36.2929C6.61564 36.226 6.69256 36.1716 6.77445 36.1369L6.89356 37.3154C6.90101 37.3848 6.93079 37.4343 6.97545 37.459L8.55118 38.3628C8.59833 38.3875 8.65789 38.3875 8.72241 38.3479L10.8192 37.1397C10.9433 37.0679 11.0575 36.8921 11.0699 36.7485L11.2808 34.4211C11.2932 34.2774 11.3925 34.0843 11.4992 33.9878C11.9061 33.6139 12.2957 33.2004 12.663 32.7572C12.7548 32.6458 12.9384 32.5938 13.0749 32.6408L14.4199 33.1088C14.5563 33.1558 14.7251 33.0939 14.797 32.9677L16.338 30.3035C16.41 30.1797 16.3802 30.0015 16.271 29.9074L15.1916 28.9789C15.0824 28.8848 15.0377 28.6991 15.0874 28.5654C15.2884 28.0281 15.4522 27.4834 15.5737 26.9437C15.606 26.8025 15.7226 26.6218 15.8417 26.5376L17.7574 25.1932C17.8765 25.1114 17.9708 24.9258 17.9708 24.7821V22.3681C17.9708 22.2938 17.9411 22.2393 17.8964 22.2121L17.8939 22.2047ZM6.23101 30.3283C6.23101 28.0752 7.81667 25.3343 9.77207 24.2077C10.5364 23.767 11.2436 23.6407 11.8242 23.7819C12.122 24.1978 12.2833 24.8292 12.2833 25.6562C12.2833 27.9093 10.6977 30.6502 8.74226 31.7767C7.97796 32.2174 7.32782 32.3586 6.81664 32.2397C6.4469 31.8089 6.23101 31.1602 6.23101 30.3308V30.3283Z" fill="#74C1C4"/>
<path opacity="0.2" d="M17.8939 22.2047L16.3157 21.3009C16.2735 21.2787 16.2164 21.2762 16.1544 21.3034L15.0774 21.7887C15.065 21.6971 15.0725 21.6005 15.1097 21.5287L16.3529 19.028C16.4174 18.8993 16.3678 18.7359 16.2437 18.6641L14.8938 17.8866C14.8938 17.8866 14.8889 17.8866 14.8864 17.8866L13.3181 16.9878C13.194 16.916 13.0278 16.9556 12.9459 17.0745L11.3974 19.3994C11.3528 19.4663 11.2758 19.5207 11.1939 19.5554L11.0748 18.3768C11.0674 18.3075 11.0376 18.2605 10.9954 18.2357L9.41474 17.3295C9.36759 17.3048 9.30803 17.3072 9.246 17.3444L7.14915 18.5526C7.02508 18.6244 6.91093 18.8002 6.89853 18.9438L6.6876 21.2712C6.67519 21.4148 6.57593 21.608 6.46923 21.707C6.06227 22.0809 5.67268 22.4944 5.30542 22.9376C5.21361 23.049 5.02998 23.101 4.8935 23.0539L3.54854 22.586C3.41206 22.5389 3.24332 22.6008 3.17136 22.7271L1.63037 25.3912C1.5584 25.515 1.58818 25.6933 1.69737 25.7874L2.7768 26.7159C2.88599 26.81 2.93066 26.9957 2.88103 27.1294C2.68003 27.6666 2.51625 28.2113 2.39466 28.7511C2.3624 28.8922 2.24577 29.073 2.12666 29.1572L0.210965 30.5016C0.0918545 30.5858 -0.00244141 30.769 -0.00244141 30.9126V33.3267C-0.00244141 33.401 0.0273362 33.4554 0.0720027 33.4827L1.65022 34.3864C1.6924 34.4111 1.74948 34.4111 1.81151 34.3839L2.88847 33.8986C2.90088 33.9902 2.89343 34.0868 2.85621 34.1586L1.613 36.6593C1.54848 36.7881 1.59811 36.9515 1.72218 37.0233L3.61802 38.1102H3.6205L4.64783 38.7045C4.77191 38.7763 4.93816 38.7366 5.02005 38.6178L6.57097 36.2929C6.61564 36.226 6.69256 36.1716 6.77445 36.1369L6.89356 37.3154C6.90101 37.3848 6.93079 37.4343 6.97545 37.459L8.55118 38.3628C8.59833 38.3875 8.65789 38.3875 8.72241 38.3479L10.8192 37.1397C10.9433 37.0679 11.0575 36.8921 11.0699 36.7485L11.2808 34.4211C11.2932 34.2774 11.3925 34.0843 11.4992 33.9878C11.9061 33.6139 12.2957 33.2004 12.663 32.7572C12.7548 32.6458 12.9384 32.5938 13.0749 32.6408L14.4199 33.1088C14.5563 33.1558 14.7251 33.0939 14.797 32.9677L16.338 30.3035C16.41 30.1797 16.3802 30.0015 16.271 29.9074L15.1916 28.9789C15.0824 28.8848 15.0377 28.6991 15.0874 28.5654C15.2884 28.0281 15.4522 27.4834 15.5737 26.9437C15.606 26.8025 15.7226 26.6218 15.8417 26.5376L17.7574 25.1932C17.8765 25.1114 17.9708 24.9258 17.9708 24.7821V22.3681C17.9708 22.2938 17.9411 22.2393 17.8964 22.2121L17.8939 22.2047ZM6.23101 30.3283C6.23101 28.0752 7.81667 25.3343 9.77207 24.2077C10.5364 23.767 11.2436 23.6407 11.8242 23.7819C12.122 24.1978 12.2833 24.8292 12.2833 25.6562C12.2833 27.9093 10.6977 30.6502 8.74226 31.7767C7.97796 32.2174 7.32782 32.3586 6.81664 32.2397C6.4469 31.8089 6.23101 31.1602 6.23101 30.3308V30.3283Z" fill="white"/>
<path opacity="0.1" d="M3.99018 33.6756C3.94799 33.5369 3.81151 33.4725 3.68 33.532L2.89337 33.886C2.90578 33.9776 2.89337 34.0742 2.85863 34.1485L1.61541 36.6492C1.55089 36.7779 1.60052 36.9414 1.72708 37.0156L3.62044 38.1001L3.30281 37.9144C3.17626 37.8426 3.12911 37.6817 3.19115 37.5504L4.43436 35.0497C4.49888 34.921 4.48151 34.7204 4.40458 34.5991C4.23833 34.3267 4.09688 34.0172 3.99018 33.6756ZM8.53375 38.3403C8.50149 38.3106 8.47916 38.266 8.46923 38.2066L8.26575 36.1738C8.25086 36.0302 8.12679 35.946 7.98534 35.9757C7.63298 36.0525 7.2955 36.0872 6.97539 36.0772C6.91087 36.0772 6.83891 36.0921 6.77439 36.1193L6.8935 37.3004C6.90094 37.3697 6.93072 37.4192 6.97291 37.4415L8.53127 38.3353L8.53375 38.3403Z" fill="black"/>
<path opacity="0.1" d="M13.3132 26.2477C13.3132 28.5008 11.73 31.2417 9.77212 32.3683C8.53635 33.0813 7.44698 32.9774 6.81421 32.237C7.32291 32.3608 7.97554 32.2172 8.74231 31.774C10.6977 30.6475 12.2834 27.9066 12.2834 25.6535C12.2834 24.829 12.1246 24.1951 11.8268 23.7792C12.7276 23.9995 13.3132 24.876 13.3132 26.2452V26.2477Z" fill="black"/>
<path d="M13.3181 16.9802C13.194 16.9084 13.0278 16.948 12.9484 17.0693L11.3975 19.3942C11.3726 19.4314 11.3354 19.4636 11.2957 19.4933L12.8739 20.3995C12.9161 20.3698 12.9533 20.3351 12.9757 20.298L14.5241 17.973C14.5985 17.8641 14.745 17.822 14.8641 17.8715L13.3206 16.9851L13.3181 16.9802ZM16.3182 21.2982C16.276 21.276 16.219 21.276 16.1569 21.3032L15.08 21.7885C15.0899 21.8578 15.1122 21.9247 15.1445 21.9766C15.3033 22.2366 15.4398 22.5313 15.544 22.8556C15.549 22.8705 15.5564 22.8853 15.5614 22.9002C15.5738 22.9373 15.5911 22.9695 15.616 22.9967C15.6234 23.0042 15.6333 23.0141 15.6432 23.0215C15.6606 23.0364 15.683 23.0463 15.7053 23.0537C15.74 23.0661 15.7797 23.0685 15.8194 23.0586C15.8368 23.0586 15.8542 23.0512 15.8715 23.0413L17.7376 22.202C17.755 22.1945 17.7674 22.1896 17.7848 22.1846C17.8071 22.1797 17.8294 22.1772 17.8493 22.1846C17.8691 22.1846 17.889 22.1921 17.9039 22.202L16.3232 21.2958L16.3182 21.2982ZM9.41476 17.3218C9.37009 17.2971 9.31054 17.302 9.24602 17.3392L7.14918 18.545C7.06233 18.5945 6.9854 18.6935 6.93825 18.7975L8.5115 19.7012C8.55617 19.5973 8.63806 19.4982 8.72243 19.4487L10.8193 18.2404C10.8788 18.2082 10.9334 18.2008 10.9806 18.2206L9.41228 17.3243L9.41476 17.3218ZM2.27557 28.9886C2.23339 29.0505 2.18127 29.1074 2.12916 29.1445L0.213469 30.489C0.16384 30.5237 0.124136 30.5781 0.0869141 30.6351L1.66017 31.5363C1.69491 31.4769 1.73957 31.4249 1.7892 31.3927L3.7049 30.0483C3.75701 30.0111 3.80664 29.9567 3.85379 29.8923L2.27557 28.9886ZM3.43938 22.561C3.33268 22.5659 3.22597 22.6229 3.1689 22.717L1.62791 25.3786C1.59565 25.438 1.58572 25.5049 1.59317 25.5742L3.1689 26.4804C3.15897 26.4136 3.1689 26.3418 3.20364 26.2823L4.74711 23.6182C4.79674 23.5291 4.896 23.4746 4.99526 23.4647L3.43938 22.561Z" fill="#74C1C4"/>
<path opacity="0.7" d="M13.3181 16.9802C13.194 16.9084 13.0278 16.948 12.9484 17.0693L11.3975 19.3942C11.3726 19.4314 11.3354 19.4636 11.2957 19.4933L12.8739 20.3995C12.9161 20.3698 12.9533 20.3351 12.9757 20.298L14.5241 17.973C14.5985 17.8641 14.745 17.822 14.8641 17.8715L13.3206 16.9851L13.3181 16.9802ZM16.3182 21.2982C16.276 21.276 16.219 21.276 16.1569 21.3032L15.08 21.7885C15.0899 21.8578 15.1122 21.9247 15.1445 21.9766C15.3033 22.2366 15.4398 22.5313 15.544 22.8556C15.549 22.8705 15.5564 22.8853 15.5614 22.9002C15.5738 22.9373 15.5911 22.9695 15.616 22.9967C15.6234 23.0042 15.6333 23.0141 15.6432 23.0215C15.6606 23.0364 15.683 23.0463 15.7053 23.0537C15.74 23.0661 15.7797 23.0685 15.8194 23.0586C15.8368 23.0586 15.8542 23.0512 15.8715 23.0413L17.7376 22.202C17.755 22.1945 17.7674 22.1896 17.7848 22.1846C17.8071 22.1797 17.8294 22.1772 17.8493 22.1846C17.8691 22.1846 17.889 22.1921 17.9039 22.202L16.3232 21.2958L16.3182 21.2982ZM9.41476 17.3218C9.37009 17.2971 9.31054 17.302 9.24602 17.3392L7.14918 18.545C7.06233 18.5945 6.9854 18.6935 6.93825 18.7975L8.5115 19.7012C8.55617 19.5973 8.63806 19.4982 8.72243 19.4487L10.8193 18.2404C10.8788 18.2082 10.9334 18.2008 10.9806 18.2206L9.41228 17.3243L9.41476 17.3218ZM2.27557 28.9886C2.23339 29.0505 2.18127 29.1074 2.12916 29.1445L0.213469 30.489C0.16384 30.5237 0.124136 30.5781 0.0869141 30.6351L1.66017 31.5363C1.69491 31.4769 1.73957 31.4249 1.7892 31.3927L3.7049 30.0483C3.75701 30.0111 3.80664 29.9567 3.85379 29.8923L2.27557 28.9886ZM3.43938 22.561C3.33268 22.5659 3.22597 22.6229 3.1689 22.717L1.62791 25.3786C1.59565 25.438 1.58572 25.5049 1.59317 25.5742L3.1689 26.4804C3.15897 26.4136 3.1689 26.3418 3.20364 26.2823L4.74711 23.6182C4.79674 23.5291 4.896 23.4746 4.99526 23.4647L3.43938 22.561Z" fill="white"/>
<path d="M17.9684 24.7746V22.3606C17.9684 22.217 17.8616 22.1476 17.7301 22.2071L15.8641 23.0464C15.7325 23.1058 15.5961 23.0415 15.5539 22.9028C15.4447 22.5611 15.3057 22.2516 15.137 21.9793C15.0626 21.8555 15.0452 21.6574 15.1097 21.5286L16.3529 19.0279C16.4174 18.8992 16.3678 18.7358 16.2437 18.664L14.8938 17.8865C14.7697 17.8147 14.6035 17.8543 14.5216 17.9732L12.9707 20.2981C12.8913 20.4169 12.7101 20.5036 12.5637 20.4986C12.2436 20.4912 11.9061 20.5234 11.5538 20.6002C11.4123 20.6323 11.2882 20.5457 11.2733 20.4046L11.0699 18.3718C11.055 18.2282 10.9433 18.1712 10.8168 18.2431L8.71991 19.4513C8.59584 19.5231 8.48169 19.6989 8.46929 19.8425L8.25836 22.1699C8.24595 22.3135 8.1467 22.5067 8.03999 22.6057C7.63303 22.9796 7.24344 23.393 6.87618 23.8362C6.78437 23.9477 6.60074 23.9997 6.46426 23.9526L5.1193 23.4847C4.98282 23.4376 4.81408 23.4995 4.74212 23.6258L3.20113 26.2899C3.12916 26.4137 3.15894 26.592 3.26813 26.6861L4.34757 27.6146C4.45675 27.7086 4.50142 27.8943 4.45179 28.028C4.25079 28.5653 4.08701 29.11 3.9679 29.6498C3.93564 29.7909 3.81901 29.9717 3.6999 30.0558L1.78421 31.4003C1.6651 31.4845 1.5708 31.6677 1.5708 31.8113V34.2254C1.5708 34.369 1.6775 34.4383 1.80902 34.3789L3.67509 33.5395C3.80661 33.4801 3.94309 33.5445 3.98527 33.6831C4.09446 34.0248 4.23342 34.3343 4.40216 34.6067C4.4766 34.7305 4.49397 34.9285 4.42945 35.0573L3.18624 37.558C3.12172 37.6868 3.17135 37.8502 3.29542 37.922L4.64534 38.6994C4.76942 38.7712 4.93567 38.7316 5.01756 38.6128L6.56848 36.2878C6.64789 36.169 6.82904 36.0823 6.97544 36.0873C7.29555 36.0947 7.63303 36.0625 7.9854 35.9858C8.12684 35.9536 8.25092 36.0402 8.26581 36.1814L8.46929 38.2141C8.48418 38.3577 8.59584 38.4147 8.7224 38.3429L10.8192 37.1346C10.9433 37.0628 11.0575 36.887 11.0699 36.7434L11.2808 34.416C11.2932 34.2724 11.3925 34.0793 11.4992 33.9827C11.9061 33.6088 12.2957 33.1954 12.663 32.7522C12.7548 32.6407 12.9384 32.5888 13.0749 32.6358L14.4199 33.1038C14.5563 33.1508 14.7251 33.0889 14.797 32.9626L16.338 30.2985C16.41 30.1747 16.3802 29.9964 16.271 29.9023L15.1916 28.9739C15.0824 28.8798 15.0377 28.6941 15.0874 28.5604C15.2884 28.0231 15.4521 27.4784 15.5737 26.9386C15.606 26.7975 15.7226 26.6167 15.8417 26.5326L17.7574 25.1881C17.8765 25.1064 17.9708 24.9207 17.9708 24.7771L17.9684 24.7746ZM9.77206 32.3684C7.81666 33.495 6.231 32.5813 6.231 30.3282C6.231 28.0751 7.81666 25.3342 9.77206 24.2076C11.7275 23.0811 13.3131 23.9947 13.3131 26.2478C13.3131 28.5009 11.7275 31.2418 9.77206 32.3684Z" fill="#74C1C4"/>
<path opacity="0.55" d="M17.9684 24.7746V22.3606C17.9684 22.217 17.8616 22.1476 17.7301 22.2071L15.8641 23.0464C15.7325 23.1058 15.5961 23.0415 15.5539 22.9028C15.4447 22.5611 15.3057 22.2516 15.137 21.9793C15.0626 21.8555 15.0452 21.6574 15.1097 21.5286L16.3529 19.0279C16.4174 18.8992 16.3678 18.7358 16.2437 18.664L14.8938 17.8865C14.7697 17.8147 14.6035 17.8543 14.5216 17.9732L12.9707 20.2981C12.8913 20.4169 12.7101 20.5036 12.5637 20.4986C12.2436 20.4912 11.9061 20.5234 11.5538 20.6002C11.4123 20.6323 11.2882 20.5457 11.2733 20.4046L11.0699 18.3718C11.055 18.2282 10.9433 18.1712 10.8168 18.2431L8.71991 19.4513C8.59584 19.5231 8.48169 19.6989 8.46929 19.8425L8.25836 22.1699C8.24595 22.3135 8.1467 22.5067 8.03999 22.6057C7.63303 22.9796 7.24344 23.393 6.87618 23.8362C6.78437 23.9477 6.60074 23.9997 6.46426 23.9526L5.1193 23.4847C4.98282 23.4376 4.81408 23.4995 4.74212 23.6258L3.20113 26.2899C3.12916 26.4137 3.15894 26.592 3.26813 26.6861L4.34757 27.6146C4.45675 27.7086 4.50142 27.8943 4.45179 28.028C4.25079 28.5653 4.08701 29.11 3.9679 29.6498C3.93564 29.7909 3.81901 29.9717 3.6999 30.0558L1.78421 31.4003C1.6651 31.4845 1.5708 31.6677 1.5708 31.8113V34.2254C1.5708 34.369 1.6775 34.4383 1.80902 34.3789L3.67509 33.5395C3.80661 33.4801 3.94309 33.5445 3.98527 33.6831C4.09446 34.0248 4.23342 34.3343 4.40216 34.6067C4.4766 34.7305 4.49397 34.9285 4.42945 35.0573L3.18624 37.558C3.12172 37.6868 3.17135 37.8502 3.29542 37.922L4.64534 38.6994C4.76942 38.7712 4.93567 38.7316 5.01756 38.6128L6.56848 36.2878C6.64789 36.169 6.82904 36.0823 6.97544 36.0873C7.29555 36.0947 7.63303 36.0625 7.9854 35.9858C8.12684 35.9536 8.25092 36.0402 8.26581 36.1814L8.46929 38.2141C8.48418 38.3577 8.59584 38.4147 8.7224 38.3429L10.8192 37.1346C10.9433 37.0628 11.0575 36.887 11.0699 36.7434L11.2808 34.416C11.2932 34.2724 11.3925 34.0793 11.4992 33.9827C11.9061 33.6088 12.2957 33.1954 12.663 32.7522C12.7548 32.6407 12.9384 32.5888 13.0749 32.6358L14.4199 33.1038C14.5563 33.1508 14.7251 33.0889 14.797 32.9626L16.338 30.2985C16.41 30.1747 16.3802 29.9964 16.271 29.9023L15.1916 28.9739C15.0824 28.8798 15.0377 28.6941 15.0874 28.5604C15.2884 28.0231 15.4521 27.4784 15.5737 26.9386C15.606 26.7975 15.7226 26.6167 15.8417 26.5326L17.7574 25.1881C17.8765 25.1064 17.9708 24.9207 17.9708 24.7771L17.9684 24.7746ZM9.77206 32.3684C7.81666 33.495 6.231 32.5813 6.231 30.3282C6.231 28.0751 7.81666 25.3342 9.77206 24.2076C11.7275 23.0811 13.3131 23.9947 13.3131 26.2478C13.3131 28.5009 11.7275 31.2418 9.77206 32.3684Z" fill="white"/>
<g opacity="0.55">
<path opacity="0.55" d="M14.7574 18.0225C14.7748 18.0225 14.7922 18.0275 14.8046 18.0349L16.1545 18.8124C16.1991 18.8371 16.2165 18.899 16.1942 18.9436L14.951 21.4443C14.8616 21.6251 14.8765 21.8875 14.9882 22.0658C15.1495 22.3282 15.2835 22.6253 15.3852 22.9497C15.4398 23.1255 15.5912 23.2394 15.7674 23.2394C15.8244 23.2394 15.884 23.227 15.9386 23.2022L17.7922 22.3678V24.7695C17.7922 24.8562 17.7253 24.9849 17.6533 25.0369L15.7376 26.3814C15.5862 26.4878 15.4398 26.7082 15.3976 26.8939C15.281 27.4163 15.1197 27.9536 14.9187 28.4909C14.8418 28.6964 14.9088 28.9588 15.075 29.1L16.1545 30.0285C16.1991 30.0656 16.214 30.1523 16.1843 30.2018L14.6433 32.8659C14.6209 32.9055 14.5663 32.9327 14.5167 32.9327C14.5018 32.9327 14.4894 32.9328 14.4795 32.9278L13.1345 32.4598C13.0824 32.4425 13.0253 32.4326 12.9683 32.4326C12.7995 32.4326 12.6308 32.5094 12.5291 32.6307C12.1618 33.0714 11.7772 33.4799 11.3826 33.8439C11.2437 33.9727 11.1245 34.2079 11.1072 34.3936L10.8962 36.721C10.8888 36.8076 10.8094 36.9314 10.735 36.9735L8.65052 38.1744L8.44704 36.1564C8.4247 35.946 8.25845 35.7925 8.04752 35.7925C8.01526 35.7925 7.983 35.795 7.95074 35.8024C7.65049 35.8692 7.35767 35.9014 7.07727 35.9014C7.04749 35.9014 7.01523 35.9014 6.98545 35.9014H6.97056C6.76212 35.9014 6.53382 36.0203 6.42712 36.1812L4.8762 38.5061C4.85883 38.5334 4.82409 38.5507 4.78935 38.5507C4.77198 38.5507 4.75461 38.5457 4.7422 38.5383L3.39228 37.7609C3.34762 37.7361 3.33025 37.6742 3.35258 37.6296L4.5958 35.1289C4.68513 34.9482 4.67024 34.6857 4.56106 34.5075C4.39976 34.245 4.26576 33.9479 4.16402 33.6235C4.10943 33.4478 3.95806 33.3339 3.78187 33.3339C3.72232 33.3339 3.66525 33.3462 3.61065 33.371L1.75699 34.2054V31.8037C1.75699 31.7171 1.82399 31.5883 1.89596 31.5388L3.81165 30.1943C3.96302 30.0879 4.10943 29.8675 4.15161 29.6818C4.26824 29.1569 4.42954 28.6196 4.63054 28.0848C4.70746 27.8793 4.64046 27.6169 4.4742 27.4757L3.39477 26.5473C3.3501 26.5101 3.33521 26.4235 3.36499 26.3739L4.90598 23.7098C4.92831 23.6702 4.98291 23.643 5.03254 23.643C5.04742 23.643 5.05983 23.643 5.06976 23.6479L6.41471 24.1159C6.46682 24.1332 6.5239 24.1431 6.58097 24.1431C6.74971 24.1431 6.91845 24.0663 7.02019 23.945C7.38745 23.5043 7.77208 23.0958 8.16911 22.7318C8.30807 22.6031 8.42719 22.3678 8.44456 22.1821L8.65548 19.8547C8.66293 19.7681 8.74233 19.6443 8.81678 19.6022L10.9012 18.4014L11.1047 20.4193C11.127 20.6297 11.2933 20.7808 11.5042 20.7808C11.5365 20.7808 11.5687 20.7783 11.601 20.7708C11.8988 20.704 12.1941 20.6718 12.4745 20.6718C12.5042 20.6718 12.5365 20.6718 12.5663 20.6718H12.5812C12.7896 20.6718 13.0179 20.553 13.1246 20.392L14.6755 18.0671C14.6929 18.0399 14.7276 18.0225 14.7624 18.0225H14.7574ZM8.19641 33.0268C8.72248 33.0268 9.28329 32.856 9.86644 32.5217C11.869 31.3679 13.4968 28.5553 13.4968 26.2477C13.4968 25.4356 13.2958 24.7522 12.9137 24.2768C12.5315 23.8014 11.9955 23.5489 11.3603 23.5489C10.8342 23.5489 10.2734 23.7197 9.69025 24.054C7.68771 25.2078 6.05986 28.0204 6.05986 30.328C6.05986 31.9671 6.8986 33.0268 8.19641 33.0268ZM14.7624 17.8467C14.6706 17.8467 14.5812 17.8913 14.5291 17.9705L12.9782 20.2955C12.8988 20.4118 12.7251 20.496 12.5812 20.496H12.5712C12.539 20.496 12.5067 20.496 12.4745 20.496C12.1841 20.496 11.8789 20.5307 11.5638 20.6C11.5439 20.605 11.5241 20.6074 11.5067 20.6074C11.3901 20.6074 11.2982 20.5282 11.2834 20.4044L11.0799 18.3716C11.07 18.2701 11.0104 18.2107 10.931 18.2107C10.8987 18.2107 10.864 18.2206 10.8268 18.2429L8.72993 19.4512C8.60585 19.523 8.4917 19.6988 8.4793 19.8424L8.26837 22.1698C8.25596 22.3134 8.1567 22.5065 8.05 22.6055C7.64304 22.9794 7.25345 23.3929 6.88619 23.8361C6.81671 23.9203 6.6976 23.9698 6.58345 23.9698C6.54623 23.9698 6.50901 23.9648 6.47427 23.9525L5.12931 23.4845C5.09953 23.4746 5.06479 23.4696 5.03254 23.4696C4.92087 23.4696 4.80672 23.5291 4.75213 23.6256L3.21114 26.2898C3.13917 26.4136 3.16895 26.5918 3.27814 26.6859L4.35757 27.6144C4.46676 27.7085 4.51143 27.8942 4.4618 28.0279C4.2608 28.5652 4.09702 29.1099 3.97791 29.6496C3.94565 29.7908 3.82902 29.9715 3.70991 30.0557L1.79422 31.4001C1.67511 31.4843 1.58081 31.6675 1.58081 31.8111V34.2252C1.58081 34.3341 1.64285 34.401 1.7297 34.401C1.75699 34.401 1.78925 34.3936 1.82151 34.3787L3.68758 33.5394C3.71984 33.5245 3.75458 33.5171 3.78684 33.5171C3.88361 33.5171 3.9655 33.579 4.00024 33.683C4.10943 34.0246 4.24839 34.3341 4.41713 34.6065C4.49157 34.7303 4.50894 34.9284 4.44443 35.0571L3.20121 37.5578C3.13669 37.6866 3.18632 37.85 3.3104 37.9218L4.66031 38.6993C4.7025 38.724 4.74965 38.7364 4.7968 38.7364C4.88861 38.7364 4.97794 38.6918 5.03005 38.6126L6.58097 36.2877C6.66038 36.1713 6.83408 36.0871 6.97801 36.0871H6.98793C7.02019 36.0871 7.05245 36.0871 7.08471 36.0871C7.37752 36.0871 7.68026 36.0525 7.99789 35.9831C8.01774 35.9782 8.03759 35.9757 8.05497 35.9757C8.17159 35.9757 8.26589 36.0549 8.27582 36.1787L8.4793 38.2115C8.48922 38.313 8.54878 38.3724 8.62818 38.3724C8.66044 38.3724 8.69518 38.3625 8.73241 38.3402L10.8292 37.132C10.9533 37.0602 11.065 36.8844 11.0799 36.7408L11.2908 34.4134C11.3032 34.2698 11.4025 34.0766 11.5092 33.9801C11.9161 33.6062 12.3057 33.1927 12.673 32.7495C12.7425 32.6653 12.8616 32.6158 12.9757 32.6158C13.0129 32.6158 13.0502 32.6208 13.0849 32.6332L14.4299 33.1011C14.4596 33.111 14.4944 33.116 14.5266 33.116C14.6383 33.116 14.7525 33.0565 14.807 32.96L16.348 30.2959C16.42 30.1721 16.3902 29.9938 16.281 29.8997L15.2016 28.9712C15.0924 28.8771 15.0477 28.6914 15.0974 28.5577C15.2984 28.0204 15.4622 27.4757 15.5837 26.936C15.616 26.7949 15.7326 26.6141 15.8517 26.5299L17.7674 25.1855C17.8865 25.1038 17.9808 24.9181 17.9808 24.7745V22.3604C17.9808 22.2515 17.9188 22.1846 17.832 22.1846C17.8047 22.1846 17.7724 22.192 17.7426 22.2069L15.8766 23.0463C15.8443 23.0611 15.8096 23.0685 15.7773 23.0685C15.6805 23.0685 15.5986 23.0066 15.5639 22.9026C15.4547 22.561 15.3157 22.2515 15.147 21.9791C15.0726 21.8553 15.0552 21.6572 15.1197 21.5285L16.3629 19.0278C16.4274 18.899 16.3778 18.7356 16.2537 18.6638L14.9038 17.8864C14.8616 17.8616 14.8145 17.8492 14.7673 17.8492L14.7624 17.8467ZM8.19641 32.851C7.03508 32.851 6.23605 31.9275 6.23605 30.328C6.23605 28.0749 7.82171 25.334 9.77711 24.2075C10.3454 23.8806 10.8838 23.7247 11.3578 23.7247C12.5191 23.7247 13.3182 24.6482 13.3182 26.2477C13.3182 28.5008 11.7325 31.2417 9.77711 32.3682C9.20885 32.6951 8.67037 32.851 8.19641 32.851Z" fill="white"/>
</g>
<path d="M30.6959 20.6054C30.7158 20.437 30.8249 20.2092 30.949 20.0953L31.9813 19.147C32.1054 19.0331 32.1823 18.8053 32.155 18.6395L31.9615 17.5154C31.949 17.4386 31.9118 17.3866 31.8622 17.3594L30.6388 16.6537C30.5818 16.6215 30.5048 16.624 30.4254 16.676L29.9812 16.9682L30.4105 15.8119C30.4602 15.6807 30.4056 15.5544 30.2914 15.4925H30.2964L29.073 14.7844C29.0482 14.772 29.0234 14.7596 28.9911 14.7522L28.2144 14.5789C28.0507 14.5417 27.8521 14.6334 27.7727 14.7819L27.0407 16.1734C26.9861 16.2774 26.8695 16.3764 26.7504 16.4433L26.7156 16.3319C26.6958 16.2675 26.661 16.2229 26.6164 16.1957L25.388 15.4876C25.3235 15.4504 25.2367 15.4578 25.1573 15.5197L23.991 16.4334C23.857 16.5374 23.7602 16.7577 23.7701 16.9261L23.8396 18.0328C23.8495 18.2012 23.7676 18.4389 23.6585 18.5676C23.4674 18.7954 23.2862 19.0356 23.1175 19.2832C23.0232 19.4219 22.8123 19.5308 22.6435 19.5234L21.8941 19.4862C21.7254 19.4788 21.5318 19.5952 21.4648 19.7512L20.7601 21.3259C20.6981 21.467 20.7527 21.6279 20.8792 21.7047L21.7105 22.185C21.7378 22.2519 21.7452 22.3286 21.7304 22.4004C21.6733 22.653 21.6286 22.9055 21.6013 23.1531C21.5815 23.3215 21.4723 23.5493 21.3482 23.6632L20.3159 24.6115C20.1918 24.7254 20.1149 24.9531 20.1422 25.119L20.3358 26.2431C20.3482 26.3174 20.3829 26.3669 20.4301 26.3942L21.6609 27.1048C21.7179 27.1369 21.7949 27.132 21.8718 27.0825L22.316 26.7903L21.8867 27.9466C21.8395 28.0729 21.8867 28.1967 21.9909 28.261L23.2217 28.9692V28.9642C23.249 28.9791 23.2763 28.9964 23.3086 29.0038L24.0853 29.1771C24.249 29.2143 24.4476 29.1227 24.527 28.9741L25.259 27.5826C25.3136 27.4786 25.4302 27.3796 25.5493 27.3152L25.5841 27.4266C25.6039 27.491 25.6412 27.538 25.6833 27.5628L26.9017 28.2635L26.9166 28.2734C26.9811 28.3056 27.063 28.2982 27.14 28.2363L28.3063 27.3226C28.4403 27.2186 28.537 26.9983 28.5271 26.8299L28.4576 25.7232C28.4477 25.5548 28.5296 25.3171 28.6388 25.1884C28.8298 24.9606 29.011 24.7204 29.1797 24.4728C29.274 24.3342 29.4849 24.2252 29.6537 24.2326L30.4031 24.2698C30.5718 24.2772 30.7654 24.1608 30.8324 24.0049L31.5371 22.4301C31.6066 22.2766 31.5371 22.0984 31.3808 22.0315L30.7753 21.774C30.619 21.7072 30.5296 21.5215 30.5669 21.3581C30.6239 21.1055 30.6686 20.853 30.6959 20.6054ZM24.4749 24.0247C24.2466 22.7 25.0853 20.8257 26.3484 19.8329C26.8149 19.4664 27.2715 19.2758 27.676 19.2411C27.738 19.3798 27.7901 19.5407 27.8224 19.7289C28.0507 21.0535 27.2119 22.9278 25.9489 23.9207C25.4848 24.2846 25.0282 24.4778 24.6262 24.5099C24.5592 24.3688 24.5071 24.2054 24.4749 24.0222V24.0247Z" fill="#74C1C4"/>
<path opacity="0.2" d="M30.6959 20.6054C30.7158 20.437 30.8249 20.2092 30.949 20.0953L31.9813 19.147C32.1054 19.0331 32.1823 18.8053 32.155 18.6395L31.9615 17.5154C31.949 17.4386 31.9118 17.3866 31.8622 17.3594L30.6388 16.6537C30.5818 16.6215 30.5048 16.624 30.4254 16.676L29.9812 16.9682L30.4105 15.8119C30.4602 15.6807 30.4056 15.5544 30.2914 15.4925H30.2964L29.073 14.7844C29.0482 14.772 29.0234 14.7596 28.9911 14.7522L28.2144 14.5789C28.0507 14.5417 27.8521 14.6334 27.7727 14.7819L27.0407 16.1734C26.9861 16.2774 26.8695 16.3764 26.7504 16.4433L26.7156 16.3319C26.6958 16.2675 26.661 16.2229 26.6164 16.1957L25.388 15.4876C25.3235 15.4504 25.2367 15.4578 25.1573 15.5197L23.991 16.4334C23.857 16.5374 23.7602 16.7577 23.7701 16.9261L23.8396 18.0328C23.8495 18.2012 23.7676 18.4389 23.6585 18.5676C23.4674 18.7954 23.2862 19.0356 23.1175 19.2832C23.0232 19.4219 22.8123 19.5308 22.6435 19.5234L21.8941 19.4862C21.7254 19.4788 21.5318 19.5952 21.4648 19.7512L20.7601 21.3259C20.6981 21.467 20.7527 21.6279 20.8792 21.7047L21.7105 22.185C21.7378 22.2519 21.7452 22.3286 21.7304 22.4004C21.6733 22.653 21.6286 22.9055 21.6013 23.1531C21.5815 23.3215 21.4723 23.5493 21.3482 23.6632L20.3159 24.6115C20.1918 24.7254 20.1149 24.9531 20.1422 25.119L20.3358 26.2431C20.3482 26.3174 20.3829 26.3669 20.4301 26.3942L21.6609 27.1048C21.7179 27.1369 21.7949 27.132 21.8718 27.0825L22.316 26.7903L21.8867 27.9466C21.8395 28.0729 21.8867 28.1967 21.9909 28.261L23.2217 28.9692V28.9642C23.249 28.9791 23.2763 28.9964 23.3086 29.0038L24.0853 29.1771C24.249 29.2143 24.4476 29.1227 24.527 28.9741L25.259 27.5826C25.3136 27.4786 25.4302 27.3796 25.5493 27.3152L25.5841 27.4266C25.6039 27.491 25.6412 27.538 25.6833 27.5628L26.9017 28.2635L26.9166 28.2734C26.9811 28.3056 27.063 28.2982 27.14 28.2363L28.3063 27.3226C28.4403 27.2186 28.537 26.9983 28.5271 26.8299L28.4576 25.7232C28.4477 25.5548 28.5296 25.3171 28.6388 25.1884C28.8298 24.9606 29.011 24.7204 29.1797 24.4728C29.274 24.3342 29.4849 24.2252 29.6537 24.2326L30.4031 24.2698C30.5718 24.2772 30.7654 24.1608 30.8324 24.0049L31.5371 22.4301C31.6066 22.2766 31.5371 22.0984 31.3808 22.0315L30.7753 21.774C30.619 21.7072 30.5296 21.5215 30.5669 21.3581C30.6239 21.1055 30.6686 20.853 30.6959 20.6054ZM24.4749 24.0247C24.2466 22.7 25.0853 20.8257 26.3484 19.8329C26.8149 19.4664 27.2715 19.2758 27.676 19.2411C27.738 19.3798 27.7901 19.5407 27.8224 19.7289C28.0507 21.0535 27.2119 22.9278 25.9489 23.9207C25.4848 24.2846 25.0282 24.4778 24.6262 24.5099C24.5592 24.3688 24.5071 24.2054 24.4749 24.0222V24.0247Z" fill="white"/>
<path opacity="0.1" d="M23.3185 26.4952C23.2217 26.3566 23.0455 26.307 22.9041 26.4011L22.3135 26.7874L21.8842 27.9437C21.8395 28.0675 21.8842 28.1937 21.9884 28.2581L23.2043 28.9563C23.1076 28.8919 23.0703 28.7706 23.1125 28.6493L23.6386 27.2281C23.6957 27.0721 23.6336 26.8617 23.5195 26.7379C23.4475 26.6636 23.3805 26.5819 23.3185 26.4927V26.4952ZM26.9067 28.268C26.8645 28.2432 26.8273 28.1987 26.8074 28.1343L26.5444 27.2628C26.4972 27.1018 26.3335 27.0325 26.1771 27.0944C26.0158 27.1613 25.8545 27.2132 25.6982 27.2529C25.6511 27.2652 25.5965 27.2875 25.5468 27.3148L25.5816 27.4287C25.6039 27.493 25.6387 27.5401 25.6833 27.5624L26.9092 28.268H26.9067Z" fill="black"/>
<path opacity="0.1" d="M27.1747 24.6259C26.0854 25.4801 25.0357 25.3984 24.6238 24.5071C25.0283 24.4749 25.4824 24.2817 25.9464 23.9178C27.2095 22.9274 28.0482 21.0506 27.8199 19.726C27.7852 19.5378 27.738 19.3769 27.6735 19.2407C28.3658 19.1813 28.9018 19.5972 29.0482 20.4316C29.2765 21.7563 28.4378 23.633 27.1747 24.6234V24.6259Z" fill="black"/>
<path d="M22.862 19.4759C22.79 19.5056 22.7156 19.5254 22.6486 19.5205L21.8967 19.4833C21.79 19.4784 21.6758 19.523 21.5865 19.5972L22.8148 20.3029C22.9042 20.2311 23.0183 20.1865 23.125 20.189L23.8769 20.2261C23.9439 20.2311 24.0184 20.2137 24.0903 20.1865L22.862 19.4759ZM25.3906 15.4847C25.3261 15.445 25.2417 15.4525 25.1623 15.5169L23.996 16.4305C23.9092 16.4973 23.8422 16.6162 23.8025 16.735L25.0308 17.4407C25.068 17.3218 25.1375 17.203 25.2243 17.1361L26.3882 16.225C26.47 16.1631 26.5544 16.1532 26.6189 16.1928L25.3906 15.4847ZM21.3384 23.6702L20.3185 24.6061C20.2416 24.6754 20.1894 24.7868 20.1597 24.8983L21.3855 25.6014C21.4128 25.4875 21.4724 25.3811 21.5468 25.3117L22.5667 24.3783L21.3384 23.6702ZM29.0706 14.7815C29.0458 14.7666 29.021 14.7543 28.9887 14.7493L28.212 14.5735C28.0483 14.5364 27.8522 14.628 27.7728 14.7765L27.0408 16.1656C27.0036 16.2324 26.944 16.2968 26.8745 16.3537L28.1029 17.0594C28.1723 17.0049 28.2319 16.9405 28.2691 16.8712L29.0011 15.4822C29.0781 15.3336 29.2766 15.242 29.4404 15.2792L30.2171 15.455C30.2468 15.4624 30.2717 15.4723 30.2965 15.4847L29.0706 14.7815ZM30.6364 16.6508C30.5794 16.6187 30.5024 16.6211 30.423 16.6731L29.9813 16.9653L29.8821 17.2277C29.825 17.3862 29.887 17.5967 30.0037 17.7205C30.0756 17.7947 30.1401 17.8764 30.2022 17.9656C30.2195 17.9879 30.2369 18.0052 30.2543 18.025C30.2692 18.0374 30.2865 18.0498 30.299 18.0597C30.3337 18.0819 30.366 18.0943 30.4032 18.0993C30.4478 18.1092 30.495 18.1067 30.5397 18.0918C30.5645 18.0869 30.5893 18.0745 30.6141 18.0572L31.6464 17.3812C31.6737 17.3639 31.6985 17.3515 31.7233 17.3441C31.7556 17.3342 31.7829 17.3317 31.8102 17.3392C31.8275 17.3392 31.8449 17.3466 31.8573 17.354L30.6315 16.6508H30.6364Z" fill="#74C1C4"/>
<path opacity="0.7" d="M22.862 19.4759C22.79 19.5056 22.7156 19.5254 22.6486 19.5205L21.8967 19.4833C21.79 19.4784 21.6758 19.523 21.5865 19.5972L22.8148 20.3029C22.9042 20.2311 23.0183 20.1865 23.125 20.189L23.8769 20.2261C23.9439 20.2311 24.0184 20.2137 24.0903 20.1865L22.862 19.4759ZM25.3906 15.4847C25.3261 15.445 25.2417 15.4525 25.1623 15.5169L23.996 16.4305C23.9092 16.4973 23.8422 16.6162 23.8025 16.735L25.0308 17.4407C25.068 17.3218 25.1375 17.203 25.2243 17.1361L26.3882 16.225C26.47 16.1631 26.5544 16.1532 26.6189 16.1928L25.3906 15.4847ZM21.3384 23.6702L20.3185 24.6061C20.2416 24.6754 20.1894 24.7868 20.1597 24.8983L21.3855 25.6014C21.4128 25.4875 21.4724 25.3811 21.5468 25.3117L22.5667 24.3783L21.3384 23.6702ZM29.0706 14.7815C29.0458 14.7666 29.021 14.7543 28.9887 14.7493L28.212 14.5735C28.0483 14.5364 27.8522 14.628 27.7728 14.7765L27.0408 16.1656C27.0036 16.2324 26.944 16.2968 26.8745 16.3537L28.1029 17.0594C28.1723 17.0049 28.2319 16.9405 28.2691 16.8712L29.0011 15.4822C29.0781 15.3336 29.2766 15.242 29.4404 15.2792L30.2171 15.455C30.2468 15.4624 30.2717 15.4723 30.2965 15.4847L29.0706 14.7815ZM30.6364 16.6508C30.5794 16.6187 30.5024 16.6211 30.423 16.6731L29.9813 16.9653L29.8821 17.2277C29.825 17.3862 29.887 17.5967 30.0037 17.7205C30.0756 17.7947 30.1401 17.8764 30.2022 17.9656C30.2195 17.9879 30.2369 18.0052 30.2543 18.025C30.2692 18.0374 30.2865 18.0498 30.299 18.0597C30.3337 18.0819 30.366 18.0943 30.4032 18.0993C30.4478 18.1092 30.495 18.1067 30.5397 18.0918C30.5645 18.0869 30.5893 18.0745 30.6141 18.0572L31.6464 17.3812C31.6737 17.3639 31.6985 17.3515 31.7233 17.3441C31.7556 17.3342 31.7829 17.3317 31.8102 17.3392C31.8275 17.3392 31.8449 17.3466 31.8573 17.354L30.6315 16.6508H30.6364Z" fill="white"/>
<path d="M32.1528 18.639L31.9592 17.515C31.9294 17.3491 31.7929 17.2896 31.6515 17.3813L30.6192 18.0597C30.4778 18.1513 30.3016 18.1042 30.2048 17.9656C30.1428 17.8764 30.0758 17.7947 30.0038 17.7205C29.8872 17.5991 29.8251 17.3887 29.8822 17.2302L30.4083 15.809C30.4678 15.6506 30.381 15.4921 30.2147 15.455L29.438 15.2816C29.2743 15.2445 29.0757 15.3361 28.9963 15.4847L28.2643 16.8762C28.1849 17.0247 27.9864 17.1658 27.8226 17.2079C27.6663 17.2476 27.505 17.2995 27.3437 17.3664C27.1873 17.4308 27.0236 17.3614 26.9764 17.198L26.7134 16.3265C26.6637 16.1656 26.5173 16.1185 26.3833 16.2225L25.2171 17.1361C25.0831 17.2401 24.9863 17.4605 24.9962 17.6288L25.0657 18.7356C25.0756 18.904 24.9937 19.1417 24.8845 19.2704C24.6935 19.4982 24.5123 19.7384 24.3436 19.986C24.2493 20.1246 24.0384 20.2336 23.8696 20.2261L23.1202 20.189C22.9515 20.1816 22.7579 20.2979 22.6909 20.4539L21.9862 22.0286C21.9167 22.1821 21.9862 22.3604 22.1425 22.4273L22.748 22.6848C22.9043 22.7516 22.9937 22.9373 22.9564 23.1007C22.8994 23.3533 22.8547 23.6058 22.8274 23.8534C22.8075 24.0218 22.6984 24.2496 22.5743 24.3635L21.542 25.3117C21.4179 25.4256 21.341 25.6534 21.3683 25.8193L21.5618 26.9434C21.5916 27.1093 21.7281 27.1687 21.8695 27.0771L22.9018 26.3987C23.0433 26.3071 23.2195 26.3541 23.3162 26.4928C23.3783 26.5819 23.4453 26.6636 23.5172 26.7379C23.6339 26.8592 23.6959 27.0697 23.6388 27.2281L23.1128 28.6493C23.0532 28.8078 23.1401 28.9663 23.3063 29.0034L24.083 29.1767C24.2468 29.2139 24.4453 29.1222 24.5247 28.9737L25.2568 27.5822C25.3362 27.4336 25.5347 27.2925 25.6985 27.2504C25.8548 27.2108 26.0136 27.1588 26.1774 27.092C26.3337 27.0276 26.4975 27.0994 26.5446 27.2603L26.8077 28.1319C26.8573 28.2928 27.0037 28.3398 27.1377 28.2359L28.304 27.3222C28.438 27.2182 28.5348 26.9979 28.5248 26.8295L28.4554 25.7228C28.4454 25.5544 28.5273 25.3167 28.6365 25.188C28.8276 24.9602 29.0087 24.72 29.1775 24.4724C29.2718 24.3337 29.4827 24.2248 29.6514 24.2322L30.4008 24.2694C30.5696 24.2768 30.7631 24.1604 30.8301 24.0044L31.5349 22.4297C31.6044 22.2762 31.5349 22.098 31.3785 22.0311L30.7731 21.7736C30.6167 21.7068 30.5274 21.5211 30.5646 21.3576C30.6217 21.1051 30.6664 20.8525 30.6937 20.605C30.7135 20.4366 30.8227 20.2088 30.9468 20.0949L31.9791 19.1466C32.1031 19.0327 32.1801 18.8049 32.1528 18.639ZM27.1749 24.6259C25.9119 25.6163 24.7034 25.3464 24.4751 24.0242C24.2468 22.6996 25.0855 20.8253 26.3486 19.8325C27.6117 18.8421 28.8201 19.1119 29.0484 20.4341C29.2767 21.7587 28.438 23.6355 27.1749 24.6259Z" fill="#74C1C4"/>
<path opacity="0.55" d="M32.1528 18.639L31.9592 17.515C31.9294 17.3491 31.7929 17.2896 31.6515 17.3813L30.6192 18.0597C30.4778 18.1513 30.3016 18.1042 30.2048 17.9656C30.1428 17.8764 30.0758 17.7947 30.0038 17.7205C29.8872 17.5991 29.8251 17.3887 29.8822 17.2302L30.4083 15.809C30.4678 15.6506 30.381 15.4921 30.2147 15.455L29.438 15.2816C29.2743 15.2445 29.0757 15.3361 28.9963 15.4847L28.2643 16.8762C28.1849 17.0247 27.9864 17.1658 27.8226 17.2079C27.6663 17.2476 27.505 17.2995 27.3437 17.3664C27.1873 17.4308 27.0236 17.3614 26.9764 17.198L26.7134 16.3265C26.6637 16.1656 26.5173 16.1185 26.3833 16.2225L25.2171 17.1361C25.0831 17.2401 24.9863 17.4605 24.9962 17.6288L25.0657 18.7356C25.0756 18.904 24.9937 19.1417 24.8845 19.2704C24.6935 19.4982 24.5123 19.7384 24.3436 19.986C24.2493 20.1246 24.0384 20.2336 23.8696 20.2261L23.1202 20.189C22.9515 20.1816 22.7579 20.2979 22.6909 20.4539L21.9862 22.0286C21.9167 22.1821 21.9862 22.3604 22.1425 22.4273L22.748 22.6848C22.9043 22.7516 22.9937 22.9373 22.9564 23.1007C22.8994 23.3533 22.8547 23.6058 22.8274 23.8534C22.8075 24.0218 22.6984 24.2496 22.5743 24.3635L21.542 25.3117C21.4179 25.4256 21.341 25.6534 21.3683 25.8193L21.5618 26.9434C21.5916 27.1093 21.7281 27.1687 21.8695 27.0771L22.9018 26.3987C23.0433 26.3071 23.2195 26.3541 23.3162 26.4928C23.3783 26.5819 23.4453 26.6636 23.5172 26.7379C23.6339 26.8592 23.6959 27.0697 23.6388 27.2281L23.1128 28.6493C23.0532 28.8078 23.1401 28.9663 23.3063 29.0034L24.083 29.1767C24.2468 29.2139 24.4453 29.1222 24.5247 28.9737L25.2568 27.5822C25.3362 27.4336 25.5347 27.2925 25.6985 27.2504C25.8548 27.2108 26.0136 27.1588 26.1774 27.092C26.3337 27.0276 26.4975 27.0994 26.5446 27.2603L26.8077 28.1319C26.8573 28.2928 27.0037 28.3398 27.1377 28.2359L28.304 27.3222C28.438 27.2182 28.5348 26.9979 28.5248 26.8295L28.4554 25.7228C28.4454 25.5544 28.5273 25.3167 28.6365 25.188C28.8276 24.9602 29.0087 24.72 29.1775 24.4724C29.2718 24.3337 29.4827 24.2248 29.6514 24.2322L30.4008 24.2694C30.5696 24.2768 30.7631 24.1604 30.8301 24.0044L31.5349 22.4297C31.6044 22.2762 31.5349 22.098 31.3785 22.0311L30.7731 21.7736C30.6167 21.7068 30.5274 21.5211 30.5646 21.3576C30.6217 21.1051 30.6664 20.8525 30.6937 20.605C30.7135 20.4366 30.8227 20.2088 30.9468 20.0949L31.9791 19.1466C32.1031 19.0327 32.1801 18.8049 32.1528 18.639ZM27.1749 24.6259C25.9119 25.6163 24.7034 25.3464 24.4751 24.0242C24.2468 22.6996 25.0855 20.8253 26.3486 19.8325C27.6117 18.8421 28.8201 19.1119 29.0484 20.4341C29.2767 21.7587 28.438 23.6355 27.1749 24.6259Z" fill="white"/>
<g opacity="0.55">
<path opacity="0.55" d="M29.3634 15.4626C29.3758 15.4626 29.3882 15.4626 29.3981 15.4651L30.1748 15.6384C30.2021 15.6434 30.222 15.6582 30.2319 15.678C30.2418 15.6978 30.2418 15.7201 30.2319 15.7473L29.7058 17.1685C29.6264 17.384 29.6934 17.6712 29.8671 17.8519C29.9316 17.9212 29.9937 17.9955 30.0507 18.0772C30.1475 18.2159 30.3014 18.2976 30.4602 18.2976C30.552 18.2976 30.6413 18.2704 30.7183 18.2184L31.7506 17.5399C31.7506 17.5399 31.763 17.5325 31.7679 17.53C31.7679 17.535 31.7704 17.5399 31.7729 17.5498L31.9664 18.6739C31.9838 18.7779 31.9292 18.9413 31.8498 19.0131L30.8175 19.9614C30.6662 20.1026 30.5322 20.37 30.5073 20.5878C30.48 20.8255 30.4379 21.0707 30.3808 21.3183C30.3237 21.5708 30.4627 21.8456 30.6959 21.9471L31.3014 22.2046C31.3312 22.217 31.3535 22.2393 31.3634 22.269C31.3759 22.2987 31.3734 22.3284 31.3634 22.3582L30.6587 23.9329C30.6215 24.0146 30.5073 24.0864 30.4081 24.0864L29.6587 24.0492C29.6587 24.0492 29.6413 24.0492 29.6314 24.0492C29.4056 24.0492 29.15 24.1854 29.0209 24.3711C28.8547 24.6162 28.676 24.8514 28.4899 25.0718C28.3485 25.2402 28.2517 25.5274 28.2666 25.7378L28.3361 26.8446C28.3435 26.9511 28.2691 27.1145 28.1847 27.1813L27.0184 28.095C27.006 28.1049 26.9961 28.1098 26.9961 28.1098C26.9936 28.1049 26.9886 28.0974 26.9837 28.0826L26.7206 27.211C26.6611 27.0154 26.4923 26.8892 26.2913 26.8892C26.2293 26.8892 26.1672 26.9015 26.1052 26.9263C25.9514 26.9882 25.8 27.0377 25.6511 27.0773C25.4575 27.1269 25.2044 27.2878 25.0903 27.5032L24.3583 28.8947C24.326 28.9566 24.2367 29.0061 24.1573 29.0061C24.1449 29.0061 24.1324 29.0061 24.1225 29.0036L23.3458 28.8303C23.3185 28.8254 23.2987 28.8105 23.2887 28.7907C23.2788 28.7709 23.2788 28.7486 23.2887 28.7214L23.8148 27.3002C23.8942 27.0848 23.8272 26.7975 23.6535 26.6168C23.589 26.5475 23.527 26.4732 23.4699 26.3915C23.3731 26.2528 23.2193 26.1711 23.0604 26.1711C22.9686 26.1711 22.8793 26.1984 22.8024 26.2504L21.7701 26.9288C21.7701 26.9288 21.7577 26.9362 21.7527 26.9387C21.7527 26.9337 21.7502 26.9263 21.7478 26.9189L21.5542 25.7948C21.5368 25.6908 21.5939 25.5274 21.6708 25.4556L22.7031 24.5073C22.8545 24.3662 22.9885 24.0988 23.0133 23.8809C23.0406 23.6432 23.0828 23.3981 23.1399 23.1505C23.1969 22.8979 23.058 22.6231 22.8247 22.5216L22.2192 22.2641C22.1895 22.2517 22.1671 22.2294 22.1572 22.1997C22.1448 22.17 22.1473 22.1403 22.1572 22.1106L22.8619 20.5359C22.8992 20.4541 23.0133 20.3823 23.1126 20.3823L23.862 20.4195C23.862 20.4195 23.8793 20.4195 23.8893 20.4195C24.1151 20.4195 24.3707 20.2833 24.4997 20.0976C24.666 19.8525 24.8446 19.6173 25.0307 19.3969C25.1722 19.2285 25.269 18.9413 25.2541 18.7309L25.1846 17.6241C25.1771 17.5177 25.2516 17.3542 25.336 17.2874L26.5022 16.3738C26.5147 16.3639 26.5246 16.3614 26.5246 16.3589C26.5271 16.3639 26.532 16.3713 26.537 16.3861L26.8 17.2577C26.8596 17.4533 27.0283 17.5796 27.2293 17.5796C27.2914 17.5796 27.3534 17.5672 27.4154 17.5424C27.5693 17.4805 27.7206 17.431 27.8695 17.3914C28.0631 17.3419 28.3162 17.1809 28.4303 16.9655L29.1624 15.574C29.1946 15.5097 29.284 15.4626 29.3634 15.4626ZM25.7231 25.411C26.2169 25.411 26.7578 25.1907 27.2889 24.7747C28.5991 23.7472 29.4701 21.7887 29.2294 20.4071C29.083 19.5603 28.547 19.0528 27.7976 19.0528C27.3038 19.0528 26.7628 19.2731 26.2318 19.6891C24.9216 20.7166 24.0506 22.6751 24.2888 24.0567C24.4352 24.9034 24.9712 25.411 25.7206 25.411H25.7231ZM29.3609 15.2769C29.2145 15.2769 29.0631 15.3611 28.9961 15.4898L28.2641 16.8813C28.1847 17.0299 27.9862 17.171 27.8224 17.2131C27.6661 17.2527 27.5048 17.3047 27.3435 17.3716C27.3038 17.3864 27.2665 17.3939 27.2268 17.3939C27.1127 17.3939 27.0109 17.3245 26.9737 17.2032L26.7107 16.3317C26.6784 16.2277 26.609 16.1732 26.5271 16.1732C26.4799 16.1732 26.4303 16.1905 26.3831 16.2277L25.2168 17.1413C25.0828 17.2453 24.9861 17.4657 24.996 17.634L25.0655 18.7408C25.0754 18.9091 24.9935 19.1468 24.8843 19.2756C24.6933 19.5034 24.5121 19.7435 24.3434 19.9911C24.2516 20.1248 24.053 20.2313 23.8868 20.2313C23.8793 20.2313 23.8744 20.2313 23.8694 20.2313L23.12 20.1942C23.12 20.1942 23.1076 20.1942 23.1026 20.1942C22.9389 20.1942 22.7552 20.3105 22.6882 20.4591L21.9835 22.0338C21.914 22.1873 21.9835 22.3656 22.1398 22.4324L22.7453 22.6899C22.9016 22.7568 22.991 22.9425 22.9537 23.1059C22.8967 23.3584 22.852 23.611 22.8247 23.8586C22.8049 24.027 22.6957 24.2547 22.5716 24.3686L21.5393 25.3169C21.4152 25.4308 21.3383 25.6586 21.3656 25.8245L21.5592 26.9486C21.579 27.0625 21.6485 27.1244 21.7353 27.1244C21.7775 27.1244 21.8222 27.1095 21.8669 27.0798L22.8992 26.4014C22.9488 26.3692 23.0034 26.3544 23.0555 26.3544C23.1547 26.3544 23.249 26.4063 23.3136 26.4955C23.3756 26.5846 23.4426 26.6663 23.5146 26.7406C23.6312 26.8619 23.6932 27.0724 23.6361 27.2308L23.1101 28.652C23.0505 28.8105 23.1374 28.969 23.3036 29.0061L24.0803 29.1794C24.1051 29.1844 24.13 29.1868 24.1573 29.1868C24.3037 29.1868 24.455 29.1027 24.522 28.9739L25.2541 27.5824C25.3335 27.4339 25.532 27.2927 25.6958 27.2506C25.8521 27.211 26.0134 27.159 26.1747 27.0922C26.2144 27.0773 26.2516 27.0699 26.2913 27.0699C26.4055 27.0699 26.5072 27.1392 26.5444 27.2606L26.8075 28.1321C26.8397 28.2361 26.9092 28.2906 26.9911 28.2906C27.0382 28.2906 27.0879 28.2732 27.135 28.2361L28.3013 27.3225C28.4353 27.2185 28.5321 26.9981 28.5222 26.8297L28.4527 25.723C28.4428 25.5546 28.5246 25.3169 28.6338 25.1882C28.8249 24.9604 29.0061 24.7202 29.1748 24.4726C29.2666 24.3389 29.4651 24.2325 29.6314 24.2325C29.6388 24.2325 29.6438 24.2325 29.6488 24.2325L30.3982 24.2696C30.3982 24.2696 30.4106 24.2696 30.4155 24.2696C30.5793 24.2696 30.7629 24.1532 30.8299 24.0047L31.5347 22.43C31.6041 22.2764 31.5347 22.0982 31.3783 22.0313L30.7729 21.7738C30.6165 21.707 30.5272 21.5213 30.5644 21.3579C30.6215 21.1053 30.6662 20.8528 30.6934 20.6052C30.7133 20.4368 30.8225 20.209 30.9466 20.0951L31.9789 19.1468C32.1029 19.0329 32.1799 18.8052 32.1526 18.6393L31.959 17.5152C31.9391 17.4013 31.8697 17.3394 31.7828 17.3394C31.7406 17.3394 31.696 17.3542 31.6513 17.384L30.619 18.0624C30.5694 18.0946 30.5148 18.1094 30.4627 18.1094C30.3634 18.1094 30.2691 18.0574 30.2046 17.9683C30.1426 17.8791 30.0756 17.7974 30.0036 17.7232C29.887 17.6018 29.8249 17.3914 29.882 17.2329L30.4081 15.8117C30.4676 15.6533 30.3808 15.4948 30.2145 15.4577L29.4378 15.2843C29.413 15.2794 29.3882 15.2769 29.3609 15.2769ZM25.7206 25.2253C25.0878 25.2253 24.6064 24.8118 24.4724 24.0245C24.2441 22.6998 25.0828 20.8255 26.3459 19.8327C26.8596 19.4291 27.3633 19.236 27.7976 19.236C28.4303 19.236 28.9118 19.6495 29.0458 20.4368C29.2741 21.7615 28.4353 23.6382 27.1722 24.6286C26.6586 25.0322 26.1548 25.2253 25.7206 25.2253Z" fill="white"/>
</g>
<path d="M77.0001 13.494C77.0001 13.2216 76.8091 12.8898 76.5708 12.7512L54.6148 0.101523C54.3766 -0.0346548 53.9944 -0.0346548 53.7562 0.101523L53.2723 0.381306C53.0341 0.517484 52.843 0.849262 52.843 1.12409V17.916C52.843 18.1884 53.0366 18.5227 53.2723 18.6588L75.2308 31.3085C75.4666 31.4447 75.8537 31.4447 76.0894 31.3085L76.5733 31.0287C76.809 30.8925 77.0026 30.5583 77.0026 30.2859V13.494H77.0001Z" fill="#74C1C4"/>
<path opacity="0.5" d="M77.0001 13.494C77.0001 13.2216 76.8091 12.8898 76.5708 12.7512L54.6148 0.101523C54.3766 -0.0346548 53.9944 -0.0346548 53.7562 0.101523L53.2723 0.381306C53.0341 0.517484 52.843 0.849262 52.843 1.12409V17.916C52.843 18.1884 53.0366 18.5227 53.2723 18.6588L75.2308 31.3085C75.4666 31.4447 75.8537 31.4447 76.0894 31.3085L76.5733 31.0287C76.809 30.8925 77.0026 30.5583 77.0026 30.2859V13.494H77.0001Z" fill="white"/>
<path d="M74.9875 14.16L76.8759 13.0731C76.9529 13.2068 77.0025 13.3578 77.0025 13.494V30.2884C77.0025 30.5608 76.8089 30.895 76.5732 31.0312L76.0893 31.311C75.8536 31.4471 75.4665 31.4471 75.2307 31.311L74.99 31.1723V14.16H74.9875Z" fill="#74C1C4"/>
<path d="M52.8403 1.12412V17.9185C52.8403 18.0597 52.8924 18.2157 52.9743 18.3518C53.0413 18.4633 53.1282 18.5648 53.225 18.6316L53.2423 18.6415C53.2423 18.6415 53.2597 18.6539 53.2696 18.6589L75.2281 31.306H75.2306C75.3448 31.3729 75.4465 31.3803 75.5234 31.3407C75.6053 31.2986 75.6574 31.1996 75.6574 31.0585V14.2665C75.6574 13.9941 75.4416 13.8233 75.176 13.8877L65.9425 16.0789L64.734 16.3661C64.466 16.428 64.1211 16.2993 63.9623 16.0764L62.5602 14.1303L53.1307 1.03003C52.9718 0.809671 52.8403 0.849286 52.8403 1.12412Z" fill="#74C1C4"/>
<path opacity="0.2" d="M52.8403 1.12412V17.9185C52.8403 18.0597 52.8924 18.2157 52.9743 18.3518C53.0413 18.4633 53.1282 18.5648 53.225 18.6316L53.2423 18.6415C53.2423 18.6415 53.2597 18.6539 53.2696 18.6589L75.2281 31.306H75.2306C75.3448 31.3729 75.4465 31.3803 75.5234 31.3407C75.6053 31.2986 75.6574 31.1996 75.6574 31.0585V14.2665C75.6574 13.9941 75.4416 13.8233 75.176 13.8877L65.9425 16.0789L64.734 16.3661C64.466 16.428 64.1211 16.2993 63.9623 16.0764L62.5602 14.1303L53.1307 1.03003C52.9718 0.809671 52.8403 0.849286 52.8403 1.12412Z" fill="white"/>
<path d="M53.2721 18.6588C53.2721 18.6588 53.2547 18.6465 53.2448 18.6415L53.2274 18.6316C53.1306 18.5648 53.0438 18.4632 52.9768 18.3518C52.8949 18.2181 52.8453 18.0646 52.8428 17.926L62.5602 14.1303L56.0513 20.2633L53.2696 18.6613L53.2721 18.6588Z" fill="#74C1C4"/>
<path d="M53.2721 18.6588C53.2721 18.6588 53.2547 18.6465 53.2448 18.6415L53.2274 18.6316C53.1306 18.5648 53.0438 18.4632 52.9768 18.3518C52.8949 18.2181 52.8453 18.0646 52.8428 17.926L62.5602 14.1303L56.0513 20.2633L53.2696 18.6613L53.2721 18.6588Z" fill="#74C1C4"/>
<path opacity="0.2" d="M53.2721 18.6588C53.2721 18.6588 53.2547 18.6465 53.2448 18.6415L53.2274 18.6316C53.1306 18.5648 53.0438 18.4632 52.9768 18.3518C52.8949 18.2181 52.8453 18.0646 52.8428 17.926L62.5602 14.1303L56.0513 20.2633L53.2696 18.6613L53.2721 18.6588Z" fill="black"/>
<path d="M75.6574 31.0609C75.6574 31.202 75.6053 31.3011 75.5234 31.3432C75.4465 31.3828 75.3447 31.3754 75.2306 31.311H75.2281L67.667 26.9558L65.9399 16.0814L75.6549 30.7861V31.0659L75.6574 31.0609Z" fill="#74C1C4"/>
<path d="M75.6574 31.0609C75.6574 31.202 75.6053 31.3011 75.5234 31.3432C75.4465 31.3828 75.3447 31.3754 75.2306 31.311H75.2281L67.667 26.9558L65.9399 16.0814L75.6549 30.7861V31.0659L75.6574 31.0609Z" fill="#74C1C4"/>
<path opacity="0.2" d="M75.6574 31.0609C75.6574 31.202 75.6053 31.3011 75.5234 31.3432C75.4465 31.3828 75.3447 31.3754 75.2306 31.311H75.2281L67.667 26.9558L65.9399 16.0814L75.6549 30.7861V31.0659L75.6574 31.0609Z" fill="black"/>
<path d="M52.9744 18.3518C53.0414 18.4632 53.1282 18.5647 53.225 18.6316L53.2424 18.6415L75.2282 31.3085H75.2307C75.3448 31.3753 75.4466 31.3828 75.5235 31.3431L65.0095 14.5933C64.5728 13.9 63.6943 13.6301 62.9424 13.9594L52.9744 18.3493V18.3518Z" fill="#74C1C4"/>
<path opacity="0.2" d="M52.9744 18.3518C53.0414 18.4632 53.1282 18.5647 53.225 18.6316L53.2424 18.6415L75.2282 31.3085H75.2307C75.3448 31.3753 75.4466 31.3828 75.5235 31.3431L65.0095 14.5933C64.5728 13.9 63.6943 13.6301 62.9424 13.9594L52.9744 18.3493V18.3518Z" fill="white"/>
<path d="M75.4812 13.8654L65.4908 18.2676C64.7463 18.5944 63.8753 18.327 63.4436 17.6412L52.9519 0.888855L75.4812 13.8654Z" fill="#74C1C4"/>
<path opacity="0.2" d="M75.4812 13.8654L65.4908 18.2676C64.7463 18.5944 63.8753 18.327 63.4436 17.6412L52.9519 0.888855L75.4812 13.8654Z" fill="black"/>
<path d="M75.4812 13.8654L65.4213 17.6164C64.7041 17.8838 63.8977 17.6189 63.4808 16.9801L52.9519 0.888855L75.4812 13.8654Z" fill="#74C1C4"/>
<path opacity="0.2" d="M75.4812 13.8654L65.4213 17.6164C64.7041 17.8838 63.8977 17.6189 63.4808 16.9801L52.9519 0.888855L75.4812 13.8654Z" fill="white"/>
<path opacity="0.1" d="M25.507 68.792L1.97028 55.2708C1.49135 54.996 1.49135 54.5478 1.97028 54.273L48.0363 27.7431C48.5152 27.4683 49.2919 27.4683 49.7708 27.7431L73.3076 41.2643C73.7865 41.5392 73.7865 41.9873 73.3076 42.2621L27.2416 68.7895C26.7626 69.0644 25.9859 69.0644 25.507 68.7895V68.792Z" fill="black"/>
<path d="M4.30544 54.7193L25.4103 66.8737C26.0952 67.2674 26.9017 67.2773 27.6114 66.9158L70.0991 42.4385C70.5657 42.1686 71.3002 41.5645 71.2927 40.8168C71.2902 40.4132 71.3101 40.0022 71.3101 39.7967C71.3101 39.1183 70.7666 38.2566 70.0991 37.8704L49.0736 25.758C48.4061 25.3742 47.3168 25.3742 46.6492 25.758L4.30544 50.1511C3.63544 50.5374 3.09448 51.399 3.09448 52.0774C3.09448 52.1319 3.10441 52.788 3.10441 52.8524C3.10441 53.7908 3.69004 54.3652 4.30544 54.7193Z" fill="#1E2139"/>
<path d="M25.4079 66.8731L4.30544 54.7187C3.75952 54.4042 3.10441 53.8967 3.10441 52.8518C3.10441 52.676 3.09448 52.2006 3.09448 52.0768C3.09448 51.3984 3.63792 50.5368 4.30544 50.1505L26.5593 37.33V67.1752C26.1647 67.1777 25.7702 67.0811 25.4103 66.8731H25.4079Z" fill="#151728"/>
<path d="M25.9115 63.9912C26.4996 64.3304 27.4599 64.3304 28.048 63.9912L70.104 39.7639C71.0072 39.244 71.0072 38.3897 70.104 37.8698L49.0735 25.7549C48.406 25.3712 47.3166 25.3712 46.6491 25.7549L4.30532 50.1505C3.63781 50.5343 3.63781 51.1632 4.30532 51.547L25.909 63.9936L25.9115 63.9912Z" fill="#333B59"/>
<path d="M27.9539 61.5523C28.5891 61.9188 29.6214 61.9188 30.2567 61.5523L66.4464 40.7048C67.0817 40.3383 67.0817 39.7441 66.4464 39.3777L46.6642 27.9833C46.0314 27.6193 44.9941 27.6193 44.3614 27.9833L8.1716 48.8309C7.53883 49.1948 7.53883 49.794 8.1716 50.158L27.9539 61.5523Z" fill="#1E2139"/>
<path d="M45.5823 27.7134C45.9768 27.7233 46.3639 27.81 46.6642 27.9833L66.4465 39.3777C67.0817 39.7441 67.0817 40.3383 66.4465 40.7048L62.5258 42.9629L45.5823 32.1677V27.7134Z" fill="#151728"/>
<path d="M59.2153 34.0494L55.709 32.029C55.5005 31.9077 55.4881 31.7195 55.6866 31.6056C55.8827 31.4917 56.2127 31.4991 56.4212 31.618L59.9275 33.6384C60.1359 33.7597 60.1483 33.9479 59.9498 34.0618C59.7538 34.1756 59.4237 34.1682 59.2153 34.0494Z" fill="#151728"/>
<path d="M53.1929 30.5855C52.9969 30.4716 52.9969 30.2884 53.1929 30.177C53.389 30.0631 53.7066 30.0631 53.9026 30.177C54.0987 30.2909 54.0987 30.4741 53.9026 30.5855C53.7066 30.6994 53.389 30.6994 53.1929 30.5855Z" fill="#151728"/>
<path d="M51.7735 29.766C51.5775 29.6521 51.5775 29.4689 51.7735 29.3575C51.9695 29.2436 52.2872 29.2436 52.4832 29.3575C52.6792 29.4713 52.6792 29.6546 52.4832 29.766C52.2872 29.8799 51.9695 29.8799 51.7735 29.766Z" fill="#151728"/>
<path d="M63.1436 36.3149C62.9476 36.201 62.9476 36.0178 63.1436 35.9063C63.3396 35.7924 63.6573 35.7924 63.8533 35.9063C64.0493 36.0202 64.0493 36.2035 63.8533 36.3149C63.6573 36.4288 63.3396 36.4288 63.1436 36.3149Z" fill="#151728"/>
<path d="M61.7217 35.4954C61.5257 35.3815 61.5257 35.1982 61.7217 35.0868C61.9178 34.9729 62.2354 34.9729 62.4314 35.0868C62.6275 35.2007 62.6275 35.3839 62.4314 35.4954C62.2354 35.6093 61.9178 35.6093 61.7217 35.4954Z" fill="#151728"/>
<path d="M44.3464 28.8449C44.9792 28.481 46.0165 28.481 46.6492 28.8449L66.4315 40.2393C66.5581 40.3111 66.6573 40.3928 66.7318 40.4795C66.6573 40.5587 66.563 40.6354 66.4439 40.7023L30.2566 61.5523C29.6214 61.9188 28.5891 61.9188 27.9538 61.5523L8.17156 50.158C8.04748 50.0862 7.94822 50.0069 7.87378 49.9203C7.94822 49.8386 8.04004 49.7618 8.15915 49.695L44.3464 28.8449Z" fill="#FAFAFA"/>
<path d="M43.7705 31.2144C43.7507 31.1897 43.7383 31.1599 43.7333 31.1302L43.6737 30.6548C43.6663 30.5905 43.706 30.5459 43.7705 30.5484L44.5944 30.583C44.6663 30.5855 44.7433 30.6474 44.7631 30.7217C44.7854 30.796 44.7433 30.8529 44.6713 30.848L43.9591 30.8183L44.0038 31.1822C44.0137 31.254 43.9591 31.3011 43.8847 31.2862C43.84 31.2763 43.7978 31.2491 43.7705 31.2119V31.2144Z" fill="#333B59"/>
<path d="M60.5453 40.326C60.4287 40.3928 60.2252 40.3854 60.0912 40.3062C59.9572 40.2294 59.9423 40.1106 60.0589 40.0437C60.1755 39.9769 60.379 39.9843 60.513 40.0635C60.647 40.1403 60.6619 40.2591 60.5453 40.326Z" fill="#333B59"/>
<path d="M61.5726 40.9177C61.456 40.9846 61.2525 40.9771 61.1185 40.8979C60.9845 40.8211 60.9696 40.7023 61.0863 40.6354C61.2029 40.5686 61.4064 40.576 61.5404 40.6552C61.6744 40.7345 61.6893 40.8508 61.5726 40.9177Z" fill="#333B59"/>
<path d="M62.6 41.5095C62.4833 41.5763 62.2799 41.5689 62.1459 41.4897C62.0119 41.4129 61.997 41.2941 62.1136 41.2272C62.2302 41.1604 62.4337 41.1678 62.5677 41.247C62.7017 41.3238 62.7166 41.4426 62.6 41.5095Z" fill="#333B59"/>
<path d="M58.7065 41.8462L43.1502 32.8857C42.8276 32.7 42.3388 32.6802 42.0608 32.8411L41.0409 33.4353C40.8821 33.319 40.6042 33.0416 40.7382 32.5588C40.2072 33.1234 40.2022 33.6854 40.227 33.9107L37.4949 35.5028C37.2145 35.6637 37.2517 35.9435 37.5743 36.1316L53.1307 45.0921C53.4533 45.2778 53.9421 45.2976 54.22 45.1367L58.7835 42.4775C59.0639 42.3166 59.0266 42.0368 58.704 41.8486L58.7065 41.8462Z" fill="#E0E0E0"/>
<path d="M27.8966 58.138L12.3403 49.1775C12.0177 48.9918 11.5289 48.972 11.2509 49.1329L10.3948 49.6306C10.1144 49.7915 10.1516 50.0713 10.4742 50.2595L26.0306 59.22C26.3532 59.4057 26.842 59.4255 27.1199 59.2646L27.976 58.7669C28.2564 58.6059 28.2192 58.3262 27.8966 58.138Z" fill="#E0E0E0"/>
<path d="M30.6262 59.7102L29.914 59.2967C29.5914 59.111 29.1026 59.0912 28.8247 59.2521L27.9686 59.7498C27.6882 59.9107 27.7254 60.1905 28.048 60.3787L28.7602 60.7922C29.0827 60.9779 29.5716 60.9977 29.8495 60.8367L30.7056 60.3391C30.986 60.1781 30.9488 59.8984 30.6262 59.7102Z" fill="#E0E0E0"/>
</g>
<defs>
<clipPath id="clip0_50_314">
<rect width="77" height="69" fill="white"/>
</clipPath>
</defs>
</svg>
